<?xml version="1.0" standalone="no"?>
<!DOCTYPE svg PUBLIC "-//W3C//DTD SVG 1.1//EN" "http://www.w3.org/Graphics/SVG/1.1/DTD/svg11.dtd" >
<svg xmlns="http://www.w3.org/2000/svg">
<metadata></metadata>
<defs>
<font id="prudential_serifitalic" horiz-adv-x="1048" >
<font-face units-per-em="2048" ascent="1516" descent="-532" />
<missing-glyph horiz-adv-x="409" />
<glyph horiz-adv-x="0" />
<glyph unicode="&#xd;" horiz-adv-x="0" />
<glyph horiz-adv-x="0" />
<glyph horiz-adv-x="0" />
<glyph unicode=" "  horiz-adv-x="409" />
<glyph unicode="&#x09;" horiz-adv-x="409" />
<glyph unicode="&#xa0;" horiz-adv-x="409" />
<glyph unicode="!" horiz-adv-x="518" d="M74 74q0 45 31.5 78.5t78.5 33.5h2q53 0 76 -34.5t23 -67.5q0 -45 -33 -73.5t-74 -28.5q-51 0 -77.5 26.5t-26.5 65.5zM172 334q6 45 14.5 106.5t16.5 125t16 124t14 107.5q6 53 15.5 121.5t17.5 139t15.5 138.5t13.5 121q16 6 45 11t58.5 9t55 7.5t33.5 3.5h2v-2 q0 -2 1.5 -2.5t1.5 -2.5q-23 -104 -50.5 -233t-56.5 -263t-57.5 -265t-51.5 -238q-23 -4 -54.5 -6t-49.5 -2z" />
<glyph unicode="&#x22;" horiz-adv-x="628" d="M182 983q6 55 11.5 115.5t10.5 117t9 106.5t8 87q29 10 80 15.5t80 5.5q-10 -39 -23.5 -98.5t-28 -123t-27.5 -122t-19 -93.5q-20 -6 -52 -8t-49 -2zM475 983q6 55 12.5 115.5t10.5 117t8 106.5t8 87q29 10 80 15.5t80 5.5q-10 -39 -23.5 -98.5t-28 -123t-27.5 -122 t-20 -93.5q-20 -6 -51.5 -8t-48.5 -2z" />
<glyph unicode="#" d="M57 473q10 55 23 100h229q25 72 48.5 143.5t45.5 143.5h-123.5t-107.5 2q4 23 9 47.5t9 46.5h246q35 98 65.5 191.5t59.5 175.5q29 0 57.5 -1t51.5 -3q-29 -78 -60.5 -172t-66.5 -191q53 2 110.5 2h112.5q33 96 64.5 189.5t60.5 175.5q29 0 56.5 -1t51.5 -3 q-27 -78 -59.5 -171t-65.5 -190q57 0 111.5 1.5t101.5 1.5q-4 -25 -9 -51.5t-11 -49.5h-227l-97 -287h122t108 -2q-4 -23 -9.5 -47t-11.5 -47h-241q-37 -106 -76 -213.5t-68 -193.5q-25 -2 -50 -1t-50 3q37 104 70.5 205.5t68.5 199.5q-53 -2 -112.5 -2h-112.5 q-39 -106 -77 -213.5t-66 -191.5q-23 -2 -48.5 -1t-50.5 3q35 104 69 204.5t68 198.5q-59 0 -115.5 -1t-103.5 -1zM414 573h225l94 287h-223q-25 -72 -49.5 -143.5t-46.5 -143.5z" />
<glyph unicode="$" d="M45 129q8 31 30.5 65.5t51.5 51.5q45 -31 115.5 -61.5t163.5 -32.5q20 111 40.5 229.5t40.5 234.5q-59 25 -110 51.5t-88 60.5t-57.5 78t-20.5 103v2q0 47 16.5 88t42 75t55 58.5t58.5 41.5q47 27 107.5 43t121.5 20q10 49 18.5 101.5t16.5 99.5q25 6 51.5 9t51.5 5 q-10 -49 -19.5 -102.5t-19.5 -108.5q84 0 154.5 -14.5t103.5 -36.5q-6 -29 -26.5 -63.5t-47.5 -55.5q-35 23 -87 46.5t-118 27.5q-18 -102 -37.5 -212t-40.5 -220q143 -51 211 -114.5t68 -176.5q0 -76 -38 -146.5t-110 -121.5q-98 -72 -262 -93q-10 -47 -18 -98t-19 -98 q-23 -4 -47 -5t-47 -3q18 98 37 202q-49 -2 -98 2.5t-94 13.5t-84 22.5t-66 31.5zM350 922q0 -66 39 -102t135 -75l36 204t34 196q-43 0 -84 -13.5t-64 -29.5q-35 -25 -65.5 -68.5t-30.5 -109.5v-2zM498 152q51 4 93 20t71 39q41 33 65.5 79t24.5 99v2q0 74 -41 115t-133 80 q-20 -109 -41 -219.5t-39 -214.5z" />
<glyph unicode="%" horiz-adv-x="1542" d="M115 936q0 86 39 176t108 150q49 41 101.5 59t107.5 18q43 0 110.5 1t145.5 1t159 1t153.5 2.5t128 3.5t83.5 4q12 -16 21.5 -32.5t19.5 -35.5q-55 -74 -114.5 -155.5t-120 -164.5t-118.5 -164t-112 -153q-55 -78 -117.5 -164t-128 -176t-132 -181t-130.5 -179 q-23 12 -43 25.5t-40 25.5q135 182 260 354t249 346q94 131 197 274.5t201 282.5l-2 9q-117 -2 -247 -2h-243q29 -29 46.5 -80.5t17.5 -112.5q0 -82 -36 -169t-108 -152q-49 -43 -101 -60.5t-110 -17.5q-104 0 -167 63q-35 35 -56.5 85t-21.5 118zM244 926q0 -49 10 -81 t31 -54q35 -41 94 -41h2q25 0 55.5 10t59.5 39q35 35 63.5 109.5t28.5 174.5q0 84 -33 129q-33 47 -98 48q-31 0 -59.5 -10.5t-55.5 -35.5q-25 -23 -43 -57.5t-30.5 -73.5t-18.5 -79.5t-6 -77.5zM836 246q0 86 38.5 176t106.5 149q94 80 209 80q57 0 102 -19.5t76 -53.5 q29 -33 47.5 -81t18.5 -120q0 -76 -34 -165t-108 -155q-49 -45 -100.5 -61t-110.5 -16h-2q-102 0 -166 63q-35 35 -56 86t-21 117zM965 236q0 -49 10 -81t29 -55q37 -41 96 -41h2q25 0 55.5 10.5t59.5 41.5q35 35 62.5 110.5t27.5 167.5q0 45 -8.5 78t-22.5 53 q-16 23 -42 37t-58 14q-29 0 -59 -11t-54 -34q-25 -25 -43.5 -58.5t-30.5 -72.5t-18 -81t-6 -78z" />
<glyph unicode="&#x26;" horiz-adv-x="1372" d="M37 311q0 63 23.5 127t68.5 119t109.5 101t148.5 79l2 8q-66 53 -106.5 116t-40.5 151q0 72 32.5 135t90.5 110q47 39 109.5 61.5t154.5 22.5q66 0 121 -18t94 -57q35 -35 55.5 -78t20.5 -109q0 -111 -78 -202t-226 -154v-8q43 -39 88.5 -86t88.5 -97.5t80.5 -99.5 t66.5 -92q51 61 85 144t46 157q4 23 -12 23l-119 4q4 23 8 45t8 43h205q43 0 87 1t85 1q-4 -23 -7 -45.5t-7 -44.5l-113 -4q-29 -133 -87 -233.5t-124 -168.5q25 -35 49.5 -73.5t40.5 -61.5q23 -35 54 -35l145 -2q-6 -47 -18 -88q-66 -4 -136.5 -6t-123.5 -6 q-23 31 -53.5 81t-59.5 93q-43 -35 -88 -68t-100.5 -58.5t-123 -41.5t-155.5 -16q-94 0 -163.5 23.5t-115.5 59.5q-51 43 -80.5 102.5t-29.5 145.5zM193 330q0 -57 17 -103.5t58 -81.5q72 -66 195 -65q104 0 200.5 45t174.5 121q-41 59 -87 119.5t-95.5 117t-99.5 104.5 t-99 85q-49 -23 -97.5 -53.5t-85 -72.5t-59 -94t-22.5 -120v-2zM387 1026q0 -84 40 -136t105 -110q51 20 96.5 48t79 64t53 80t19.5 97q0 80 -45 131q-25 27 -57.5 38t-67.5 11q-45 0 -81.5 -10t-71.5 -43q-33 -31 -51.5 -74t-18.5 -94v-2z" />
<glyph unicode="'" horiz-adv-x="358" d="M188 983q6 55 11.5 115.5t10.5 117t9 106.5t8 87q29 10 80 15.5t80 5.5q-10 -39 -23.5 -98.5t-27.5 -123t-27.5 -122t-19.5 -93.5q-20 -6 -52 -8t-49 -2z" />
<glyph unicode="(" horiz-adv-x="684" d="M117 385v2q0 160 50 320.5t136 304t203 260.5t250 188q10 -16 19 -36.5t16 -39.5q-88 -55 -181.5 -154.5t-170.5 -231.5t-126 -292.5t-49 -334.5q0 -115 19.5 -205t51.5 -163t73 -129t84 -103q-12 -16 -27.5 -33t-34.5 -33q-57 51 -113.5 113.5t-100.5 144.5t-71.5 185.5 t-27.5 236.5z" />
<glyph unicode=")" horiz-adv-x="684" d="M-84 -217q86 57 180 153.5t171 226.5t127 289.5t50 346.5q0 111 -19 201t-51 163.5t-73 132t-86 101.5q14 16 27.5 32.5t29.5 32.5q57 -47 114.5 -111.5t104 -148.5t74 -188.5t27.5 -229.5v-2q0 -172 -52.5 -335.5t-140.5 -305t-203.5 -253t-240.5 -181.5q-18 33 -39 76z " />
<glyph unicode="*" horiz-adv-x="737" d="M119 983l246 133l-207 141q27 39 57 74l191 -155l32 256q51 4 94 0l-53 -256l223 149q14 -16 25.5 -38.5t22.5 -43.5l-248 -135l205 -143q-23 -39 -60 -76l-190 162l-35 -265q-23 -2 -47.5 -2t-46.5 4l55 261l-219 -150q-10 20 -22.5 41t-22.5 43z" />
<glyph unicode="+" d="M115 426q0 27 1 54.5t3 54.5h167t179 2v381q29 4 59.5 5t57.5 1q-2 -84 -2 -182.5t-2 -202.5h181t173 2q2 -27 0 -57.5t-4 -57.5h-350q0 -109 -1.5 -212t-1.5 -189q-25 -4 -55.5 -5.5t-54.5 -1.5v408h-350z" />
<glyph unicode="," horiz-adv-x="499" d="M4 -221q68 45 109 92t41 96q0 35 -24 53.5t-58 28.5q4 66 42 105t83 39q43 0 75.5 -39.5t32.5 -96.5v-2q0 -55 -21.5 -106t-57.5 -95t-81 -80t-92 -61q-25 29 -49 66z" />
<glyph unicode="-" horiz-adv-x="614" d="M59 438q4 27 8.5 54.5t8.5 54.5h219q70 2 130 2t120 2q-4 -31 -9.5 -59.5t-9.5 -53.5h-241h-2h-224z" />
<glyph unicode="." horiz-adv-x="499" d="M84 88q0 41 30 78t83 37h2q31 0 51 -11.5t31.5 -28t16.5 -35.5t5 -34q0 -47 -32.5 -79.5t-80.5 -32.5q-51 0 -78.5 29.5t-27.5 76.5z" />
<glyph unicode="/" horiz-adv-x="806" d="M-80 -57q123 201 238.5 390t230.5 380q47 80 99.5 168t106.5 178t106.5 177t99.5 165q27 -14 50 -29.5t44 -32.5q-45 -74 -98.5 -160.5t-108.5 -178t-108.5 -179.5t-98.5 -162q-53 -86 -114.5 -186t-125 -203.5t-125 -202t-110.5 -178.5q-23 12 -44 25.5t-42 28.5z" />
<glyph unicode="0" d="M86 422q0 111 18.5 225.5t54.5 220t86 195.5t115 151q78 72 150 99.5t160 27.5q162 0 252 -114q43 -57 63.5 -143.5t20.5 -182.5v-2q0 -123 -21.5 -243.5t-59.5 -228.5t-91.5 -195t-116.5 -142q-129 -111 -297 -110q-145 0 -234 98q-55 61 -77.5 153.5t-22.5 190.5z M244 401q0 -61 8 -120.5t37 -114.5q23 -45 65.5 -68.5t96.5 -23.5q96 0 174 78q49 51 91 138t70.5 191.5t45 217t16.5 216.5q0 78 -10.5 139.5t-30.5 96.5q-29 51 -70 73.5t-98 22.5h-2q-49 0 -94 -23.5t-82 -60.5q-47 -49 -87 -134t-69 -188.5t-45 -218t-16 -221.5z" />
<glyph unicode="1" d="M80 0q4 23 8 47t8 49l289 6q8 0 8 11q47 258 91 519t87 509q-84 -18 -166.5 -37t-187.5 -43q-4 23 -6 46l-4 46q92 27 187 60.5t173 63.5t129.5 49.5t55.5 19.5q6 0 4 -9q-51 -299 -106.5 -613t-110.5 -620l315 -6q-4 -25 -8 -49t-8 -49q-100 0 -199.5 1t-189.5 1 q-92 0 -182.5 -1t-186.5 -1z" />
<glyph unicode="2" d="M25 84q119 90 211 165t184 157q66 57 134.5 122.5t123.5 139t91 155.5t36 172q0 43 -11.5 84t-35.5 76q-29 41 -75 61.5t-114 20.5q-123 0 -198 -53q-13 -13 -15 -27l-53 -194q-27 4 -55.5 5t-52.5 5q12 72 25 147.5t28 145.5q63 29 153.5 52t184.5 23q111 0 179.5 -28.5 t115.5 -75.5q41 -43 62.5 -105.5t21.5 -127.5q0 -111 -51.5 -213.5t-124 -188.5t-149.5 -154.5t-126 -111.5q-76 -66 -140.5 -116t-129.5 -97v-10q53 0 134 1t170 2t176 3t153 4l6 -2q-4 -29 -11.5 -61.5t-17.5 -61.5h-85t-140 1t-158 1h-137h-285q-6 20 -13 41.5t-11 42.5z " />
<glyph unicode="3" d="M57 299q27 6 54.5 9t54.5 5l27 -184q4 -16 14 -23q35 -16 79 -21t89 -5q82 0 146.5 19.5t105.5 50.5q49 35 80.5 94t31.5 139q0 111 -80.5 180.5t-222.5 69.5h-121q4 25 6.5 51.5t6.5 50.5q106 -2 194 20.5t150.5 63.5t96.5 97.5t34 121.5q0 41 -10.5 74t-34.5 62 q-29 37 -81 52t-112 15q-41 0 -98 -12t-86 -35q-10 -8 -16 -20l-50 -187q-27 4 -55.5 6t-54.5 6q12 70 24.5 138.5t26.5 136.5q29 12 70 24.5t86 21.5t92 15t90 6q100 0 171 -21.5t118 -68.5q80 -80 80 -198q0 -66 -26 -121t-71 -99.5t-103 -75t-124 -48.5l-2 -13 q133 -25 200.5 -110.5t67.5 -190.5q0 -111 -55 -191.5t-129 -129.5q-76 -53 -168 -73.5t-211 -20.5q-74 0 -152.5 6t-126.5 22q-2 72 -3 145.5t-3 145.5z" />
<glyph unicode="4" d="M37 473q74 84 162 184.5t190 214.5q61 70 120.5 137.5t112 127t97.5 108.5t76 84h67.5t65.5 -4q-37 -211 -75 -430t-77 -436h124t95 2q-4 -25 -9 -52.5t-13 -52.5h-215q-10 -66 -22.5 -131t-24.5 -131l172 -6q-6 -45 -19 -88q-53 0 -119.5 1t-130.5 1q-66 0 -131 -1 t-121 -1q4 23 9.5 44t9.5 44l178 6q4 0 8 3t4 5q10 66 22.5 127.5t22.5 124.5q-20 0 -65 -1t-101.5 -1h-118h-114.5h-93h-50q-10 29 -19.5 59.5t-17.5 61.5zM180 475q-10 -14 4 -14q39 0 106.5 -1t137.5 -2t128 -1h77l125 680l-13 2q-68 -82 -134 -159t-156 -183 q-72 -84 -143.5 -168t-131.5 -154z" />
<glyph unicode="5" d="M66 293q27 4 54 7t54 7l27 -182q0 -14 12 -23q29 -12 70 -17t75 -5q82 0 154 23.5t117 62.5q49 41 87 112.5t38 170.5q0 125 -84 202.5t-250 77.5q-29 0 -61.5 -2t-61.5 -4t-52.5 -6t-35.5 -6l-12 12q16 63 35.5 138t40 153t42 155.5t39.5 149.5h328h166t172 2 q-4 -31 -11.5 -64.5t-17.5 -62.5q-125 0 -261 1t-284 1q-27 -92 -51 -180t-47 -174q41 4 77 6t64 2q111 0 191 -33t130 -86t73.5 -119.5t23.5 -132.5q0 -68 -17.5 -127t-45 -109t-63.5 -89t-72 -66q-72 -51 -166 -79.5t-224 -28.5q-68 0 -131 6t-110 18q-4 70 -6 142.5 t-6 146.5z" />
<glyph unicode="6" d="M100 406q0 125 22.5 237.5t58.5 209.5t83 174t96 130q92 98 199 141t225 43q111 0 183 -28v-133.5t-2 -135.5q-25 -4 -51.5 -8t-55.5 -6l-20 166q0 16 -9 23q-18 14 -45.5 17t-58.5 3q-78 0 -146.5 -38t-115.5 -97q-78 -100 -116.5 -210.5t-61.5 -225.5h10 q80 76 165 109.5t163 33.5q82 0 137 -27.5t90 -68.5q41 -47 61.5 -111.5t20.5 -126.5q0 -133 -55.5 -238.5t-131.5 -164.5q-59 -47 -126.5 -70.5t-155.5 -23.5t-154.5 31.5t-107.5 78.5q-53 59 -77 138t-24 178zM263 302q16 -89 42 -136q16 -31 62.5 -63.5t115.5 -32.5 q49 0 97.5 20.5t85.5 54.5q59 55 84.5 137.5t25.5 168.5q0 57 -12 99t-35 75q-49 73 -158 73h-2q-66 0 -149.5 -40t-149.5 -132q-23 -135 -7 -224z" />
<glyph unicode="7" d="M143 1004q20 80 40 159.5t42 157.5q23 0 72 -1t102 -1h621q10 -27 16 -58.5t11 -60.5q-94 -135 -175 -269t-150 -257t-123 -232.5t-95 -195.5q-25 -53 -43.5 -118t-28.5 -126q-35 -4 -84 -5t-80 -1q10 72 29.5 133t54.5 129q45 84 97.5 179t118 209t145.5 247t178 291 l-4 10q-219 2 -350 2t-175 -4q-25 -2 -40 -14.5t-21 -30.5l-55 -162q-25 4 -52.5 9t-50.5 10z" />
<glyph unicode="8" d="M45 293q0 63 24.5 123.5t69.5 113t107.5 96.5t138.5 76l2 9q-86 51 -127 115.5t-41 152.5q0 49 15.5 93t38 80t50 63.5t50.5 44.5q61 43 131.5 62t148.5 19q82 0 150.5 -26.5t103.5 -61.5q84 -80 84 -186q0 -68 -21.5 -123t-59.5 -99t-89 -78.5t-110 -59.5l-2 -11 q117 -49 177 -132t60 -177q0 -111 -55 -192.5t-137 -135.5q-68 -45 -149 -62t-167 -17q-104 0 -172.5 26.5t-115.5 63.5q-53 41 -79 95t-26 128zM199 311q0 -55 14 -93t43 -68q33 -35 86 -56.5t117 -21.5q125 0 215 61q47 33 84 89t37 136v2q0 104 -75 173t-235 124 q-57 -23 -108 -57.5t-91 -79.5t-63.5 -98t-23.5 -111zM365 995q0 -43 12 -75.5t39.5 -62.5t74 -56.5t115.5 -52.5q117 49 179.5 119.5t62.5 174.5q0 78 -41 134q-23 33 -72 53t-96 20t-94 -10t-88 -45q-39 -31 -65.5 -81t-26.5 -116v-2z" />
<glyph unicode="9" d="M102 268q27 4 53.5 7.5t53.5 7.5l31 -168q2 -14 14 -23q16 -10 46 -13t54 -3q86 0 158 40t117 93q39 47 67.5 102.5t48 112.5t33 113.5t23.5 109.5l-8 2q-76 -61 -155 -95t-167 -34q-76 0 -139.5 31t-95.5 70q-43 49 -62.5 106t-19.5 141q0 55 15 110.5t42 106t63.5 94.5 t79.5 76q59 43 130 64.5t139 21.5q88 0 155.5 -33.5t108.5 -82.5q43 -51 68.5 -132t25.5 -186q0 -135 -23.5 -255t-60.5 -218t-82 -171t-88 -116q-90 -90 -190.5 -128.5t-229.5 -38.5q-47 0 -93 3t-95 13q-4 68 -8.5 135.5t-8.5 136.5zM309 881q0 -68 12.5 -109t30.5 -67 q25 -37 71 -58.5t93 -21.5h2q76 0 153 40t140 109q23 125 8.5 225.5t-43.5 151.5q-23 41 -63.5 70.5t-106.5 29.5q-53 0 -98 -16t-80 -51q-59 -59 -89 -141t-30 -162z" />
<glyph unicode=":" horiz-adv-x="499" d="M84 86q0 41 30 78t83 37h2q31 0 50 -11.5t31.5 -28t16.5 -34.5t4 -35q0 -47 -31.5 -78.5t-79.5 -31.5q-51 0 -78.5 29.5t-27.5 74.5zM201 735q0 41 29.5 78t82.5 37h2q31 0 50.5 -11.5t32 -27.5t16.5 -34.5t4 -35.5q0 -47 -32 -78.5t-79 -31.5q-51 0 -78.5 29.5 t-27.5 74.5z" />
<glyph unicode=";" horiz-adv-x="499" d="M4 -221q68 45 109 92t41 98q0 35 -24 53.5t-58 28.5q4 66 42 104t83 38h2q41 0 73.5 -38t32.5 -98q0 -55 -21.5 -107t-57.5 -96t-81 -79t-92 -60q-14 16 -26.5 31.5t-22.5 32.5zM201 735q0 41 29.5 78t82.5 37h2q31 0 50.5 -11.5t32 -27.5t16.5 -34.5t4 -35.5 q0 -47 -32 -78.5t-79 -31.5q-51 0 -78.5 29.5t-27.5 74.5z" />
<glyph unicode="&#x3c;" d="M207 484.5v47.5q139 102 281.5 207t277.5 205q37 -41 61 -86q-129 -98 -244.5 -187.5t-234.5 -183.5q113 -96 235 -195t244 -202q-14 -23 -30.5 -44t-32.5 -40q-145 111 -279.5 216.5t-275.5 213.5q-2 23 -2 48.5z" />
<glyph unicode="=" d="M121 272q0 29 1 59.5t5 55.5h815q0 -27 -1 -54.5t-3 -53.5q-94 0 -196.5 -1.5t-209 -2.5t-211 -2t-200.5 -1zM123 580q0 29 1 56.5t3 51.5q188 0 404.5 2t410.5 4q2 -25 1 -55.5t-5 -58.5h-815z" />
<glyph unicode="&#x3e;" d="M229 98q127 98 247 194.5t235 188.5q-117 98 -234 191.5t-246 195.5q29 49 62 84q139 -104 279.5 -209.5t279.5 -210.5v-96q-139 -104 -276.5 -208.5t-282.5 -213.5q-16 18 -31.5 40t-32.5 44z" />
<glyph unicode="?" horiz-adv-x="880" d="M186 1022q14 66 29.5 136.5t32.5 135.5q57 23 140 40.5t169 17.5q88 0 149.5 -23.5t101.5 -61.5t58.5 -87.5t18.5 -100.5v-2q0 -133 -92.5 -248.5t-290.5 -232.5q-33 -18 -48.5 -38.5t-15.5 -55.5q-2 -37 2 -74t9 -74q-45 -18 -109 -30q-6 14 -14.5 38.5t-15.5 55.5 t-11 62.5t-4 60.5q0 12 1 23t3 22q86 55 162 107t132 108.5t88 119t32 138.5q0 86 -50.5 137t-144.5 51q-35 0 -76 -8t-69 -27q-6 -6 -11.5 -10t-9.5 -14l-57 -180q-29 4 -56.5 7t-52.5 7zM229 68q0 47 34 80.5t81 33.5h2q53 0 73.5 -31.5t20.5 -70.5q0 -41 -34.5 -69.5 t-77.5 -28.5q-47 0 -73 25.5t-26 60.5z" />
<glyph unicode="@" horiz-adv-x="1271" d="M66 317q0 121 50 249t143 232.5t226 171t297 66.5q188 0 302 -100t114 -281q0 -92 -35 -190t-116 -168q-53 -45 -124 -70.5t-165 -25.5q-10 0 -30.5 11t-31.5 26q6 37 23 102l-12 4q-25 -25 -57 -49.5t-63.5 -45t-64.5 -33.5t-61 -13q-10 0 -27.5 6t-36 17.5t-35 24.5 t-24.5 28q-4 10 -4 40q0 41 8 87.5t23 89.5q14 43 39.5 90t60.5 85t80 63.5t98 25.5q43 0 83 -15.5t69 -42.5h8l35 60q25 -4 47 -9t47 -12q-12 -43 -26.5 -100t-31 -118.5t-31 -122t-26.5 -109.5q-2 -6 3 -10.5t11 -4.5q41 4 81 20.5t77 51.5q47 43 78 117t31 178 q0 68 -20.5 126t-63.5 101t-109.5 69t-159.5 26q-127 0 -232 -57.5t-182 -149.5t-120 -207t-43 -227q0 -88 28.5 -151.5t75.5 -103.5t108.5 -59.5t127.5 -19.5q84 0 151.5 19.5t120.5 51.5q10 -16 15.5 -32.5t9.5 -32.5q-63 -35 -142 -57.5t-190 -22.5q-80 0 -153.5 24.5 t-130 73.5t-90 125t-33.5 178zM461 342q0 -23 13 -33t32 -10q23 0 57.5 19.5t70.5 48t65.5 60.5t39.5 56q6 18 18.5 62.5t20.5 75.5q-23 29 -56.5 43t-70.5 14q-53 0 -93 -47t-62 -113q-16 -43 -25.5 -87t-9.5 -87v-2z" />
<glyph unicode="A" horiz-adv-x="1198" d="M-117 0q4 25 8.5 48t10.5 46l108 8q8 0 17 11q76 135 162.5 293.5t175 322.5t174.5 322.5t161 294.5q14 4 49 4h58q27 -139 56.5 -299t60 -325t59.5 -324.5t55 -299.5l123 -6q-6 -51 -18 -94h-187q-70 0 -136 -1t-126 -1q4 25 8.5 48.5t8.5 47.5l161 6q8 0 9 13 q-12 68 -26.5 146.5t-27.5 144.5q0 8 -12 8l-493 -2q-39 -72 -81 -155t-77 -155l182 -6q-4 -23 -8 -47t-8 -47h-271q-45 0 -90 -1t-86 -1zM377 524q-2 -4 -2 -7q0 -5 6 -5h430q-25 143 -52 306t-52 306h-15q-74 -141 -157.5 -300.5t-157.5 -299.5z" />
<glyph unicode="B" horiz-adv-x="1146" d="M-6 0l8 46t8 48l142 4q14 0 16 15l188 1118l-153 4q4 25 8 48.5t10 45.5q33 0 80 1t96 2t97.5 1h87.5q123 0 201.5 -12t144.5 -47q68 -37 99.5 -100.5t31.5 -126.5q0 -59 -24.5 -112.5t-64.5 -96.5t-92.5 -75t-107.5 -50v-13q129 -25 197.5 -104.5t68.5 -177.5 q0 -90 -42 -167t-116.5 -133.5t-178 -88t-226.5 -31.5h-56t-73 1t-68.5 1h-46.5h-235zM324 168q-2 -9 -2 -17q0 -33 28 -45q34 -16 137 -16q74 0 142.5 19.5t122 58.5t86 96.5t32.5 132.5q0 35 -13 78t-49 81t-101.5 63.5t-169.5 25.5h-83t-46 -4zM426 741q10 -2 36.5 -3 t67.5 -1q68 0 133.5 19.5t118 55.5t85 89t32.5 121q0 41 -14.5 80t-46 69.5t-84 50t-127.5 19.5q-47 0 -75 -2t-42 -6z" />
<glyph unicode="C" horiz-adv-x="1171" d="M117 514q0 113 28.5 215t77.5 191.5t112.5 162t133.5 123.5q119 88 237.5 117t223.5 29q90 0 158.5 -14.5t97.5 -30.5q-10 -88 -20.5 -175.5t-20.5 -177.5q-25 -2 -52.5 -2t-54.5 -2l6 230q0 20 -8 26q-29 16 -73.5 24.5t-94.5 8.5q-88 0 -173 -29.5t-156 -93.5 q-66 -57 -113 -125.5t-80 -144.5t-48 -153t-15 -150q0 -92 17 -169t60 -136q43 -61 122 -102.5t180 -41.5q45 0 93 7.5t96 19.5t91 25.5t80 25.5q4 -23 6 -50.5t0 -51.5q-119 -41 -221 -65.5t-180 -24.5q-111 0 -201 33.5t-160 99.5q-80 76 -114.5 180t-34.5 221z" />
<glyph unicode="D" horiz-adv-x="1368" d="M2 -2q4 23 8 48t8 48l136 4q14 0 16 15l188 1118l-145 4q4 25 9 48.5t9 45.5q80 2 184.5 3t221.5 1q172 0 279.5 -32.5t177.5 -81.5q57 -41 96 -94.5t62.5 -112t33.5 -120t10 -116.5q0 -102 -24.5 -198.5t-68.5 -181.5t-104.5 -154.5t-131.5 -118.5q-104 -72 -221 -98.5 t-271 -26.5h-63.5t-68.5 1t-62.5 1h-47.5q-53 0 -113.5 -1t-117.5 -1zM329 133q3 -14 19.5 -23.5t50 -13.5t93.5 -4q141 0 240 31t171 94q41 35 82 87t73 120t51 153t19 185q0 92 -20.5 177t-91.5 163q-59 63 -149.5 100t-235.5 37q-33 0 -65 -2t-52 -6l-184 -1061 q-2 -13 -2 -23q0 -8 1 -14z" />
<glyph unicode="E" horiz-adv-x="1089" d="M0 -2q4 25 9 49t9 47l140 6q8 0 12 9l186 1122l-149 4q4 25 9 49.5t9 46.5h232h442h166q-10 -78 -19.5 -157.5t-19.5 -157.5q-20 -2 -44 -3t-46 -3v176q0 16 -9 25.5t-36 13.5q-41 4 -139.5 6t-223.5 2q-16 0 -18 -8l-84 -498q86 2 165 2t159 2q33 0 44 10.5t15 30.5 l27 98q25 2 48 1t46 -1q-8 -47 -16.5 -97t-18.5 -99q-8 -45 -15.5 -94.5t-17.5 -96.5q-23 -2 -47 -2h-49l10 103q4 27 -6 36t-43 9q-72 2 -149.5 2h-169.5l-82 -494q-2 -12 0 -20t12 -13.5t32.5 -6.5t63.5 -1q123 0 209 5t113 12q31 6 47 41l90 186q23 -4 45.5 -11t42.5 -16 q-27 -78 -53.5 -156.5t-55.5 -158.5h-104.5t-149 1t-181 1h-199.5q-63 0 -124 -1t-114 -1z" />
<glyph unicode="F" horiz-adv-x="1067" d="M4 0q4 23 8 47t8 47l136 6q12 0 12 13l190 1118l-145 4q4 23 9 48.5t9 47.5q51 0 109.5 -1t118.5 -1h88t138 1t135.5 1h80.5q57 0 95 1t71 1q-8 -82 -16.5 -164t-18.5 -163q-23 -2 -49.5 -3.5t-48.5 -3.5l-6 187q0 16 -7.5 25.5t-33.5 13.5q-39 4 -129 5t-201 1h-43 l-94 -533q84 2 163 2t152 2q33 0 46.5 10.5t17.5 30.5l26 103h50.5t48.5 -2q-10 -49 -19.5 -101.5t-19.5 -103.5q-8 -47 -17.5 -95t-17.5 -93q-23 -2 -49.5 -2h-48.5l10 106q4 27 -7.5 35t-39.5 10q-66 2 -144.5 2h-167.5l-86 -500l236 -6q-4 -23 -9 -48t-12 -48 q-61 0 -141 1t-151 1q-63 0 -123 -1t-113 -1z" />
<glyph unicode="G" horiz-adv-x="1310" d="M115 522q0 111 28.5 215.5t78.5 194.5t115.5 162.5t139.5 122.5q131 86 248 110.5t231 24.5q94 0 169 -17.5t120 -48.5q-10 -84 -21.5 -166t-21.5 -168q-27 -2 -51.5 -3t-52.5 -1l8 207q0 25 -14 37q-61 55 -203 55q-80 0 -173 -26.5t-181 -100.5q-49 -41 -94.5 -101.5 t-80 -135t-55 -162.5t-20.5 -182q0 -74 16 -154t66 -145q76 -96 167 -130t199 -34q88 0 135 16.5t52 32.5l57 348l-215 4q4 25 8 49.5t8 48.5h293h189q-4 -25 -8.5 -49t-8.5 -49l-104 -4q-6 0 -11 -8l-73 -414q-53 -35 -151.5 -53t-221.5 -18q-141 0 -245.5 43t-172.5 110 q-86 86 -117.5 184.5t-31.5 204.5z" />
<glyph unicode="H" horiz-adv-x="1462" d="M6 0q4 25 9.5 48t9.5 48l133 6q8 0 12 13l186 1116l-143 6q4 25 8 48.5t8 45.5h234h242q-4 -23 -8.5 -47t-8.5 -47l-170 -6q-6 0 -6 -8l-82 -471q4 -8 12 -9h654l82 488l-174 4q4 25 9 49.5t9 46.5h254q53 0 109.5 1t103.5 1q-4 -25 -8 -48t-8 -48l-134 -6q-8 0 -8 -8 l-194 -1121l151 -6q-6 -51 -18 -94h-226q-61 0 -125.5 -1t-119.5 -1q4 25 8 48.5t8 47.5l162 6q8 0 12 13l88 522q0 8 -8 8l-655 -4l-97 -539l185 -6q-4 -23 -8.5 -47t-8.5 -49q-55 0 -121.5 1t-130.5 1q-55 0 -115.5 -1t-111.5 -1z" />
<glyph unicode="I" horiz-adv-x="638" d="M-2 0q4 23 9 48t9 48l140 6q12 0 12 11l188 1118l-157 6q4 23 9 47.5t9 46.5h248h229q-4 -23 -9 -47t-11 -47l-156 -6q-4 0 -8 -8l-193 -1121l175 -6q-4 -23 -9.5 -48t-11.5 -48q-51 0 -113.5 1t-121.5 1t-122 -1t-116 -1z" />
<glyph unicode="J" horiz-adv-x="987" d="M12 6q4 78 7.5 158t7.5 158q27 4 52 5t50 3l10 -201q0 -16 13 -25q23 -12 56.5 -20t72.5 -8q86 0 142 29.5t91 70.5q43 51 66.5 134t40.5 188q29 180 54 365.5t52 369.5l-248 6q4 23 9.5 46.5t9.5 45.5q76 0 167 -1t169 -1q55 0 112.5 1t104.5 1q-4 -23 -8.5 -46 t-10.5 -46l-143 -6q-6 0 -6 -8q-27 -174 -52.5 -348.5t-54.5 -350.5q-23 -135 -53.5 -232t-95.5 -169q-61 -66 -152.5 -110t-232.5 -44q-53 0 -114.5 7.5t-115.5 27.5z" />
<glyph unicode="K" horiz-adv-x="1251" d="M10 0q4 23 8.5 48t8.5 48l131 6q6 0 10 9l188 1120l-143 6q4 23 9 47.5t9 46.5q53 0 112.5 -1t119.5 -1q53 0 109.5 1t103.5 1q-4 -23 -8 -48.5t-11 -47.5l-139 -4q-8 0 -10 -12l-86 -492q29 2 66.5 3t68.5 11q33 27 92.5 85.5t126 127t132 139t112.5 126.5q10 10 -2 10 l-129 6q4 23 9 47.5t9 46.5h262q39 0 78 1t72 1q-6 -51 -19 -94l-100 -6q-141 -147 -269 -274.5t-253 -243.5l-2 -11q59 -41 104 -112.5t80 -157.5q29 -68 56.5 -134.5t68.5 -143.5q27 -51 64 -52l143 -4q-4 -23 -8 -47t-10 -47q-39 -2 -81 -2t-81 -2q-23 -2 -60 -2h-61 q-14 20 -32.5 57t-40 84t-44 101.5t-45.5 109.5q-18 49 -41.5 98.5t-49.5 90.5t-53.5 66.5t-58.5 25.5h-61.5t-58.5 -2l-91 -527l168 -6q-4 -23 -8 -48t-10 -48q-49 0 -111.5 1t-122.5 1q-55 0 -113.5 -1t-107.5 -1z" />
<glyph unicode="L" horiz-adv-x="1050" d="M4 -2q4 23 9.5 47t9.5 47l137 6q8 4 8 11l197 1120l-148 4q4 25 9 49.5t12 46.5h233h248q-4 -23 -8 -48.5t-13 -47.5l-174 -4q-4 0 -8 -8l-192 -1082q-2 -14 -2 -22t8 -13.5t25.5 -6.5t47.5 -1q82 0 138.5 1t94.5 2t60.5 3t34.5 7q31 10 45 43l103 213q27 -4 51 -10.5 t47 -12.5q-27 -76 -60.5 -169t-66.5 -175h-100.5t-143.5 1t-174 1h-194q-61 0 -121 -1t-113 -1z" />
<glyph unicode="M" horiz-adv-x="1699" d="M-20 0q4 25 8 48.5t8 45.5l131 6q10 0 14 11q23 127 47.5 270t50 289.5t49 289t46.5 269.5l-141 4l18 98h342q6 -31 20.5 -97.5t34 -157.5t42 -199.5t47 -222t48 -225.5t46.5 -210h10q53 92 113.5 201.5t122 223.5t119.5 223.5t108.5 201.5t87.5 160.5t55 101.5h336 q-4 -25 -8 -49.5t-9 -46.5l-129 -6q-8 0 -8 -12q-23 -127 -45 -266.5t-45.5 -284t-47.5 -287.5t-46 -279l145 -6q-4 -23 -7 -46t-9 -48q-47 0 -107.5 1t-115.5 1q-57 0 -116.5 -1t-109.5 -1q4 23 8.5 47.5t8.5 46.5l151 6q10 0 15 11q20 119 42.5 250t44 265t44 267 t43.5 256h-17q-113 -211 -206 -382t-169.5 -308t-139 -245t-113.5 -189q-14 -2 -41 -2h-51q-20 80 -46 185t-57 243.5t-67.5 312.5t-79.5 391h-15q-45 -254 -93 -527.5t-93 -527.5l180 -6q-6 -43 -18 -94q-55 0 -121 1t-127 1q-51 0 -98 -1t-90 -1z" />
<glyph unicode="N" horiz-adv-x="1427" d="M-10 0q4 25 8 49t8 47l131 6q12 0 13 11l190 1116l-152 6q4 25 9.5 48.5t9.5 47.5q66 0 141.5 -1t147.5 -1q16 -35 51 -105.5t80 -163.5t98 -202.5t108.5 -223.5t108.5 -223.5t98 -201.5l13 2q41 258 81 511t80 509l-194 2q4 25 9 49.5t9 46.5h254q51 0 101.5 1t91.5 1 q-4 -25 -8 -48t-9 -48l-125 -4q-6 -2 -8 -12l-209 -1215q-16 -6 -47.5 -11t-60.5 -5q-37 63 -101.5 184t-142.5 272.5t-162 324.5t-161 343h-15q-43 -256 -85 -505t-85 -505l203 -4q-4 -25 -8 -49t-10 -47h-271q-49 0 -99 -1t-91 -1z" />
<glyph unicode="O" horiz-adv-x="1439" d="M117 522q0 113 26.5 217.5t71.5 192.5t103.5 158.5t121.5 119.5q98 76 203 109t227 33q117 0 202 -37t145 -96q45 -45 74.5 -96.5t47 -105.5t24.5 -107.5t7 -102.5v-2q0 -111 -24.5 -212t-66.5 -188.5t-97.5 -157t-114.5 -118.5q-98 -80 -205.5 -114.5t-236.5 -34.5 q-119 0 -206 35.5t-155 103.5q-78 76 -112.5 184.5t-34.5 218.5zM285 518q0 -78 18.5 -162t77.5 -157q49 -59 117.5 -89t163.5 -30q178 0 309 119q43 39 85 97t73.5 135t52 171t20.5 205q0 72 -16.5 157t-75.5 162q-41 53 -102.5 89t-169.5 36q-186 0 -324 -129 q-39 -37 -80 -93t-73.5 -132t-54 -170t-21.5 -207v-2z" />
<glyph unicode="P" horiz-adv-x="1103" d="M12 0q4 23 9.5 47t9.5 47l127 6q10 4 12 13l188 1118l-137 4q4 23 9.5 47.5t9.5 46.5q68 2 151.5 3t169.5 1q49 0 90 -1t77 -5t68.5 -12t69.5 -23q111 -43 158 -130t47 -181q0 -78 -25.5 -144.5t-65.5 -119.5t-92 -92t-104 -60q-74 -29 -145.5 -39t-149.5 -10 q-37 0 -62.5 1t-41.5 3l-72 -418l228 -6q-6 -51 -19 -94h-297q-53 0 -108.5 -1t-104.5 -1zM408 637q-2 -10 30.5 -14.5t73.5 -4.5q61 0 119.5 12.5t105.5 35.5q84 41 129 118.5t45 186.5q0 115 -71.5 190.5t-233.5 75.5q-82 0 -96 -6z" />
<glyph unicode="Q" horiz-adv-x="1437" d="M119 520v2q0 119 27.5 225.5t73.5 195.5t106.5 158.5t124.5 117.5q104 78 211.5 105.5t205.5 27.5q96 0 168 -21.5t131 -66.5q104 -74 153.5 -198t49.5 -261q0 -104 -23.5 -201.5t-62.5 -182.5t-90 -154.5t-109 -116.5q-66 -55 -126 -88t-132 -54l-2 -10 q78 -55 139.5 -93t133.5 -69q47 -20 84 -23t63 -3q33 0 79 8t81 18q6 -23 9 -48.5t5 -47.5q-35 -12 -73.5 -21.5t-76.5 -17.5t-71 -12t-55 -4q-23 0 -54.5 6t-87.5 37q-74 41 -150.5 99t-178.5 153h-39q-133 0 -227.5 44t-155.5 113q-63 72 -97 169t-34 214zM287 532 q0 -119 24.5 -196.5t71.5 -134.5q98 -121 281 -121q188 0 329 141q98 98 153.5 247.5t55.5 338.5q0 111 -25.5 188.5t-72.5 139.5q-45 59 -109.5 87.5t-158.5 28.5q-86 0 -164 -28.5t-150 -92.5q-49 -45 -92 -108.5t-74.5 -141t-50 -165.5t-18.5 -180v-3z" />
<glyph unicode="R" horiz-adv-x="1187" d="M8 0q4 25 8.5 48t8.5 46l131 6q12 4 12 11l188 1120l-141 4q4 25 8 48.5t8 45.5q70 2 154 3t164 1q63 0 109.5 -2t83 -6t67.5 -11t63 -18q109 -37 159 -118.5t50 -167.5q0 -70 -27.5 -132.5t-73.5 -112.5t-106.5 -87t-125.5 -57v-11q35 -14 58 -42.5t43.5 -73.5 t40 -104.5t46.5 -133.5q16 -49 29.5 -79t26 -46t23.5 -22.5t25 -6.5l109 -4q-4 -23 -7 -47t-9 -49h-134q-35 -2 -61.5 -2h-60.5q-20 33 -44 93.5t-46.5 128t-44 131t-40.5 102.5q-29 63 -66.5 89.5t-119.5 26.5q-59 0 -84.5 -1t-34.5 -3l-82 -465l168 -6q-4 -25 -7 -48 t-9 -48q-51 0 -114.5 1t-127.5 1q-59 0 -114.5 -1t-102.5 -1zM414 668q10 -4 38.5 -4h71.5q96 0 169 27.5t122 73.5t74.5 105.5t25.5 120.5q0 111 -71.5 179.5t-208.5 68.5q-53 0 -82 -2t-43 -6z" />
<glyph unicode="S" horiz-adv-x="999" d="M45 39q14 162 31 319q25 4 51.5 5.5t50.5 1.5l4 -209q0 -20 11 -27q29 -20 80 -32.5t112 -12.5q78 0 142.5 18.5t107.5 57.5q41 35 63.5 87t22.5 118q0 51 -17.5 89t-51.5 68.5t-82 58t-109 58.5q-123 63 -191.5 136t-68.5 188q0 98 51 174.5t117 124.5q66 45 149.5 67.5 t181.5 22.5q78 0 148 -15.5t104 -38.5q-6 -74 -13 -149.5t-17 -151.5q-23 -2 -48.5 -3t-50.5 -1l-4 185q0 18 -8 26q-20 23 -63 33t-97 10q-59 0 -111.5 -13t-93.5 -48q-35 -31 -65.5 -78t-30.5 -119q0 -49 14.5 -80.5t46 -58.5t80 -52.5t115.5 -60.5q139 -72 201.5 -147.5 t62.5 -183.5q0 -113 -44 -191t-111 -131q-70 -55 -162 -79.5t-205 -24.5q-80 0 -165 15t-138 44z" />
<glyph unicode="T" horiz-adv-x="1142" d="M111 993q16 86 34.5 170t34.5 168q37 0 84 -1t107 -1h342h73t105 1t102 1h64q41 1 71 1h28h25q24 0 46 1q-10 -84 -21.5 -168t-23.5 -170q-23 -4 -48.5 -5t-52.5 -3l4 199q0 16 -7 25.5t-36 11.5q-27 2 -49 3t-51 2t-71 1h-105l-195 -1127l197 -6q-4 -23 -8 -48t-10 -48 q-57 0 -127 1t-134 1q-63 0 -128.5 -1t-127.5 -1q4 23 8.5 47t8.5 47l162 6q10 0 10 9l188 1120h-108.5t-73.5 -1t-53.5 -2t-44.5 -3q-29 -4 -41.5 -13.5t-16.5 -25.5l-59 -197q-25 0 -52.5 2t-49.5 4z" />
<glyph unicode="U" horiz-adv-x="1325" d="M174 1235q4 25 9 49.5t10 46.5h215h251q-6 -49 -18 -96l-168 -6q-8 0 -12 -12l-115 -666q-12 -76 -16 -131q-2 -28 -2 -52t2 -44q4 -41 15 -71t28 -54q25 -37 78 -74t149 -37q49 0 88 8t68.5 22.5t52 31t43.5 34.5q43 39 88 129t68 224q12 74 26.5 160.5t29.5 178 t29.5 179.5t26.5 166q0 8 -8 8l-170 4q4 27 8 50.5t11 45.5h237q53 0 105.5 1t99.5 1q-4 -23 -7 -47t-7 -49l-134 -6l-118 -686q-29 -162 -85.5 -268.5t-119.5 -165.5q-49 -47 -136 -88t-216 -41q-211 0 -318 118q-78 86 -86 194q-2 29 -2 60q0 85 16 187l117 692z" />
<glyph unicode="V" horiz-adv-x="1216" d="M86 1235q4 25 8 49.5t8 46.5q47 0 98.5 -1t104.5 -1q76 0 146.5 1t134.5 1q-4 -25 -7.5 -48t-9.5 -48l-198 -6q4 -37 12 -98.5t17.5 -129t19.5 -133t16 -108.5q23 -135 45.5 -281.5t48.5 -300.5h15q78 143 150.5 280.5t133.5 258.5q27 53 63 122.5t69.5 139.5t64.5 132.5 t49 102.5q4 14 -6 15l-176 6q4 25 7 48.5t7 45.5h269q47 0 94 1t86 1q-4 -23 -7.5 -47t-9.5 -47l-110 -8q-72 -129 -150 -276.5t-151 -286.5q-43 -78 -90 -164t-97.5 -175t-100.5 -177.5t-97 -167.5q-18 -2 -52 -3.5t-61 -1.5q-18 84 -36.5 175.5t-36 183.5t-33 181 t-29.5 171q-23 129 -44.5 268.5t-41.5 264.5q0 6 -8 10z" />
<glyph unicode="W" horiz-adv-x="1726" d="M109 1235q4 23 9 47.5t9 46.5h201h280q-4 -23 -9 -47t-11 -49l-191 -6q0 -80 1 -203t5 -254q4 -135 6.5 -267t6.5 -290h16q55 111 124 250t137.5 283.5t134 281.5t118.5 246q6 0 21.5 1t32 1h32h23.5q12 -121 26.5 -254t28.5 -272.5t28.5 -277.5t28.5 -267h15 q55 137 110.5 270t102.5 256q20 51 45.5 116.5t50.5 133.5t46.5 129t35.5 104q4 14 -4 15l-183 4q4 23 10.5 47.5t10.5 46.5q61 0 133 1t137 1h174q-4 -23 -9 -47.5t-11 -46.5l-105 -6q-61 -150 -117.5 -283t-115.5 -272q-70 -160 -150.5 -343.5t-158.5 -350.5 q-16 -2 -48 -2.5t-67 -0.5q-35 229 -66.5 496.5t-56.5 521.5h-12q-133 -274 -265 -535t-253 -480q-16 -2 -49 -2.5t-64 -0.5q-16 182 -25.5 364.5t-17.5 363.5q-6 129 -11 258t-11 258q0 8 -11 8z" />
<glyph unicode="X" horiz-adv-x="1208" d="M-88 0q4 23 9 47t9 47l111 6q8 0 18 13q119 135 240 276t240 281l4 14q-61 135 -123 269t-127 270q-4 8 -10 8l-125 6q4 23 10 46.5t10 45.5h199q76 0 144.5 1t127.5 1q-6 -51 -18 -94l-172 -6q16 -41 42.5 -103.5t54.5 -128t53.5 -124t39.5 -91.5h15q25 31 71.5 90.5 t98 126t96.5 127t65 93.5q4 10 -4 10l-162 6q4 23 10.5 47.5t10.5 46.5h264h176q-4 -23 -9 -47t-11 -47l-107 -6q-104 -129 -222 -267.5t-232 -267.5l-2 -14q66 -139 136 -292.5t138 -289.5l135 -6q-4 -23 -8 -47t-10 -47q-41 0 -94.5 1t-104.5 1q-72 0 -140.5 -1t-129.5 -1 q6 23 10 47.5t8 46.5l154 6q12 4 8 15q-12 31 -40 92t-58.5 131t-60 135.5t-48.5 101.5h-14q-31 -37 -84 -103t-110.5 -139t-107.5 -137.5t-73 -95.5l168 -6l-8 -46t-11 -46h-270q-45 0 -92 -1t-88 -1z" />
<glyph unicode="Y" horiz-adv-x="1091" d="M78 1237q4 23 9 47.5t9 46.5h187q74 0 143.5 1t128.5 1q-4 -23 -8 -48t-10 -48l-177 -6q18 -55 43 -131t52.5 -157t54.5 -162t49 -146h14q37 51 92.5 133t114 168t109.5 164t78 121q4 10 -6 10l-164 4q4 23 9 48.5t11 47.5h258q41 0 86 1t80 1q-4 -23 -9 -47t-9 -47 l-99 -8q-59 -80 -123.5 -171t-132 -184.5t-134 -185.5t-128.5 -174l-71 -414l184 -6q-4 -23 -8 -48t-11 -48q-55 0 -121.5 1t-129.5 1q-59 0 -125 -1t-127 -1q4 23 10 48t10 48l154 6q14 0 14 13l68 401q-31 80 -64 170t-65.5 181t-65.5 181.5t-63 174.5q-4 8 -13 8z" />
<glyph unicode="Z" horiz-adv-x="1136" d="M-27 92q94 104 219 245.5t259.5 295t267.5 305t242 274.5l-3 11q-121 0 -210 1t-154.5 1t-108.5 -1t-67 -7q-12 -4 -27.5 -16.5t-21.5 -31.5l-80 -217q-27 4 -52.5 9.5t-50.5 9.5q25 90 49.5 181t51.5 179q23 0 77 -1t105 -1h653q8 -27 14.5 -57.5t10.5 -59.5 q-133 -154 -268.5 -307t-261 -296.5t-240.5 -269.5t-209 -224l2 -9q252 0 396.5 1.5t215.5 17.5q20 4 37 16.5t27 38.5l86 211q53 -10 102 -22q-29 -92 -60.5 -185.5t-64.5 -185.5h-71.5t-142.5 1t-177 1h-176h-344q-6 23 -13.5 46.5t-11.5 45.5z" />
<glyph unicode="[" horiz-adv-x="649" d="M92 -262l291 1700q88 0 185.5 1t191.5 1q-4 -23 -7 -44.5t-10 -43.5l-231 -6q-10 0 -12 -6.5t-2 -10.5l-260 -1497l247 -6q-4 -20 -7 -45t-9 -47q-92 2 -189.5 3t-187.5 1z" />
<glyph unicode="\" horiz-adv-x="1107" d="M76 1339q47 35 96 62q47 -78 98.5 -165t104.5 -177t104 -178t99 -168q113 -190 226.5 -380t233.5 -390q-20 -14 -41.5 -28t-44.5 -26q-49 80 -110.5 178.5t-124 202t-124 203.5t-112.5 186q-45 74 -97 162t-105.5 179.5t-105.5 178.5t-97 160z" />
<glyph unicode="]" horiz-adv-x="649" d="M-86 -266q4 23 7 46t7 46l250 6l266 1497q4 16 -10 17l-227 6q2 23 6 45t8 43q94 0 191.5 -1t185.5 -1l-309 -1700q-88 -2 -185.5 -2t-189.5 -2z" />
<glyph unicode="^" d="M143 737q100 150 194.5 292t178.5 265q23 2 47.5 2h44.5q86 -127 180.5 -268t196.5 -291q-20 -16 -42 -32.5t-42 -30.5q-92 129 -178 246.5t-162 222.5q-72 -102 -155.5 -220t-176.5 -247q-20 14 -42.5 29.5t-43.5 31.5z" />
<glyph unicode="_" horiz-adv-x="1024" d="M-92 -150h1024v-110h-1024v110z" />
<glyph unicode="`" horiz-adv-x="937" d="M311 1217q20 25 41.5 46.5t44.5 41.5q66 -61 142.5 -136t140.5 -137q-14 -16 -27.5 -31.5t-27.5 -29.5q-72 57 -155 122.5t-159 123.5z" />
<glyph unicode="a" horiz-adv-x="944" d="M35 164q0 57 17.5 141t45.5 166q23 63 62 135t90 132.5t114.5 100.5t137.5 40q59 0 109.5 -26t90.5 -73h13l45 107q29 -8 56.5 -15.5t55.5 -17.5q-20 -70 -45.5 -167t-52 -202.5t-51.5 -208t-41 -182.5q0 -10 10 -10q12 0 50 9t89 26q12 -45 19 -86q-66 -23 -134.5 -37 t-115.5 -14q-6 0 -26.5 15t-28.5 34q6 27 20.5 85t32.5 124l-14 6q-72 -80 -131.5 -132.5t-108.5 -83t-86 -43t-61 -12.5q-35 6 -78 35t-66 72q-18 37 -18 82zM186 186q0 -45 19.5 -67.5t46.5 -22.5q37 0 92 37t110.5 88t100.5 107.5t59 95.5q6 14 14.5 46t17.5 68.5 t18.5 72.5t13.5 59q-33 49 -78 74.5t-98 25.5h-2q-39 0 -74 -22.5t-65.5 -58.5t-55 -80t-43.5 -87q-35 -84 -55.5 -174t-20.5 -162z" />
<glyph unicode="b" horiz-adv-x="954" d="M29 2q12 51 36.5 150.5t54.5 222.5t62.5 260t63 264t56.5 234.5t42 173.5l-176 -13q-2 23 -4 43.5t-4 42.5q139 20 214 37t87 17q10 0 25.5 -15.5t25.5 -29.5q-18 -74 -47 -181.5t-57.5 -221.5t-56.5 -219t-46 -171l12 -6q111 145 209.5 219t200.5 74q37 -6 75 -37 t62 -76q8 -16 12.5 -39.5t4.5 -46.5q0 -41 -7.5 -94t-21.5 -112.5t-36.5 -122t-53.5 -117.5q-25 -47 -60.5 -93.5t-81 -83t-100.5 -59t-121 -22.5q-55 0 -110.5 26.5t-104.5 73.5l-51 -107q-27 6 -52.5 13.5t-51.5 15.5zM219 197q12 -25 31.5 -45.5t44 -37t51 -25.5t51.5 -9 h2q43 0 79 16.5t65.5 42t52 57t39.5 64.5q25 45 42 97.5t28.5 104.5t17.5 102t6 91t-17.5 70t-52.5 29q-47 0 -108.5 -42t-119.5 -101.5t-105 -125t-62 -110.5q-4 -12 -10 -36t-12 -49.5t-12.5 -51t-10.5 -41.5z" />
<glyph unicode="c" horiz-adv-x="737" d="M43 248v2q0 45 10 104.5t33 122t57.5 126t85.5 118.5q78 86 158 122t188 36q49 0 89.5 -12.5t56.5 -26.5q-2 -14 -12.5 -34t-22.5 -39t-25.5 -33.5t-23.5 -20.5q-6 2 -21.5 10t-37 17.5t-46 15.5t-45.5 6q-53 0 -93 -27.5t-64 -60.5q-27 -35 -50.5 -83t-42 -101.5 t-28.5 -108.5t-10 -107q0 -100 43 -142t112 -42q47 0 120 21.5t132 48.5q8 -18 14.5 -39t10.5 -41q-33 -16 -74 -34.5t-84 -33t-87 -23.5t-83 -9q-47 0 -93 16t-83 50t-60.5 84t-23.5 118z" />
<glyph unicode="d" horiz-adv-x="978" d="M37 164q0 66 18.5 150.5t46.5 162.5q25 63 64 135t91 130.5t116.5 97.5t142.5 39q63 0 115.5 -21.5t89.5 -50.5h12q27 111 56.5 244t54.5 249l-180 -8q-6 45 -7 86q129 16 208 36t91 20q10 0 26.5 -14.5t27.5 -30.5q-8 -39 -32 -139.5t-54.5 -231.5t-64.5 -277.5 t-64.5 -276.5t-54 -230.5t-31.5 -137.5q0 -12 10 -12q12 0 47 8t82 25q14 -47 16 -86q-139 -49 -239 -49q-6 0 -28 15t-28 34q4 27 18 82t34 133l-15 6q-117 -135 -224.5 -205t-174.5 -72q-37 4 -81 33t-71 74q-10 16 -14 37.5t-4 44.5zM186 193q0 -53 23.5 -75t52.5 -22h2 q43 0 103.5 40t119 95.5t104.5 113.5t56 97q6 18 13.5 51t15.5 69t15 71t11 57q-35 41 -84 60.5t-98 19.5q-45 0 -84 -22.5t-72.5 -58.5t-60.5 -83t-45 -96q-31 -78 -51.5 -165t-20.5 -152z" />
<glyph unicode="e" horiz-adv-x="827" d="M45 221v2q0 45 11.5 107.5t35 129t60 134.5t88.5 125q78 86 152.5 123t154.5 37q55 0 96 -19.5t68.5 -50.5t43 -70t15.5 -77q-8 -49 -38 -104.5t-75 -80.5q-86 -45 -191.5 -61.5t-240.5 -16.5q-10 -37 -18 -83t-8 -74q0 -72 36.5 -112t102.5 -40q61 0 149 31t175 78 q10 -20 17 -40t15 -40q-88 -53 -195.5 -96t-213.5 -43q-41 0 -83 15t-77 46t-57.5 76t-22.5 104zM246 487h21q71 -1 137 11q76 14 133 41q35 16 59.5 41.5t24.5 68.5q0 49 -28 90t-87 41h-2q-47 0 -86 -23.5t-72 -64.5q-25 -33 -51.5 -81t-48.5 -124z" />
<glyph unicode="f" horiz-adv-x="641" d="M23 -332q59 285 114.5 556.5t108.5 527.5h-166q4 23 9 47t9 47q41 4 81 5t79 3q12 0 12 14q14 70 28.5 125.5t34 99.5t46.5 80.5t63 71.5q88 84 174 110.5t162 26.5h2q33 0 68 -7t51 -17q0 -14 -9 -34.5t-21.5 -39t-26 -34t-25.5 -21.5q-12 4 -55 19.5t-88 15.5 q-33 0 -73 -17.5t-75 -56.5q-47 -55 -68.5 -136t-47.5 -200q74 2 148.5 2t141.5 2q-4 -25 -10 -52.5t-12 -49.5q-31 0 -67 -1t-74.5 -1h-75.5h-70q-53 -252 -109.5 -523.5t-117.5 -560.5q-35 -2 -70 -2h-71z" />
<glyph unicode="g" horiz-adv-x="872" d="M-121 -299q0 23 9.5 56.5t37.5 52.5q25 16 46.5 29.5t46 27.5t56 31.5t75.5 42.5v12q-47 16 -72 44t-25 79q0 8 4 15t19.5 20.5t48.5 35t90 56.5v10q-57 31 -94 91.5t-37 152.5v2q0 72 27.5 146.5t79 135t126 99.5t166.5 39q47 0 78 -5.5t49 -11.5q8 -4 31 -4h50h83t86 1 t62 1q1 -15 1 -31v-15q-1 -23 -3 -48q-49 -2 -101.5 -3t-101.5 -3l-2 -8q16 -20 28.5 -62.5t12.5 -91.5q0 -59 -18.5 -128t-55.5 -126q-18 -29 -49 -60.5t-77 -58t-106 -41.5q-39 -9 -85 -9q-25 0 -52 3q-49 -33 -80.5 -56.5t-31.5 -47.5q0 -35 70.5 -44.5t181.5 -19.5 q86 -8 141 -18t90 -33t61.5 -61.5t26.5 -83.5q0 -55 -30.5 -111.5t-94 -101.5t-164 -74t-237.5 -29q-162 0 -264.5 53.5t-102.5 149.5zM27 -291q0 -35 22.5 -58.5t58 -37.5t79.5 -21.5t87 -7.5q74 0 137.5 12.5t110.5 38t74 62.5t27 86v2q0 57 -42 76.5t-149 32.5l-94 12 t-82 10q-55 -35 -98 -60.5t-72 -48t-44 -46t-15 -52.5zM233 442q0 -92 39 -138t109 -46q45 0 86 25.5t71.5 69.5t49 106.5t18.5 136.5q0 47 -5 80t-21 59q-20 35 -51 47.5t-62 12.5q-53 0 -96 -28t-74 -76t-47.5 -111.5t-16.5 -135.5v-2z" />
<glyph unicode="h" horiz-adv-x="1013" d="M39 0q12 47 34.5 142.5t52.5 217t61.5 259t62.5 265.5t56.5 237t39.5 177l-180 -12q-6 43 -6 84q55 10 107 21.5t93 20.5t68 15.5t31 6.5q10 0 28.5 -14.5t28.5 -30.5q-12 -47 -37.5 -145.5t-54.5 -213.5t-57.5 -226.5t-47.5 -182.5l13 -5q70 80 132 130.5t114.5 79 t94.5 41t68 12.5q33 -4 74 -31t64 -76q8 -12 10 -28.5t2 -32.5q0 -35 -12.5 -97.5t-34 -144.5t-52 -177t-65.5 -196q-8 -12 8 -12q18 0 57 7t89 20q4 -23 6 -43.5t6 -42.5q-31 -10 -68 -18.5t-72.5 -13.5t-69.5 -8t-58 -3q-10 0 -30 20.5t-24 40.5q12 39 31 95.5t37 115.5 t34.5 116.5t26.5 98.5q6 18 12.5 45t12.5 55.5t10 55t4 47.5q0 29 -15 51t-48 22q-47 0 -109.5 -35.5t-121 -88t-103.5 -109.5t-57 -102q-8 -31 -22.5 -87.5t-30 -119t-29 -118.5t-21.5 -85h-143z" />
<glyph unicode="i" horiz-adv-x="514" d="M66 827q123 16 197.5 34t88.5 18q8 0 26.5 -18.5t27.5 -33.5q-18 -76 -44 -185.5t-51.5 -218t-48 -199.5t-31.5 -130q-8 -14 7 -14q23 0 62.5 9t92.5 24q4 -23 8.5 -43.5t6.5 -42.5q-63 -20 -130 -32.5t-126 -12.5q-8 0 -35 20.5t-37 42.5q18 76 38.5 163t42 179 t43.5 185.5t40 179.5l-174 -11q-2 23 -2 43.5t-2 42.5zM264 1171q0 35 31 70t84 35h2q49 0 72.5 -35t23.5 -65q0 -41 -32.5 -74t-73.5 -33q-47 0 -77 30.5t-30 71.5z" />
<glyph unicode="j" horiz-adv-x="501" d="M-207 -379q61 23 127 60.5t111 95.5q43 57 66.5 138t43.5 194q27 150 55.5 316.5t53.5 324.5l-197 -11q-2 23 -1 44.5t1 41.5q133 18 213 36t92 18q10 0 29 -16.5t27 -31.5q-14 -82 -30.5 -174t-33 -182t-33 -174t-28.5 -149q-12 -68 -25.5 -122.5t-30 -101.5t-38 -91 t-54.5 -91q-35 -51 -73.5 -92t-73.5 -70.5t-60.5 -45t-31.5 -15.5q-10 0 -28.5 11t-35 26.5t-30 32t-15.5 28.5zM256 1169q0 37 28 71t83 34h2q49 0 72.5 -34t23.5 -64q0 -41 -31 -75t-74 -34q-45 0 -74.5 30.5t-29.5 71.5z" />
<glyph unicode="k" horiz-adv-x="917" d="M39 0q10 47 33.5 143.5t52.5 218t60.5 259t62.5 266.5t55.5 237.5t40.5 173.5l-176 -12q-2 23 -3 44.5t-3 43.5q51 6 102 16.5t93 19.5t70 16.5t32 7.5q8 0 26.5 -14.5t28.5 -30.5q-16 -63 -43 -173t-59.5 -241t-67 -269t-65.5 -257l12 -7q178 213 321.5 326t214.5 113 q18 0 43 -36t29 -79q-115 -16 -213 -84t-197 -162v-10q31 -14 55.5 -40t44 -56.5t35 -65.5t25.5 -67q18 -59 33.5 -101.5t32.5 -73.5q8 -16 30 -16q25 2 57 9.5t72 17.5q4 -20 6.5 -42t4.5 -44q-59 -20 -136 -31.5t-137 -11.5q-25 41 -48 103.5t-46 127.5 q-33 100 -61.5 153.5t-61.5 53.5q-16 0 -35 -18q-27 -23 -52 -49.5t-54 -59.5q-8 -31 -18.5 -71t-19.5 -81t-18.5 -79.5t-17.5 -67.5h-141z" />
<glyph unicode="l" horiz-adv-x="509" d="M55 43q12 51 34 146.5t49.5 212t57 246.5t58.5 252t52.5 227t39.5 173l-194 -10q-4 23 -4.5 44.5t-2.5 43.5q137 16 218 36t94 20q10 0 27.5 -14.5t27.5 -30.5q-23 -94 -51.5 -212t-57 -244t-58.5 -252t-56.5 -238.5t-47 -202.5t-32.5 -144q-4 -12 8 -12q23 0 70 7 t106 24q4 -23 6 -45.5t4 -44.5q-74 -23 -151.5 -33t-130.5 -10q-6 0 -29.5 19t-36.5 42z" />
<glyph unicode="m" horiz-adv-x="1513" d="M72 0q16 70 38.5 163t45 195.5t46.5 205t44 192.5l-166 -19q-2 23 -3 44.5t-1 43.5q119 18 182.5 36t73.5 18q12 0 27.5 -13.5t27.5 -29.5q-10 -41 -20.5 -91.5t-26.5 -117.5l16 -4q117 143 214.5 199.5t158.5 56.5q35 -4 68.5 -26t56.5 -62q12 -23 12 -58q0 -14 -4 -46 t-12 -71l12 -4q57 74 111.5 124t102.5 81t89 44t74 13q31 -4 71 -30.5t62 -71.5q12 -29 12 -61q0 -31 -11 -93.5t-31.5 -143.5t-48 -178t-58.5 -200q-8 -12 6 -12q41 0 143 31q4 -23 7.5 -43.5t7.5 -42.5q-66 -23 -131.5 -35t-130.5 -12q-8 0 -26.5 19t-29.5 42 q12 39 28.5 92t32 108.5t30 105.5t22.5 87q6 20 13 52t14.5 66t12.5 65.5t5 54.5q0 27 -16.5 49t-53.5 22q-43 0 -100 -38.5t-110.5 -94t-95.5 -117t-54 -106.5q-23 -88 -47.5 -188.5t-46.5 -198.5q-35 -2 -70 -2h-70q10 39 25.5 103.5t33 133t33 133t23.5 101.5 q6 23 12.5 53.5t11.5 61t9 57.5t4 43q0 23 -14.5 43.5t-44.5 20.5q-45 0 -103.5 -38t-112 -93.5t-94.5 -117t-53 -106.5q-8 -29 -20.5 -83t-26.5 -112.5t-26.5 -112.5t-20.5 -85q-35 -2 -70 -2h-69z" />
<glyph unicode="n" horiz-adv-x="1044" d="M70 0q16 70 38.5 164t47 195.5t48.5 203t42 187.5l-162 -15q-2 23 -3 44.5t-1 41.5q51 8 96 18.5t80 19.5t57.5 14.5t28.5 5.5q10 0 27.5 -13.5t25.5 -27.5q-10 -43 -24.5 -101.5t-30.5 -122.5l14 -4q61 72 122 122t116 83t102 48.5t82 15.5q41 -6 76 -34t57 -71 q8 -16 10.5 -32.5t2.5 -30.5q0 -35 -12.5 -97.5t-34 -144.5t-52 -177t-65.5 -196q-4 -14 8 -14q18 0 58 9t89 24q8 -43 13 -86q-59 -23 -130 -35t-134 -12q-10 0 -30 18t-28 43q12 39 30.5 95.5t36 115.5t34 115.5t26.5 95.5q6 20 12.5 48t12.5 56.5t10 55t4 47.5 q0 29 -14.5 51t-48.5 22q-47 0 -111 -36.5t-123 -89t-104 -111.5t-58 -105q-8 -29 -21.5 -83t-28.5 -115.5t-28.5 -116.5t-21.5 -86q-35 -2 -71 -2h-70z" />
<glyph unicode="o" horiz-adv-x="899" d="M49 256q0 154 58.5 287t150.5 221q72 66 142.5 90.5t144.5 24.5q66 0 111.5 -20.5t78.5 -55.5t55.5 -91t22.5 -134v-3q0 -129 -51 -257t-156 -226q-57 -53 -125.5 -82.5t-165.5 -29.5q-78 0 -128 26.5t-78 61.5q-23 29 -41.5 79t-18.5 109zM205 274q0 -49 7 -83.5 t26 -63.5q16 -29 46.5 -43t67.5 -14h2q51 0 97.5 26.5t80.5 69.5q27 33 49.5 80t39 102t26.5 112.5t10 110.5q0 57 -8 91t-24 63q-16 27 -41 44t-72 17q-106 0 -190 -112q-18 -27 -40 -69t-38.5 -94t-27.5 -112.5t-11 -124.5z" />
<glyph unicode="p" horiz-adv-x="966" d="M-23 -481q27 141 59 299.5t63.5 320.5t62.5 319.5t57 295.5l-168 -11v88q68 8 114 17.5t75.5 15.5t45 10.5t19.5 4.5q10 0 28.5 -14.5t28.5 -28.5q-10 -49 -24.5 -116.5t-30.5 -137.5l19 -4q117 154 218 228.5t199 76.5q35 -4 77 -37t63 -78q16 -37 16 -76 q0 -104 -29.5 -229t-89.5 -234q-23 -43 -56.5 -87t-77.5 -79.5t-99 -59t-119 -23.5q-53 0 -104.5 18t-98.5 59q-10 -57 -24.5 -126.5t-28.5 -141.5t-28.5 -141.5t-26.5 -126.5q-35 -2 -69 -2h-71zM246 170q33 -41 81 -65.5t93 -24.5q43 0 80 16.5t67.5 42t53 58t38.5 67.5 q45 92 67 198.5t22 194.5v2q0 37 -17.5 66t-52.5 29q-47 0 -109.5 -43t-121 -102.5t-103.5 -126t-57 -111.5q-4 -12 -9.5 -39t-11.5 -56.5t-12 -58.5t-8 -47z" />
<glyph unicode="q" horiz-adv-x="946" d="M39 162q0 33 5 73.5t14.5 85t22.5 88.5t28 80q25 63 62.5 132t87.5 126.5t113.5 94.5t141.5 37q66 0 119 -24t96 -64h10l41 96q55 -12 111 -31q-23 -88 -50.5 -196.5t-55 -226.5t-55.5 -235.5t-52.5 -224t-44 -195.5t-31.5 -145q-2 -4 2 -8t8 -4q16 0 54.5 8.5t99.5 26.5 q4 -23 8 -43.5t6 -42.5q-76 -25 -142.5 -38t-119.5 -13q-10 0 -33.5 21.5t-33.5 43.5q35 147 77.5 321.5t85.5 344.5l-12 4q-49 -55 -101 -104.5t-104.5 -88t-100.5 -61.5t-91 -25q-33 4 -73 29t-69 66q-12 18 -18 42.5t-6 49.5zM190 182q0 -41 18.5 -63.5t47.5 -22.5 q39 0 100.5 40t122 97.5t107.5 117t59 100.5q4 14 12.5 43.5t16.5 63.5t15 66.5t11 53.5q-35 49 -85 70.5t-99 21.5q-45 0 -84 -22.5t-70.5 -59.5t-58.5 -86t-47 -100q-33 -82 -49.5 -167t-16.5 -151v-2z" />
<glyph unicode="r" horiz-adv-x="745" d="M78 0q14 63 35.5 156.5t44 198t46.5 210t42 191.5l-160 -17q-2 23 -3 44.5t-1 43.5q49 6 94 15.5t80 17.5t56.5 13.5t25.5 5.5q10 0 27.5 -16.5t25.5 -28.5q-10 -43 -24.5 -103.5t-34.5 -150.5l14 -7q90 137 178 221.5t144 84.5q33 0 58.5 -9.5t41.5 -19.5q0 -18 -7 -44 t-18.5 -48.5t-22.5 -40t-20 -21.5q-10 4 -36.5 11.5t-47.5 7.5q-31 0 -79 -38t-97 -96.5t-91 -129t-58 -134.5q-6 -25 -15.5 -65.5t-20.5 -86.5t-21.5 -90t-16.5 -75h-139z" />
<glyph unicode="s" horiz-adv-x="747" d="M23 16q4 61 6 125t6 125q23 2 45 3t45 1l14 -149q0 -16 13 -23q18 -12 51 -19t71 -7q35 0 73 7t63 23q31 20 47 49t16 76q0 63 -41 94t-108 62q-45 18 -83 38.5t-66 46.5t-44 60.5t-16 83.5q0 39 14 75t36.5 64.5t49.5 50t53 34.5q53 25 108.5 34t117.5 9q55 0 109 -12.5 t83 -30.5q-4 -57 -10 -117t-10 -113q-20 -2 -44 -3t-47 -1l-8 133q-4 18 -12 25q-16 10 -44 18t-65 8q-23 0 -54.5 -4t-59.5 -20q-29 -16 -52.5 -47t-23.5 -78q0 -29 9 -49.5t27.5 -35.5t45.5 -28.5t61 -27.5q100 -45 157.5 -96.5t57.5 -139.5q0 -74 -36.5 -133t-104.5 -98 q-45 -27 -103.5 -38t-148.5 -11q-61 0 -117.5 11t-80.5 25z" />
<glyph unicode="t" horiz-adv-x="706" d="M74 752q4 23 9 46t9 46q39 4 77 6t75 4q4 0 9 3t7 11q12 43 25.5 94.5t25.5 96.5q37 16 77 25.5t56 9.5q6 0 7 -9q-10 -45 -23.5 -108.5t-28.5 -122.5h156t154 2q-4 -29 -9.5 -55.5t-11.5 -48.5h-311q-6 -23 -13.5 -53.5t-14.5 -64.5l-14 -68t-13 -58q-8 -35 -18.5 -83 t-20 -96t-15.5 -90.5t-6 -62.5v-2q0 -41 25.5 -61.5t66.5 -20.5t104.5 11.5t129.5 29.5q4 -20 5 -42.5t3 -45.5q-84 -31 -170 -47t-143 -16q-20 0 -46 8t-49.5 24.5t-43 40t-27.5 54.5q-6 18 -6 36q0 23 9 75t21.5 110.5t23.5 110t15 71.5q6 27 13.5 59.5t14.5 65.5t14 62.5 t11 52.5h-159z" />
<glyph unicode="u" horiz-adv-x="997" d="M76 821q109 20 187.5 39t86.5 19q10 0 28.5 -18.5t22.5 -35.5q-16 -47 -33.5 -109.5t-35 -127t-32.5 -122.5t-24 -97q-10 -47 -20 -102.5t-10 -90.5q0 -39 18.5 -57.5t44.5 -18.5q39 0 95.5 38t111.5 90.5t98 108.5t54 95q6 25 18 78t26.5 116.5t28 126t21.5 103.5 q37 2 72.5 2h70.5q-6 -27 -17 -80t-26.5 -122.5t-33 -148.5t-34 -155t-30.5 -142.5t-23 -111.5q-2 -6 1 -9t8 -3q16 0 55 8t92 25q12 -45 18 -84q-70 -29 -137 -41t-114 -12q-8 0 -28 17t-30 38q4 25 14.5 78t26.5 121l-12 4q-115 -125 -214 -194t-165 -71q-31 4 -70 29 t-61 57q-25 33 -25 89q0 39 12.5 107.5t33 152.5t44 173t48.5 169l-154 -17q-2 23 -3 44.5t-5 41.5z" />
<glyph unicode="v" horiz-adv-x="917" d="M41 825q39 8 81 17.5t79 17.5t62.5 13.5t29.5 5.5q10 0 30.5 -16.5t32.5 -35.5q-6 -76 -13 -180t-13 -210.5t-11.5 -199t-7.5 -141.5q0 -20 19 -6q41 35 90 89t104 132q35 49 71 108.5t64.5 120t47 115t18.5 90.5q0 16 -18 17l-119 -12q-4 23 -5 44t-3 42q33 6 70.5 13 t70.5 13t57.5 10.5t30.5 4.5t16.5 -8.5t20.5 -19.5t18 -21.5t8 -14.5q0 -55 -25.5 -128t-62 -147.5t-79.5 -144t-80 -117.5q-55 -72 -105.5 -126t-91.5 -90.5t-67.5 -55t-32.5 -18.5q-23 0 -67 2t-85 8q0 72 2 178.5t7 217t9.5 209t8.5 153.5l-154 -15q-4 23 -5 43.5 t-3 42.5z" />
<glyph unicode="w" horiz-adv-x="1380" d="M27 821q94 23 166.5 40.5t85.5 17.5q10 0 30.5 -17.5t30.5 -34.5q-4 -92 -8 -196.5t-8.5 -203.5t-6.5 -184t-2 -137q0 -8 5.5 -10t11.5 4q29 37 71.5 98.5t88.5 139.5q31 51 61.5 112.5t58 125t50 125t36.5 116.5q27 10 64 13.5t65 3.5q0 -90 2 -197t4.5 -210t4.5 -190 t4 -139q0 -6 6 -7t10 3q35 41 77 96.5t97 151.5q27 45 54.5 103.5t49 114.5t36 107.5t14.5 82.5q0 4 -2 11t-13 5l-122 -10q-2 23 -3.5 44t-1.5 44q33 4 70 10t68.5 11t54.5 8.5t29 3.5t16 -8.5t20.5 -18.5t19.5 -20.5t9 -16.5q0 -49 -20.5 -115.5t-52 -138.5t-69.5 -143.5 t-75 -128.5q-39 -61 -81 -115.5t-78.5 -96.5t-62.5 -65.5t-32 -23.5q-23 0 -63.5 2t-77.5 8q-6 102 -7 252v62q0 124 3 263h-13q-55 -137 -117.5 -245.5t-115.5 -184t-92 -116.5t-45 -41q-25 0 -65 2t-83 8q-2 78 -2 184.5t2 215t4 204.5t5 154l-156 -19q-4 23 -6 43.5 t-4 42.5z" />
<glyph unicode="x" horiz-adv-x="892" d="M-41 -23q8 39 46 97.5t93.5 126t120 138.5t125.5 130l2 10q-23 61 -49.5 130t-54.5 145l-158 -35q-6 20 -11 40.5t-10 41.5q39 12 79 26.5t72 25.5t54.5 18.5t26.5 7.5q14 0 33.5 -9.5t33.5 -19.5q25 -78 47.5 -149.5t45.5 -143.5h10q43 51 94 108.5t100.5 104.5t89 78 t60.5 31q10 0 24.5 -10.5t29 -26t24.5 -33.5t14 -35q-76 -37 -175 -106.5t-228 -198.5l-2 -10q20 -57 37.5 -102.5t34 -86.5t31.5 -79.5t34 -81.5q6 -16 26 -17q16 0 55.5 6t80.5 19q4 -20 7 -42t7 -44q-51 -20 -132 -31.5t-147 -11.5q-27 63 -64.5 167.5t-78.5 221.5h-10 q-90 -100 -154.5 -204.5t-91.5 -190.5q-33 -4 -82 -4.5t-90 -0.5z" />
<glyph unicode="y" horiz-adv-x="880" d="M-104 -401q66 33 115.5 66.5t94.5 68.5q43 35 92.5 84t84.5 100q-10 63 -24.5 166.5t-29 220.5t-29 235t-24.5 210l-158 -29q-10 47 -12 86q102 29 171 50.5t79 21.5t28.5 -13.5t32.5 -29.5q8 -98 18.5 -203t21 -208t20.5 -198.5t18 -175.5h13q47 78 81.5 138.5 t65.5 125.5q23 47 47.5 107.5t46 120t34.5 114t13 91.5q0 18 -18 16l-121 -10q-4 23 -4 43t-2 43q78 12 144.5 25.5t82.5 13.5q4 0 14.5 -8.5t21.5 -19.5t19.5 -21.5t8.5 -16.5q0 -53 -20.5 -125t-50.5 -148.5t-65.5 -151.5t-66.5 -132q-39 -72 -87 -147.5t-102.5 -150.5 t-114 -148.5t-120.5 -137.5q-37 -39 -70.5 -70.5t-62.5 -55t-49.5 -36t-28.5 -12.5q-12 0 -30.5 10.5t-35 24.5t-28.5 31.5t-14 34.5z" />
<glyph unicode="z" horiz-adv-x="849" d="M-18 82q72 76 154.5 165t167.5 179t164 175t142 153l-2 12h-58t-86 -1t-91 -2t-72 -1q-29 0 -41 -8.5t-16 -22.5l-62 -164q-47 6 -94 17q18 70 35.5 139.5t36.5 136.5q23 0 72 -1t120 -1h410q8 -25 14 -52.5t10 -55.5q-43 -49 -121.5 -133.5t-170 -177.5t-180.5 -184 t-152 -153l2 -10h99t102.5 1t93.5 3t73 4q20 2 39 11.5t29 31.5l68 160q25 -4 49 -9t45 -11q-20 -72 -43 -142.5t-45 -142.5q-35 0 -94.5 1t-171.5 1h-220h-176q-6 18 -14 38.5t-16 43.5z" />
<glyph unicode="{" horiz-adv-x="684" d="M90 553q4 45 12 86q68 -2 110 13.5t64 41.5q12 14 19.5 30.5t11.5 44.5t5 70t1 105q0 72 6.5 126t18.5 97t33.5 79t52.5 69q59 61 146 97t216 38q-2 -39 -16 -86q-96 0 -157.5 -28.5t-96.5 -78.5q-20 -29 -33.5 -62.5t-20.5 -76.5t-10 -98t-3 -131q0 -238 -170 -289 l-3 -12q49 -10 73 -48t24 -85q0 -45 -19.5 -105.5t-43 -124t-43 -125t-19.5 -108.5q0 -86 57 -138.5t174 -54.5q-2 -20 -6 -40.5t-8 -41.5q-170 0 -260 76t-90 193q0 61 20.5 124.5t46 125t46 118t20.5 99.5q0 47 -32 75.5t-126 24.5z" />
<glyph unicode="|" d="M471 -512v2048h109v-2048h-109z" />
<glyph unicode="}" horiz-adv-x="684" d="M-68 -283q2 23 6.5 44.5t8.5 43.5q86 0 147.5 28t102.5 77q23 27 36 59.5t20 75.5t9 99.5t2 131.5q0 129 36 205t132 105v14q-96 35 -96 137q0 45 17.5 100.5t39 116t39 122t17.5 116.5q0 82 -53.5 128t-172.5 48q4 43 13 82q178 0 262 -73.5t84 -190.5q0 -59 -18.5 -125 t-42 -127.5t-42 -114.5t-18.5 -90q0 -41 30.5 -68.5t131.5 -27.5q-4 -23 -7.5 -44.5t-7.5 -41.5q-74 4 -111.5 -11.5t-60.5 -43.5q-29 -35 -33 -100.5t-4 -190.5q0 -129 -24.5 -205t-75.5 -133q-129 -145 -367 -146z" />
<glyph unicode="~" d="M109 367q6 55 24.5 104t48 85t69.5 57.5t87 21.5h2q59 0 106.5 -22.5t94.5 -51.5q35 -23 74.5 -46t86.5 -23q100 0 113 149q49 2 100 0q-2 -53 -18 -103.5t-44 -88t-66.5 -61t-88.5 -23.5q-59 0 -109 26.5t-85 48.5q-37 23 -76 46.5t-92 23.5t-86 -41t-45 -104h-47.5 t-48.5 2z" />
<glyph unicode="&#xa1;" horiz-adv-x="518" d="M4 -473q23 104 50.5 232t56 261.5t56.5 262.5t50 235q23 4 54.5 7t50.5 3q-6 -47 -14.5 -107.5t-16.5 -124t-16.5 -124.5t-14.5 -109q-8 -53 -16 -120.5t-15.5 -138t-14.5 -137t-13 -118.5q-16 -6 -46 -11t-59.5 -9t-54.5 -6t-33 -2h-2q-2 0 -2 2v4zM209 774 q0 43 31.5 74t72.5 31q51 0 78 -28t27 -67q0 -45 -32 -77.5t-79 -32.5h-2q-53 0 -74.5 32.5t-21.5 67.5z" />
<glyph unicode="&#xa2;" d="M160 526v2q0 84 32.5 175.5t92 169t142.5 136t185 78.5q10 53 18.5 104.5t16.5 98.5q25 6 51.5 9.5t51.5 5.5q-8 -47 -16.5 -99.5t-18.5 -107.5q10 2 21.5 2h23.5q53 0 103 -14.5t75 -32.5q-2 -16 -10 -34t-19.5 -34t-25 -29.5t-23.5 -19.5q-27 18 -73 35.5t-95 19.5 q-29 -164 -59.5 -336t-59.5 -333q59 4 123 24.5t119 48.5q8 -18 12 -39.5t9 -42.5q-61 -35 -132 -59.5t-147 -32.5q-10 -57 -19.5 -110.5t-17.5 -102.5q-23 -4 -48.5 -5t-47.5 -3q10 47 18.5 101.5t18.5 113.5q-55 0 -109.5 20.5t-96.5 58.5t-68.5 96t-26.5 136zM313 541 q0 -35 8.5 -71t29 -66.5t52 -53t78.5 -28.5q29 162 57.5 332.5t57.5 330.5q-61 -14 -113.5 -58t-89.5 -106.5t-58.5 -135t-21.5 -142.5v-2z" />
<glyph unicode="&#xa3;" d="M-55 0q4 23 9 48t9 48l133 6q10 0 20.5 4.5t14.5 8.5q59 53 100 141t58 197q4 29 7 61.5t7 67.5h-211q4 23 9 45t10 45q47 2 94 2t94 2q10 0 10 10q4 72 8.5 142.5t14.5 117.5q20 102 60 170t93 113q68 59 146 85.5t182 26.5q41 0 93 -8t87 -24q-4 -72 -10 -147t-14 -144 q-25 -4 -50.5 -6t-54.5 -4l-4 186q-2 12 -7 18.5t-9 8.5q-20 10 -46 14t-46 4q-43 0 -86 -14.5t-84 -48.5q-39 -35 -61.5 -87.5t-37.5 -130.5q-10 -55 -14 -129.5t-8 -150.5h175t189 2q-4 -23 -9 -49.5t-11 -48.5h-350q-2 -23 -5.5 -41.5t-7.5 -44.5q-20 -113 -62 -206 t-114 -171q-10 -10 -7 -15.5t20 -5.5q215 0 324.5 4t137.5 11q29 6 45 43l95 198q25 -4 49 -10t47 -12q-29 -78 -59.5 -165t-63.5 -169h-112.5t-160.5 1t-189.5 1h-201.5h-245z" />
<glyph unicode="&#xa4;" d="M104 213q35 39 73 81t77 85q-43 43 -67.5 108.5t-24.5 137.5q0 76 24.5 139t67.5 113q-41 47 -77 87t-71 78l40 40t40 36q63 -74 148 -172q47 39 102.5 54.5t110.5 15.5h2q55 0 104 -13.5t97 -44.5q39 45 73.5 85t65.5 77q20 -16 39.5 -35.5t38.5 -40.5 q-31 -35 -66 -73.5t-76 -83.5q37 -43 57.5 -100.5t20.5 -129.5q0 -76 -24.5 -145.5t-73.5 -118.5q41 -47 82 -92t76 -86q-16 -16 -36 -32.5t-40 -32.5q-35 43 -75 87t-81 91q-41 -29 -94 -44.5t-115 -15.5q-113 0 -192 49q-39 -45 -78 -87t-74 -83q-18 16 -37.5 33t-36.5 33 zM283 639q0 -78 21.5 -132t60.5 -89q29 -29 73.5 -42.5t89.5 -13.5q43 0 87 13.5t75 40.5q41 35 66.5 91t25.5 142q0 78 -24.5 131.5t-61.5 85.5q-31 29 -71.5 41.5t-87.5 12.5h-2q-41 0 -86.5 -14.5t-75.5 -45.5q-35 -35 -62.5 -89t-27.5 -132z" />
<glyph unicode="&#xa5;" d="M90 1206q4 23 9 46.5t10 45.5q39 0 84 -1t88 -1q74 0 141 1t127 1l-8 -46t-11 -46l-170 -8q45 -143 90.5 -285.5t90.5 -285.5h10q94 141 183 281.5t175 279.5q4 12 -6 12l-160 4q4 23 9.5 46.5t9.5 45.5h248q39 0 82 1t77 1q-4 -23 -8 -47t-10 -47l-98 -6 q-104 -152 -209 -302.5t-215 -301.5h141.5t134.5 2q-4 -20 -8 -44t-10 -40h-314l-20 -137h157t156 2q-4 -18 -8 -41t-10 -41h-309l-33 -195l190 -6q-4 -23 -8 -47t-10 -47q-55 0 -120.5 1t-129.5 1q-59 0 -124.5 -1t-125.5 -1q4 23 9.5 47.5t9.5 46.5l161 4q8 0 17 13 l28 184h-311q4 18 7 39.5t7 38.5q78 2 156 2h156l20 137h-315q6 37 16 78q70 2 141.5 2h141.5q-55 152 -108.5 300t-106.5 300q-8 8 -14 8z" />
<glyph unicode="&#xa6;" d="M471 358h109v-716h-109v716zM471 666v716h109v-716h-109z" />
<glyph unicode="&#xa7;" horiz-adv-x="923" d="M-55 -242q12 27 38.5 54.5t55.5 31.5q43 -45 108.5 -75.5t135.5 -30.5q41 0 86 15.5t80 45.5q41 35 60 86.5t19 110.5q0 43 -12 75.5t-35.5 62.5t-57.5 57.5t-79 62.5q-102 76 -157.5 146.5t-55.5 172.5q0 80 41 155t125 140q-12 20 -22.5 54t-10.5 82q0 76 40 149.5 t112 122.5q55 41 122.5 56.5t120.5 15.5q92 0 161 -28t110 -69q-10 -27 -36 -51t-54 -35q-35 29 -87.5 56.5t-123.5 27.5q-35 0 -72 -10t-76 -39q-35 -25 -59.5 -70t-24.5 -98q0 -41 10.5 -71.5t34 -59.5t62.5 -61.5t98 -77.5q94 -72 144.5 -143.5t50.5 -169.5v-3 q0 -82 -40 -158.5t-124 -137.5q14 -23 21.5 -56t7.5 -67q0 -82 -30 -158t-106 -135q-63 -53 -132.5 -72.5t-133.5 -19.5q-90 0 -178 30.5t-137 85.5zM254 612q0 -41 12.5 -73.5t35 -60t52 -54.5t64.5 -53q53 -41 97 -81t71 -71q43 35 64.5 86t21.5 107q0 41 -13.5 74.5 t-37 62.5t-53 55.5t-62.5 54.5q-51 41 -91 77t-69 67q-43 -35 -67.5 -86.5t-24.5 -102.5v-2z" />
<glyph unicode="&#xa8;" horiz-adv-x="937" d="M307 1094q0 31 23.5 63.5t70.5 32.5h2q43 0 60.5 -26.5t17.5 -53.5q0 -37 -25.5 -65.5t-62.5 -28.5q-39 0 -62.5 21.5t-23.5 56.5zM627 1094q0 33 22.5 64.5t69.5 31.5h2q39 0 59.5 -26.5t20.5 -53.5q0 -35 -23.5 -64.5t-68.5 -29.5q-41 0 -61.5 25.5t-20.5 52.5z" />
<glyph unicode="&#xa9;" horiz-adv-x="1525" d="M111 659q0 141 52 267.5t143 220.5t215 149.5t265 55.5h2q143 0 265.5 -52.5t211.5 -144.5t139 -216t50 -267q0 -141 -52 -267t-143.5 -220.5t-215 -149.5t-267.5 -55q-143 0 -265 52t-211 144t-139 216t-50 267zM211 664q0 -125 42 -236t117.5 -192.5t180 -130 t229.5 -48.5t230.5 49.5t181.5 132.5t119 193.5t43 235.5t-42 235.5t-118 192.5t-181.5 130t-230.5 48h-2q-125 0 -229.5 -49t-180 -132t-117.5 -194t-42 -235zM438 614q0 121 47 204t111 136q59 47 132 67.5t136 20.5q47 0 91 -7t63 -17q4 -53 6 -106.5t6 -112.5 q-18 -4 -39.5 -6.5t-44.5 -4.5l-18 132q0 10 -10 16q-31 20 -91 20q-43 0 -79.5 -12t-71.5 -45q-53 -49 -79 -108.5t-26 -149.5q0 -63 15.5 -108.5t54.5 -86.5q35 -37 81 -53t101 -16q51 0 104.5 14.5t94.5 34.5q12 -43 18 -80q-66 -31 -129 -45t-112 -14q-139 0 -236 71 q-55 41 -90 107.5t-35 148.5z" />
<glyph unicode="&#xaa;" horiz-adv-x="745" d="M117 793q0 47 13 112.5t36 124.5q18 47 47 99.5t67.5 95.5t86 70.5t100.5 27.5q41 0 82 -18.5t67 -47.5h7l32 70q23 -6 45.5 -13t44.5 -16q-14 -53 -32.5 -123.5t-37 -146.5t-34.5 -149.5t-29 -130.5q0 -8 9 -9q16 0 102 19q4 -16 6 -34.5t2 -35.5q-55 -18 -107.5 -25.5 t-80.5 -7.5q-10 0 -22.5 12.5t-20.5 24.5q4 23 12.5 61t22.5 83l-11 4q-37 -41 -75.5 -75t-75.5 -58.5t-69 -38t-56 -13.5q-12 0 -30.5 7.5t-37 18.5t-34 26.5t-21.5 31.5q-4 10 -6 25.5t-2 28.5zM244 819q0 -29 13 -45t30 -16q25 0 63.5 23.5t77.5 57t71.5 70.5t45.5 66 q2 12 9 37.5t15.5 55.5t14.5 57.5t8 43.5q-45 64 -121 64h-2q-59 0 -101 -54.5t-71 -121.5q-23 -55 -38 -122t-15 -116z" />
<glyph unicode="&#xab;" horiz-adv-x="862" d="M80 412q2 20 5 40.5t7 39.5q86 76 166 150.5t164 150.5q16 -14 31.5 -32t25.5 -34q-61 -70 -124 -139.5t-126 -141.5q37 -72 78 -143.5t84 -142.5q-16 -12 -35.5 -26.5t-38.5 -27.5q-59 78 -116.5 155t-120.5 151zM416 414q4 18 6 37.5t6 37.5q80 72 158 145t157 146 q16 -14 30.5 -30.5t27.5 -32.5q-123 -136 -240 -271q35 -70 75 -137t83 -137q-16 -14 -35.5 -27.5t-38.5 -27.5q-117 156 -229 297z" />
<glyph unicode="&#xac;" d="M109 457q0 27 1 54.5t3 53.5q195 2 403.5 3t401.5 3q8 0 8 -8q0 -55 -1 -119.5t-1 -130t-1 -128t-1 -111.5q-27 -2 -55.5 -3t-53.5 -1v387h-704z" />
<glyph unicode="&#xad;" horiz-adv-x="614" d="M59 438q4 27 8.5 54.5t8.5 54.5h219q70 0 130 1t120 3q-4 -31 -9.5 -59.5t-9.5 -53.5h-241h-2h-224z" />
<glyph unicode="&#xae;" horiz-adv-x="937" d="M152 965q0 80 29.5 150.5t79.5 122.5t119.5 83t149.5 31h5q80 0 148.5 -30t117.5 -81t77.5 -120.5t28.5 -151.5q0 -78 -29.5 -148.5t-81 -123t-121 -83t-149.5 -30.5q-82 0 -150.5 29.5t-118.5 80.5t-77.5 121t-27.5 150zM223 965q0 -66 22.5 -124.5t62.5 -101.5 t96.5 -68.5t123.5 -25.5q68 0 124.5 25.5t97.5 69.5t63.5 102.5t22.5 126.5t-22.5 126t-63.5 102t-97.5 68.5t-124.5 24.5h-2q-66 0 -122 -25.5t-96 -69.5t-62.5 -103.5t-22.5 -126.5zM350 1120v28.5t2 25.5q35 2 69 2h68q41 0 70 -2.5t51 -8.5q41 -10 62.5 -36.5 t21.5 -55.5q0 -45 -25.5 -72.5t-60.5 -42.5v-8q23 -10 38.5 -33.5t37.5 -70.5q10 -18 15.5 -22.5t15.5 -4.5h28v-53h-112q-16 23 -36 68t-36 71q-10 16 -23.5 18.5t-25.5 2.5h-27v-107h49v-53h-180v53h43v301h-45zM483 979h25q51 0 72.5 23.5t21.5 52.5q0 41 -27.5 53 t-62.5 12h-29v-141z" />
<glyph unicode="&#xaf;" horiz-adv-x="937" d="M332 1038q4 23 8 46.5t8 45.5q104 2 207 3.5t207 1.5q-4 -23 -8 -48.5t-11 -50.5q-92 0 -201.5 1t-209.5 1z" />
<glyph unicode="&#xb0;" horiz-adv-x="643" d="M160 1120q0 43 17.5 83t48 71t74.5 49t97 18q94 0 150.5 -55t56.5 -139q0 -49 -17.5 -90t-48 -72t-74.5 -48t-95 -17h-2q-39 0 -76 13t-66.5 37.5t-47 62.5t-17.5 87zM274 1120q0 -55 31 -85.5t74 -30.5h2q47 0 77.5 34.5t30.5 100.5q0 53 -25.5 85.5t-74.5 32.5 t-82 -35.5t-33 -101.5z" />
<glyph unicode="&#xb1;" d="M100 0v56.5t4 52.5q193 2 407 2t407 2q0 -25 -1.5 -54.5t-3.5 -56.5h-190h-208.5t-213 -1t-201.5 -1zM102 537v55t2 53h169.5t179.5 2v314q29 4 58.5 5t53.5 1q0 -66 -1 -147t-1 -171h181.5t175.5 2q0 -27 -1 -57.5t-4 -56.5h-352q-2 -84 -2 -162v-137q-25 -2 -54.5 -3.5 t-53.5 -1.5v304h-351z" />
<glyph unicode="&#xb2;" horiz-adv-x="659" d="M117 942q61 41 109 75t96 70q88 68 143 135.5t55 137.5q0 47 -24 78q-29 33 -84 32q-61 0 -95 -24q-4 -4 -6 -12l-32 -109q-20 4 -41 6t-41 4q10 45 17 90t17 86q29 14 84.5 25.5t108.5 11.5q127 0 180 -59q23 -23 32 -54.5t9 -68.5v-2q0 -43 -20.5 -86t-53 -82 t-73.5 -76t-82 -67q-37 -29 -67 -47.5t-48 -30.5l2 -8q27 0 68 2t83 4t80.5 4t63.5 2q2 0 2 -4q0 -23 -4 -46.5t-10 -45.5h-299h-156q-4 14 -7 28.5t-7 30.5z" />
<glyph unicode="&#xb3;" horiz-adv-x="659" d="M131 1057q23 4 43.5 6t40.5 4l18 -100q2 -2 3.5 -5.5t3.5 -5.5q18 -6 40.5 -10t45.5 -4q33 0 66.5 6t58.5 27q43 33 43 90q0 55 -42 85t-110 30h-78q2 18 3 37.5t5 37.5q51 -2 98.5 6.5t81 26t54 42t20.5 56.5q0 35 -24 60q-27 27 -90 27q-23 0 -49.5 -5.5t-43.5 -17.5 q-8 -4 -8 -10l-28 -92q-18 4 -39 5t-43 3q8 43 15 82t15 75q33 12 87.5 23.5t115.5 11.5q63 0 106.5 -14t67.5 -37q43 -43 43 -98q0 -57 -45 -102.5t-133 -61.5l-2 -12q76 -10 113 -52.5t37 -99.5q0 -41 -23 -82t-68 -71q-41 -29 -100 -40.5t-131 -11.5q-49 0 -90 3t-70 10 q-2 43 -4 88z" />
<glyph unicode="&#xb4;" horiz-adv-x="937" d="M412 1036q74 61 152.5 130t150.5 128q23 -23 41 -47t35 -49q-78 -53 -164 -112.5t-164 -112.5q-14 16 -26.5 31.5t-24.5 31.5z" />
<glyph unicode="&#xb5;" d="M-12 -502q12 80 29.5 177.5t36 196.5t35.5 195.5t34 172.5q8 47 23.5 118.5t34 154.5t39 171t42.5 170q35 2 78 3t68 1q-14 -51 -32 -120.5t-34 -139.5t-30.5 -132.5t-20.5 -96.5q-10 -51 -17.5 -99.5t-7.5 -76.5q0 -37 21.5 -60.5t50.5 -23.5q37 0 94 35.5t112.5 87 t98.5 107.5t53 97q6 20 18.5 73.5t27 116t27.5 126t24 104.5q37 2 73.5 2h69.5q-6 -27 -17.5 -80t-26.5 -122.5t-32.5 -148.5t-34 -155t-31 -141.5t-22.5 -108.5q-2 -8 2 -12t8 -4q16 0 54 8t92 27q12 -43 18 -86q-68 -29 -138.5 -41t-115.5 -12q-10 0 -29.5 18t-29.5 39 q4 25 14.5 75t24.5 111l-10 6q-45 -49 -95.5 -94t-98.5 -79.5t-91 -56t-74 -21.5q-25 0 -51.5 16t-36.5 39l-10 -4q-8 -53 -16.5 -119t-16.5 -134.5t-15 -135t-12 -119.5q-31 -12 -81 -18.5t-76 -6.5z" />
<glyph unicode="&#xb6;" horiz-adv-x="1056" d="M102 848q0 76 22.5 142.5t61.5 120.5t87.5 93t101.5 64q78 35 182.5 50t267.5 15q76 0 152 -2t141 -4q-4 -23 -7 -48.5t-7 -47.5h-113l-243 -1479q-25 -6 -51.5 -10t-55.5 -8l238 1499h-136l-247 -1497q-47 -12 -107 -19l121 750h-35q-27 0 -77 10t-91 29 q-86 41 -145.5 123t-59.5 219z" />
<glyph unicode="&#xb7;" horiz-adv-x="499" d="M143 532q0 41 30 78t83 37h2q31 0 51.5 -11t31.5 -27.5t16 -36t5 -33.5q0 -47 -32.5 -80t-79.5 -33q-51 0 -79 29.5t-28 76.5z" />
<glyph unicode="&#xb8;" horiz-adv-x="937" d="M127 -426l2 72q68 4 113 28.5t45 71.5q0 33 -25.5 53.5t-77.5 20.5q-4 10 -6 21.5t-6 21.5l176 162h107l-158 -148q49 -8 79 -41t30 -78q0 -80 -78 -130t-201 -54z" />
<glyph unicode="&#xb9;" horiz-adv-x="659" d="M152 883q4 18 7 37.5t7 35.5l158 5q4 0 4 4q20 117 39.5 229.5t38.5 216.5q-37 -6 -78 -14t-92 -21q-4 18 -6.5 38t-4.5 38q53 12 106.5 29.5t97.5 33t76 26.5t40 11q4 0 2 -6q-25 -141 -51.5 -292.5t-53.5 -292.5l164 -3q-4 -18 -7 -37.5t-7 -37.5h-225h-215z" />
<glyph unicode="&#xba;" horiz-adv-x="710" d="M131 877q0 104 40 199t108 161q49 49 104 67.5t115 18.5q53 0 88 -14.5t57 -36.5q29 -27 45.5 -69t16.5 -101v-2q0 -98 -36 -195.5t-108 -163.5q-41 -41 -96 -63.5t-121 -22.5q-61 0 -102 20.5t-64 47.5q-18 23 -32.5 59.5t-14.5 94.5zM258 881q0 -31 4 -60.5t21 -52.5 q10 -16 30 -27.5t45 -11.5h2q37 0 69 18.5t58 51.5q16 20 33 54t29 74t20.5 84t8.5 87q0 41 -5.5 65.5t-17.5 44.5q-10 16 -28.5 28.5t-47.5 12.5q-35 0 -67.5 -17.5t-63.5 -60.5q-31 -41 -60.5 -118.5t-29.5 -171.5z" />
<glyph unicode="&#xbb;" horiz-adv-x="862" d="M20 178q63 70 124 137.5t118 135.5q-35 68 -75 136t-81 136q16 14 36 28.5t36 24.5q59 -76 114.5 -148.5t115.5 -144.5q-2 -18 -5.5 -38.5t-7.5 -38.5q-80 -72 -157.5 -145t-157.5 -146q-16 14 -30.5 30.5t-29.5 32.5zM342 168q131 138 252 283q-39 72 -80 142.5 t-82 141.5q16 14 35.5 28.5t38.5 24.5q59 -78 117.5 -153.5t119.5 -151.5q-2 -18 -5 -39.5t-7 -40.5q-86 -76 -166 -150.5t-164 -148.5q-16 14 -30.5 31t-28.5 33z" />
<glyph unicode="&#xbc;" horiz-adv-x="1564" d="M186 670q4 18 7.5 37.5t7.5 35.5l157 5q4 0 4 4q23 117 42.5 229.5t35.5 216.5q-37 -6 -77.5 -14t-92.5 -21q-4 18 -6 38t-4 38q53 12 106.5 29.5t98.5 33t75.5 26.5t39.5 11q4 0 4 -6q-27 -143 -53.5 -293.5t-53.5 -291.5l164 -3q-4 -18 -7 -37.5t-7 -37.5h-226h-215z M324 14q100 139 213.5 298t218.5 309q121 174 250 356t262 373q20 -10 42 -23t38 -29q-135 -188 -266.5 -373.5t-243.5 -344.5q-47 -68 -103.5 -146t-115 -159.5t-116 -159.5t-104.5 -146q-18 10 -38.5 22.5t-36.5 22.5zM844 236q47 53 97 106t103 109q53 53 105.5 108 t95.5 100q29 0 59.5 -1t59.5 -3q-16 -100 -34.5 -207.5t-35.5 -211.5h123q-2 -16 -5 -36t-9 -38h-123q-4 -23 -8 -47.5t-8 -46.5l92 -2q-2 -16 -4 -33t-6 -33h-150h-158q4 16 5.5 33t5.5 33l110 2q4 0 4 4q4 23 7.5 44t7.5 44h-308q-8 18 -14 37.5t-12 38.5zM956 246 q-10 -10 2 -10h232l57 313h-12q-35 -41 -71 -78t-72 -76q-33 -35 -68 -73.5t-68 -75.5z" />
<glyph unicode="&#xbd;" horiz-adv-x="1564" d="M137 670q4 18 7.5 37.5t7.5 35.5l157 5q4 0 4 4q23 117 42.5 229.5t35.5 216.5q-37 -6 -78 -14t-92 -21q-4 18 -6 38t-4 38q53 12 106.5 29.5t98.5 33t75.5 26.5t38.5 11q4 0 5 -6q-27 -143 -53.5 -293.5t-53.5 -291.5l164 -3q-4 -18 -7 -37.5t-7 -37.5h-226h-215z M274 14q100 139 214 298t219 309q121 172 249.5 355t262.5 374q20 -10 41.5 -23t37.5 -29q-135 -188 -266 -373.5t-244 -344.5q-47 -68 -103 -146t-114.5 -159.5t-115 -159.5t-105.5 -146q-18 10 -38.5 22.5t-37.5 22.5zM905 59q61 41 109.5 75t95.5 69q88 70 143.5 136.5 t55.5 137.5q0 47 -25 78q-29 33 -84 33q-61 0 -94 -25q-4 -4 -6 -12l-33 -109q-20 4 -40.5 6.5t-41.5 4.5q10 45 17.5 90t17.5 86q29 14 84 25.5t108 11.5q127 0 181 -60q23 -23 32 -54.5t9 -68.5v-2q0 -43 -20.5 -86t-53.5 -82t-74 -75.5t-82 -67.5q-37 -29 -66.5 -47.5 t-47.5 -30.5l2 -8q27 0 67.5 2t82.5 4t81 4t63 2q2 0 3 -4q0 -23 -4.5 -46t-10.5 -46h-299h-155q-4 14 -7.5 28.5t-7.5 30.5z" />
<glyph unicode="&#xbe;" horiz-adv-x="1564" d="M195 846q23 4 43 6t41 4l18 -102q2 -2 3 -5.5t3 -5.5q18 -6 41 -10t45 -4q33 0 66.5 6t58.5 27q43 33 43 92q0 55 -42 85t-109 30h-78q2 18 3 37.5t5 37.5q51 -2 97 6.5t80 26t54.5 42t20.5 57.5t-25 57q-27 27 -90 27q-23 0 -48.5 -5.5t-43.5 -15.5q-2 -4 -4 -6t-4 -6 l-27 -90q-18 2 -38.5 3t-43.5 5q8 41 15.5 80t15.5 75q33 12 87 23.5t114 11.5q63 0 106 -14t68 -37q43 -43 43 -96q0 -57 -45 -102.5t-131 -61.5l-2 -12q76 -10 112.5 -52t36.5 -100q0 -41 -22.5 -83t-67.5 -72q-41 -29 -100.5 -40.5t-131.5 -11.5q-49 0 -90 3t-69 12 q-2 41 -4 87t-4 91zM348 14q100 139 214 298t218 309q121 174 250 356t262 373q43 -21 78 -52q-133 -188 -265 -373.5t-243 -344.5q-47 -68 -104.5 -146t-115.5 -159.5t-114.5 -159.5t-103.5 -146q-18 10 -38.5 22.5t-37.5 22.5zM856 236q47 53 97.5 106t103.5 109 q53 53 105 108t95 100q29 0 60 -1t59 -3q-16 -100 -34.5 -207.5t-34.5 -211.5h123q-2 -16 -5.5 -36t-9.5 -38h-123q-4 -23 -8 -47.5t-8 -46.5l92 -2q-2 -16 -4 -33t-6 -33h-150h-157q4 16 5 33t5 33l110 2q4 0 5 4q4 23 7 44t7 44h-307q-8 18 -14.5 37.5t-12.5 38.5z M969 246q-10 -10 2 -10h231l58 313h-13q-35 -41 -70.5 -78t-72.5 -76q-33 -35 -68 -73.5t-67 -75.5z" />
<glyph unicode="&#xbf;" horiz-adv-x="880" d="M16 -207q0 135 91.5 248t289.5 229q37 23 51.5 41.5t14.5 46.5q2 37 -1 75t-9 75q45 20 108 31q6 -14 14.5 -39t15.5 -54.5t11 -61.5t4 -58q0 -14 -1 -25.5t-3 -24.5q-92 -55 -168 -108t-131 -108.5t-85 -116t-30 -129.5q0 -86 49.5 -138.5t145.5 -52.5q35 0 76 8.5 t71 26.5q6 6 11.5 10t9.5 15l57 180q29 -2 56.5 -6t54.5 -9q-14 -66 -30.5 -136t-33.5 -136q-57 -23 -140 -40t-169 -17h-2q-90 0 -152.5 24.5t-101.5 63.5t-56.5 88t-17.5 98zM461 778q0 43 34.5 72t77.5 29q47 0 73 -26t26 -60q0 -47 -34 -81t-81 -34h-2q-51 0 -72.5 29.5 t-21.5 70.5z" />
<glyph unicode="&#xc0;" horiz-adv-x="1198" d="M-117 0q4 25 8.5 48t10.5 46l108 8q8 0 17 11q76 135 162.5 293.5t175 322.5t174.5 322.5t161 294.5q14 4 49 4h58q27 -139 56.5 -299t60 -325t59.5 -324.5t55 -299.5l123 -6q-6 -51 -18 -94h-187q-70 0 -136 -1t-126 -1q4 25 8.5 48.5t8.5 47.5l161 6q8 0 9 13 q-12 68 -26.5 146.5t-27.5 144.5q0 8 -12 8l-493 -2q-39 -72 -81 -155t-77 -155l182 -6q-4 -23 -8 -47t-8 -47h-271q-45 0 -90 -1t-86 -1zM377 524q-6 -12 4 -12h430q-25 143 -52 306t-52 306h-15q-74 -141 -157.5 -300.5t-157.5 -299.5zM485 1618q16 29 34 57.5t36 53.5 q78 -53 169 -115t167 -111q-14 -32 -43 -67q-80 41 -178.5 91t-184.5 91z" />
<glyph unicode="&#xc1;" horiz-adv-x="1198" d="M-117 0q4 25 8.5 48t10.5 46l108 8q8 0 17 11q76 135 162.5 293.5t175 322.5t174.5 322.5t161 294.5q14 4 49 4h58q27 -139 56.5 -299t60 -325t59.5 -324.5t55 -299.5l123 -6q-6 -51 -18 -94h-187q-70 0 -136 -1t-126 -1q4 25 8.5 48.5t8.5 47.5l161 6q8 0 9 13 q-12 68 -26.5 146.5t-27.5 144.5q0 8 -12 8l-493 -2q-39 -72 -81 -155t-77 -155l182 -6q-4 -23 -8 -47t-8 -47h-271q-45 0 -90 -1t-86 -1zM377 524q-6 -12 4 -12h430q-25 143 -52 306t-52 306h-15q-74 -141 -157.5 -300.5t-157.5 -299.5zM600 1505q78 49 170 109.5 t172 111.5q16 -23 32.5 -53.5t31.5 -58.5q-41 -20 -88.5 -43t-95.5 -46.5t-95 -47t-86 -41.5q-10 16 -21.5 34.5t-19.5 34.5z" />
<glyph unicode="&#xc2;" horiz-adv-x="1198" d="M-117 0q4 25 8.5 48t10.5 46l108 8q8 0 17 11q76 135 162.5 293.5t175 322.5t174.5 322.5t161 294.5q14 4 49 4h58q27 -139 56.5 -299t60 -325t59.5 -324.5t55 -299.5l123 -6q-6 -51 -18 -94h-187q-70 0 -136 -1t-126 -1q4 25 8.5 48.5t8.5 47.5l161 6q8 0 9 13 q-12 68 -26.5 146.5t-27.5 144.5q0 8 -12 8l-493 -2q-39 -72 -81 -155t-77 -155l182 -6q-4 -23 -8 -47t-8 -47h-271q-45 0 -90 -1t-86 -1zM377 524q-6 -12 4 -12h430q-25 143 -52 306t-52 306h-15q-74 -141 -157.5 -300.5t-157.5 -299.5zM481 1509q68 49 136.5 100.5 t134.5 98.5q18 2 38.5 2h36.5q47 -47 99.5 -101.5t97.5 -99.5q-27 -33 -59 -59q-41 35 -90.5 72.5t-96.5 72.5q-61 -37 -126.5 -75.5t-121.5 -73.5q-12 14 -25 30.5t-24 32.5z" />
<glyph unicode="&#xc3;" horiz-adv-x="1198" d="M-117 0q4 25 8.5 48t10.5 46l108 8q8 0 17 11q76 135 162.5 293.5t175 322.5t174.5 322.5t161 294.5q14 4 49 4h58q27 -139 56.5 -299t60 -325t59.5 -324.5t55 -299.5l123 -6q-6 -51 -18 -94h-187q-70 0 -136 -1t-126 -1q4 25 8.5 48.5t8.5 47.5l161 6q8 0 9 13 q-12 68 -26.5 146.5t-27.5 144.5q0 8 -12 8l-493 -2q-39 -72 -81 -155t-77 -155l182 -6q-4 -23 -8 -47t-8 -47h-271q-45 0 -90 -1t-86 -1zM377 524q-6 -12 4 -12h430q-25 143 -52 306t-52 306h-15q-74 -141 -157.5 -300.5t-157.5 -299.5zM473 1460q4 37 21.5 71t43 61.5 t56 44t63.5 16.5h2q41 0 74 -17.5t64 -38.5q25 -16 48 -28.5t50 -12.5q31 0 53.5 27t28.5 64q41 4 78 0q-4 -33 -18.5 -68t-38 -63.5t-56.5 -47t-72 -18.5q-35 0 -62.5 17.5t-55.5 33.5q-29 16 -54.5 30.5t-60.5 14.5q-27 0 -52.5 -24.5t-35.5 -61.5q-37 -4 -76 0z" />
<glyph unicode="&#xc4;" horiz-adv-x="1198" d="M-117 0q4 25 8.5 48t10.5 46l108 8q8 0 17 11q76 135 162.5 293.5t175 322.5t174.5 322.5t161 294.5q14 4 49 4h58q27 -139 56.5 -299t60 -325t59.5 -324.5t55 -299.5l123 -6q-6 -51 -18 -94h-187q-70 0 -136 -1t-126 -1q4 25 8.5 48.5t8.5 47.5l161 6q8 0 9 13 q-12 68 -26.5 146.5t-27.5 144.5q0 8 -12 8l-493 -2q-39 -72 -81 -155t-77 -155l182 -6q-4 -23 -8 -47t-8 -47h-271q-45 0 -90 -1t-86 -1zM377 524q-6 -12 4 -12h430q-25 143 -52 306t-52 306h-15q-74 -141 -157.5 -300.5t-157.5 -299.5zM512 1548q0 37 23.5 68t70.5 31h2 q43 0 60.5 -27t17.5 -55q0 -37 -24.5 -64.5t-65.5 -27.5q-35 0 -59.5 20t-24.5 55zM852 1550q0 35 23.5 66t70.5 31h2q41 0 59.5 -26t18.5 -54q0 -39 -23.5 -66.5t-62.5 -27.5q-43 0 -65.5 24.5t-22.5 52.5z" />
<glyph unicode="&#xc5;" horiz-adv-x="1198" d="M-117 0q4 25 8.5 48t10.5 46l108 8q8 0 17 11q76 135 162.5 293.5t175 322.5t174.5 322.5t161 294.5q14 4 49 4h58q27 -139 56.5 -299t60 -325t59.5 -324.5t55 -299.5l123 -6q-6 -51 -18 -94h-187q-70 0 -136 -1t-126 -1q4 25 8.5 48.5t8.5 47.5l161 6q8 0 9 13 q-12 68 -26.5 146.5t-27.5 144.5q0 8 -12 8l-493 -2q-39 -72 -81 -155t-77 -155l182 -6q-4 -23 -8 -47t-8 -47h-271q-45 0 -90 -1t-86 -1zM377 524q-6 -12 4 -12h430q-25 143 -52 306t-52 306h-15q-74 -141 -157.5 -300.5t-157.5 -299.5zM567 1589q0 86 63.5 136.5 t153.5 50.5q84 0 133.5 -44t49.5 -110q0 -35 -14.5 -68.5t-41 -60.5t-67.5 -43t-92 -16h-2q-78 0 -130.5 41t-52.5 114zM668 1593q0 -39 26.5 -62.5t63.5 -23.5h2q37 0 71.5 26t34.5 83q0 35 -23.5 61.5t-64.5 26.5q-47 0 -78.5 -28.5t-31.5 -82.5z" />
<glyph unicode="&#xc6;" horiz-adv-x="1705" d="M-119 0q4 23 8.5 46.5t10.5 47.5l108 8q10 0 19 11q100 135 211.5 286.5t227.5 309t229.5 314.5t219.5 298q8 10 15 10h196h392h165q-10 -78 -19 -157.5t-19 -157.5q-20 -2 -44 -3t-47 -1v172q0 16 -9 25.5t-36 13.5q-39 4 -134 7t-228 3q-14 0 -17 -10l-98 -574 q86 2 166 2t160 2q31 0 43 10.5t16 30.5l27 99h94q-10 -47 -18.5 -97.5t-18.5 -99.5q-8 -43 -15 -88t-16 -92q-23 -2 -46 -2h-48l8 94q2 25 -7 34t-42 9q-72 2 -149.5 2h-167.5l-74 -416q-2 -12 -1 -20t12.5 -13.5t33 -6.5t62.5 -1q123 0 210 5t113 12q16 4 26.5 14t20.5 27 l88 178q23 -4 45.5 -11.5t42.5 -15.5q-25 -76 -51 -152.5t-55 -154.5h-104.5t-149.5 1t-181.5 1h-199.5q-63 0 -122.5 -1t-115.5 -1q4 25 9.5 48.5t9.5 45.5l143 8q8 0 11 9l73 430q0 8 -8 8l-375 -2q-37 -51 -78 -108.5t-80.5 -116t-79.5 -114.5t-73 -106l176 -6 q-4 -23 -7 -47t-9 -47h-273h-176zM553 647q0 -4 4 -4h324l96 582h-12q-106 -147 -210 -292t-198 -278q-4 -4 -4 -8z" />
<glyph unicode="&#xc7;" horiz-adv-x="1171" d="M117 514q0 113 28.5 215t77.5 191.5t112.5 162t133.5 123.5q119 88 236.5 117t222.5 29q90 0 158.5 -14.5t99.5 -30.5q-10 -88 -21.5 -175.5t-21.5 -177.5q-25 -2 -51.5 -2t-53.5 -2l6 230q0 20 -10 26q-29 16 -72.5 24.5t-95.5 8.5q-86 0 -171 -29.5t-156 -93.5 q-66 -57 -114 -125.5t-80 -144.5t-47 -153t-15 -150q0 -92 17 -169t60 -136q43 -61 121 -102.5t178 -41.5q45 0 94.5 7.5t97.5 19.5t91 25.5t80 25.5q4 -23 5 -50.5t1 -51.5q-74 -27 -141.5 -46.5t-126.5 -29.5l-164 -139q121 -25 121 -129q0 -37 -21.5 -71t-60.5 -59.5 t-94.5 -41t-124.5 -15.5l2 74q84 4 126 33.5t42 64.5t-23 56q-20 23 -88 28q-4 12 -5 25.5t-5 25.5l158 134h-13q-98 0 -187 34.5t-157 98.5q-80 76 -114.5 180t-34.5 221z" />
<glyph unicode="&#xc8;" horiz-adv-x="1089" d="M0 -2q4 25 9 49t9 47l140 6q8 0 12 9l186 1122l-149 4q4 25 9 49.5t9 46.5h232h442h166q-10 -78 -19.5 -157.5t-19.5 -157.5q-20 -2 -44 -3t-46 -3v176q0 16 -9 25.5t-36 13.5q-41 4 -139.5 6t-223.5 2q-16 0 -18 -8l-84 -498q86 2 165 2t159 2q33 0 44 10.5t15 30.5 l27 98q25 2 48 1t46 -1q-8 -47 -16.5 -97t-18.5 -99q-8 -45 -15.5 -94.5t-17.5 -96.5q-23 -2 -47 -2h-49l10 103q4 27 -6 36t-43 9q-72 2 -149.5 2h-169.5l-82 -494q-2 -12 0 -20t12 -13.5t32.5 -6.5t63.5 -1q123 0 209 5t113 12q31 6 47 41l90 186q23 -4 45.5 -11t42.5 -16 q-27 -78 -53.5 -156.5t-55.5 -158.5h-104.5t-149 1t-181 1h-199.5q-63 0 -124 -1t-114 -1zM463 1618q16 29 33.5 57.5t35.5 53.5q78 -53 169.5 -115t166.5 -111q-14 -32 -43 -67q-80 41 -178 91t-184 91z" />
<glyph unicode="&#xc9;" horiz-adv-x="1089" d="M0 -2q4 25 9 49t9 47l140 6q8 0 12 9l186 1122l-149 4q4 25 9 49.5t9 46.5h232h442h166q-10 -78 -19.5 -157.5t-19.5 -157.5q-20 -2 -44 -3t-46 -3v176q0 16 -9 25.5t-36 13.5q-41 4 -139.5 6t-223.5 2q-16 0 -18 -8l-84 -498q86 2 165 2t159 2q33 0 44 10.5t15 30.5 l27 98q25 2 48 1t46 -1q-8 -47 -16.5 -97t-18.5 -99q-8 -45 -15.5 -94.5t-17.5 -96.5q-23 -2 -47 -2h-49l10 103q4 27 -6 36t-43 9q-72 2 -149.5 2h-169.5l-82 -494q-2 -12 0 -20t12 -13.5t32.5 -6.5t63.5 -1q123 0 209 5t113 12q31 6 47 41l90 186q23 -4 45.5 -11t42.5 -16 q-27 -78 -53.5 -156.5t-55.5 -158.5h-104.5t-149 1t-181 1h-199.5q-63 0 -124 -1t-114 -1zM565 1505q78 49 170 109.5t172 111.5q16 -23 32.5 -53.5t31.5 -58.5q-41 -20 -88 -43t-95.5 -46.5t-95.5 -47t-86 -41.5q-10 16 -21.5 34.5t-19.5 34.5z" />
<glyph unicode="&#xca;" horiz-adv-x="1089" d="M0 -2q4 25 9 49t9 47l140 6q8 0 12 9l186 1122l-149 4q4 25 9 49.5t9 46.5h232h442h166q-10 -78 -19.5 -157.5t-19.5 -157.5q-20 -2 -44 -3t-46 -3v176q0 16 -9 25.5t-36 13.5q-41 4 -139.5 6t-223.5 2q-16 0 -18 -8l-84 -498q86 2 165 2t159 2q33 0 44 10.5t15 30.5 l27 98q25 2 48 1t46 -1q-8 -47 -16.5 -97t-18.5 -99q-8 -45 -15.5 -94.5t-17.5 -96.5q-23 -2 -47 -2h-49l10 103q4 27 -6 36t-43 9q-72 2 -149.5 2h-169.5l-82 -494q-2 -12 0 -20t12 -13.5t32.5 -6.5t63.5 -1q123 0 209 5t113 12q31 6 47 41l90 186q23 -4 45.5 -11t42.5 -16 q-27 -78 -53.5 -156.5t-55.5 -158.5h-104.5t-149 1t-181 1h-199.5q-63 0 -124 -1t-114 -1zM428 1511q68 49 136.5 100.5t133.5 98.5q18 2 39 2h37q47 -47 99.5 -101.5t97.5 -99.5q-27 -33 -60 -59q-41 35 -90 72.5t-96 72.5q-61 -37 -127 -75.5t-121 -73.5 q-12 14 -25.5 30.5t-23.5 32.5z" />
<glyph unicode="&#xcb;" horiz-adv-x="1089" d="M0 -2q4 25 9 49t9 47l140 6q8 0 12 9l186 1122l-149 4q4 25 9 49.5t9 46.5h232h442h166q-10 -78 -19.5 -157.5t-19.5 -157.5q-20 -2 -44 -3t-46 -3v176q0 16 -9 25.5t-36 13.5q-41 4 -139.5 6t-223.5 2q-16 0 -18 -8l-84 -498q86 2 165 2t159 2q33 0 44 10.5t15 30.5 l27 98q25 2 48 1t46 -1q-8 -47 -16.5 -97t-18.5 -99q-8 -45 -15.5 -94.5t-17.5 -96.5q-23 -2 -47 -2h-49l10 103q4 27 -6 36t-43 9q-72 2 -149.5 2h-169.5l-82 -494q-2 -12 0 -20t12 -13.5t32.5 -6.5t63.5 -1q123 0 209 5t113 12q31 6 47 41l90 186q23 -4 45.5 -11t42.5 -16 q-27 -78 -53.5 -156.5t-55.5 -158.5h-104.5t-149 1t-181 1h-199.5q-63 0 -124 -1t-114 -1zM453 1550q0 37 23.5 68t70.5 31h2q43 0 60.5 -27t17.5 -55q0 -37 -24.5 -64.5t-65.5 -27.5q-35 0 -59.5 20.5t-24.5 54.5zM793 1552q0 35 23.5 66t70.5 31h2q41 0 59.5 -26t18.5 -54 q0 -39 -23.5 -66.5t-62.5 -27.5q-43 0 -65.5 24.5t-22.5 52.5z" />
<glyph unicode="&#xcc;" horiz-adv-x="638" d="M-2 0q4 23 9 48t9 48l140 6q12 0 12 11l188 1118l-157 6q4 23 9 47.5t9 46.5h248h229q-4 -23 -9 -47t-11 -47l-156 -6q-4 0 -8 -8l-193 -1121l175 -6q-4 -23 -9.5 -48t-11.5 -48q-51 0 -113.5 1t-121.5 1t-122 -1t-116 -1zM227 1618q16 29 34 57.5t36 53.5 q78 -53 169 -115t167 -111q-14 -32 -43 -67q-80 41 -178.5 91t-184.5 91z" />
<glyph unicode="&#xcd;" horiz-adv-x="638" d="M-2 0q4 23 9 48t9 48l140 6q12 0 12 11l188 1118l-157 6q4 23 9 47.5t9 46.5h248h229q-4 -23 -9 -47t-11 -47l-156 -6q-4 0 -8 -8l-193 -1121l175 -6q-4 -23 -9.5 -48t-11.5 -48q-51 0 -113.5 1t-121.5 1t-122 -1t-116 -1zM330 1505q78 49 170 109.5t172 111.5 q16 -23 32.5 -53.5t30.5 -58.5q-41 -20 -88 -43t-95 -46.5t-95 -47t-86 -41.5q-10 16 -21.5 34.5t-19.5 34.5z" />
<glyph unicode="&#xce;" horiz-adv-x="638" d="M-2 0q4 23 9 48t9 48l140 6q12 0 12 11l188 1118l-157 6q4 23 9 47.5t9 46.5h248h229q-4 -23 -9 -47t-11 -47l-156 -6q-4 0 -8 -8l-193 -1121l175 -6q-4 -23 -9.5 -48t-11.5 -48q-51 0 -113.5 1t-121.5 1t-122 -1t-116 -1zM190 1511q68 49 136.5 100.5t134.5 98.5 q18 2 38.5 2h37.5q47 -47 99 -101.5t97 -99.5q-27 -33 -59 -59q-41 35 -90.5 72.5t-96.5 72.5q-61 -37 -126.5 -75.5t-120.5 -73.5q-12 14 -25.5 30.5t-24.5 32.5z" />
<glyph unicode="&#xcf;" horiz-adv-x="638" d="M-2 0q4 23 9 48t9 48l140 6q12 0 12 11l188 1118l-157 6q4 23 9 47.5t9 46.5h248h229q-4 -23 -9 -47t-11 -47l-156 -6q-4 0 -8 -8l-193 -1121l175 -6q-4 -23 -9.5 -48t-11.5 -48q-51 0 -113.5 1t-121.5 1t-122 -1t-116 -1zM227 1550q0 37 24 68t71 31h2q43 0 60 -27 t17 -55q0 -37 -24.5 -64.5t-65.5 -27.5q-35 0 -59.5 20.5t-24.5 54.5zM567 1552q0 35 24 66t71 31h2q41 0 59 -26t18 -54q0 -39 -23.5 -66.5t-62.5 -27.5q-43 0 -65.5 24.5t-22.5 52.5z" />
<glyph unicode="&#xd0;" horiz-adv-x="1368" d="M2 -2q4 23 8 48.5t8 47.5l136 4q14 0 16 15l84 503h-186q4 23 7 45.5t7 40.5q47 2 93 2.5t93 0.5l90 526l-145 4q4 25 9 48.5t9 45.5q80 2 184.5 3t221.5 1q176 0 280.5 -32.5t176.5 -81.5q57 -41 96 -95.5t62.5 -113t33.5 -117.5t10 -113q0 -104 -24.5 -200.5 t-68.5 -181.5t-105.5 -155.5t-132.5 -119.5q-102 -72 -219 -98.5t-271 -26.5h-63.5t-68.5 1t-62.5 1h-47.5q-53 0 -113.5 -1t-117.5 -1zM329 133q3 -14 19.5 -23.5t50 -13.5t93.5 -4q139 0 239 32t172 93q39 35 80 86t72.5 120t52 155t20.5 190q0 86 -20.5 171t-91.5 163 q-59 63 -149.5 100t-235.5 37q-33 0 -64.5 -2t-52.5 -6l-94 -524h160t186 2q-6 -49 -18 -93h-345l-73 -446q-4 -23 -1 -37z" />
<glyph unicode="&#xd1;" horiz-adv-x="1427" d="M-10 0q4 25 8 49t8 47l131 6q12 0 13 11l190 1116l-152 6q4 25 9.5 48.5t9.5 47.5q66 0 141.5 -1t147.5 -1q16 -35 51 -105.5t80 -163.5t98 -202.5t108.5 -223.5t108.5 -223.5t98 -201.5l13 2q41 258 81 511t80 509l-194 2q4 25 9 49.5t9 46.5h254q51 0 101.5 1t91.5 1 q-4 -25 -8 -48t-9 -48l-125 -4q-6 -2 -8 -12l-209 -1215q-16 -6 -47.5 -11t-60.5 -5q-37 63 -101.5 184t-142.5 272.5t-162 324.5t-161 343h-15q-43 -256 -85 -505t-85 -505l203 -4q-4 -25 -8 -49t-10 -47h-271q-49 0 -99 -1t-91 -1zM586 1460q4 37 21.5 71t43 61.5t56 44 t63.5 16.5h2q41 0 74 -17.5t63 -38.5q25 -16 48.5 -28.5t50.5 -12.5q31 0 53 27t29 64q41 4 77 0q-4 -33 -18 -68t-38 -63.5t-56.5 -47t-71.5 -18.5q-35 0 -62.5 17.5t-56.5 33.5t-54.5 30.5t-59.5 14.5q-27 0 -52.5 -24.5t-35.5 -61.5q-37 -4 -76 0z" />
<glyph unicode="&#xd2;" horiz-adv-x="1439" d="M117 522q0 113 26.5 217.5t71.5 192.5t103.5 158.5t121.5 119.5q98 76 203 109t227 33q117 0 202 -37t145 -96q45 -45 74.5 -96.5t47 -105.5t24.5 -107.5t7 -102.5v-2q0 -111 -24.5 -212t-66.5 -188.5t-97.5 -157t-114.5 -118.5q-98 -80 -205.5 -114.5t-236.5 -34.5 q-119 0 -206 35.5t-155 103.5q-78 76 -112.5 184.5t-34.5 218.5zM285 518q0 -78 18.5 -162t77.5 -157q49 -59 117.5 -89t163.5 -30q178 0 309 119q43 39 85 97t73.5 135t52 171t20.5 205q0 72 -16.5 157t-75.5 162q-41 53 -102.5 89t-169.5 36q-186 0 -324 -129 q-39 -37 -80 -93t-73.5 -132t-54 -170t-21.5 -207v-2zM629 1628q16 29 33.5 57.5t35.5 53.5q78 -53 169 -114.5t167 -111.5q-14 -32 -43 -67q-80 41 -178 91t-184 91z" />
<glyph unicode="&#xd3;" horiz-adv-x="1439" d="M117 522q0 113 26.5 217.5t71.5 192.5t103.5 158.5t121.5 119.5q98 76 203 109t227 33q117 0 202 -37t145 -96q45 -45 74.5 -96.5t47 -105.5t24.5 -107.5t7 -102.5v-2q0 -111 -24.5 -212t-66.5 -188.5t-97.5 -157t-114.5 -118.5q-98 -80 -205.5 -114.5t-236.5 -34.5 q-119 0 -206 35.5t-155 103.5q-78 76 -112.5 184.5t-34.5 218.5zM285 518q0 -78 18.5 -162t77.5 -157q49 -59 117.5 -89t163.5 -30q178 0 309 119q43 39 85 97t73.5 135t52 171t20.5 205q0 72 -16.5 157t-75.5 162q-41 53 -102.5 89t-169.5 36q-186 0 -324 -129 q-39 -37 -80 -93t-73.5 -132t-54 -170t-21.5 -207v-2zM723 1516q78 49 170 109.5t172 111.5q16 -23 32.5 -53.5t30.5 -59.5q-41 -20 -88 -42.5t-95 -46.5l-95 -47.5t-86 -41.5q-10 16 -21.5 34.5t-19.5 35.5z" />
<glyph unicode="&#xd4;" horiz-adv-x="1439" d="M117 522q0 113 26.5 217.5t71.5 192.5t103.5 158.5t121.5 119.5q98 76 203 109t227 33q117 0 202 -37t145 -96q45 -45 74.5 -96.5t47 -105.5t24.5 -107.5t7 -102.5v-2q0 -111 -24.5 -212t-66.5 -188.5t-97.5 -157t-114.5 -118.5q-98 -80 -205.5 -114.5t-236.5 -34.5 q-119 0 -206 35.5t-155 103.5q-78 76 -112.5 184.5t-34.5 218.5zM285 518q0 -78 18.5 -162t77.5 -157q49 -59 117.5 -89t163.5 -30q178 0 309 119q43 39 85 97t73.5 135t52 171t20.5 205q0 72 -16.5 157t-75.5 162q-41 53 -102.5 89t-169.5 36q-186 0 -324 -129 q-39 -37 -80 -93t-73.5 -132t-54 -170t-21.5 -207v-2zM604 1511q68 49 136.5 100.5t133.5 98.5q18 2 39 2h37q47 -47 99.5 -101.5t97.5 -99.5q-27 -33 -60 -59q-41 35 -90 72.5t-96 72.5q-61 -37 -126.5 -75.5t-121.5 -73.5q-12 14 -25.5 30.5t-23.5 32.5z" />
<glyph unicode="&#xd5;" horiz-adv-x="1439" d="M117 522q0 113 26.5 217.5t71.5 192.5t103.5 158.5t121.5 119.5q98 76 203 109t227 33q117 0 202 -37t145 -96q45 -45 74.5 -96.5t47 -105.5t24.5 -107.5t7 -102.5v-2q0 -111 -24.5 -212t-66.5 -188.5t-97.5 -157t-114.5 -118.5q-98 -80 -205.5 -114.5t-236.5 -34.5 q-119 0 -206 35.5t-155 103.5q-78 76 -112.5 184.5t-34.5 218.5zM285 518q0 -78 18.5 -162t77.5 -157q49 -59 117.5 -89t163.5 -30q178 0 309 119q43 39 85 97t73.5 135t52 171t20.5 205q0 72 -16.5 157t-75.5 162q-41 53 -102.5 89t-169.5 36q-186 0 -324 -129 q-39 -37 -80 -93t-73.5 -132t-54 -170t-21.5 -207v-2zM584 1470q4 37 21.5 71t43 61.5t56 44t63.5 16.5h2q41 0 74 -17.5t63 -37.5q25 -16 48.5 -28.5t50.5 -12.5q31 0 53 26.5t28 63.5q41 4 78 0q-4 -33 -18 -68t-38 -63.5t-56.5 -47t-71.5 -18.5q-35 0 -62.5 17.5 t-56.5 33.5t-54.5 30.5t-59.5 14.5q-27 0 -52.5 -24.5t-36.5 -61.5q-37 -4 -75 0z" />
<glyph unicode="&#xd6;" horiz-adv-x="1439" d="M117 522q0 113 26.5 217.5t71.5 192.5t103.5 158.5t121.5 119.5q98 76 203 109t227 33q117 0 202 -37t145 -96q45 -45 74.5 -96.5t47 -105.5t24.5 -107.5t7 -102.5v-2q0 -111 -24.5 -212t-66.5 -188.5t-97.5 -157t-114.5 -118.5q-98 -80 -205.5 -114.5t-236.5 -34.5 q-119 0 -206 35.5t-155 103.5q-78 76 -112.5 184.5t-34.5 218.5zM285 518q0 -78 18.5 -162t77.5 -157q49 -59 117.5 -89t163.5 -30q178 0 309 119q43 39 85 97t73.5 135t52 171t20.5 205q0 72 -16.5 157t-75.5 162q-41 53 -102.5 89t-169.5 36q-186 0 -324 -129 q-39 -37 -80 -93t-73.5 -132t-54 -170t-21.5 -207v-2zM643 1550q0 37 23.5 68t70.5 31h2q43 0 60.5 -27t17.5 -55q0 -37 -24.5 -64.5t-65.5 -27.5q-35 0 -59.5 20.5t-24.5 54.5zM983 1552q0 35 23.5 66t70.5 31h2q41 0 59.5 -26t18.5 -54q0 -39 -23.5 -66.5t-62.5 -27.5 q-43 0 -65.5 24.5t-22.5 52.5z" />
<glyph unicode="&#xd7;" d="M121 141q74 76 155.5 159t167.5 173q-158 162 -307 307q18 23 40 44.5t40 37.5q70 -70 146.5 -147.5t158.5 -161.5q82 84 160 164t149 151q43 -37 82 -82q-76 -74 -154.5 -151.5t-160.5 -161.5q84 -86 165 -171t159 -163q-14 -16 -34 -35.5t-38 -35.5q-78 80 -160 163.5 t-168 169.5q-86 -86 -169 -168.5t-160 -162.5q-39 33 -72 71z" />
<glyph unicode="&#xd8;" horiz-adv-x="1439" d="M106 -43q41 45 77 87t77 89q-72 72 -106.5 174.5t-34.5 216.5q0 125 30.5 235.5t82 201t114 160t127.5 114.5q106 74 205.5 95.5t187.5 21.5h2q80 0 156 -21.5t141 -75.5q35 41 66 82t65 82q23 -16 44.5 -34.5t37.5 -34.5q-35 -39 -66.5 -78t-68.5 -84 q68 -78 97.5 -180.5t29.5 -198.5t-19.5 -189.5t-55 -179.5t-87 -160.5t-114.5 -129.5q-98 -86 -207 -128t-250 -42q-100 0 -177 26.5t-128 65.5q-39 -45 -75 -87t-73 -83q-20 10 -39.5 24.5t-38.5 30.5zM279 518q0 -70 16 -147.5t59 -137.5q106 133 200.5 252t188.5 240 q78 98 166 207.5t181 224.5q-27 27 -52.5 45.5t-55.5 29.5t-67 16t-84 5h-2q-78 0 -157.5 -29.5t-143.5 -88.5q-41 -39 -85 -95.5t-80.5 -133.5t-60 -174t-23.5 -214zM414 166q47 -47 111.5 -67.5t146.5 -20.5h2q78 0 162 32.5t147 96.5q43 41 83 98t72.5 132t52 168 t19.5 208q0 70 -13 142.5t-54 121.5q-92 -117 -175 -222t-155 -198q-86 -109 -187.5 -232.5t-211.5 -258.5z" />
<glyph unicode="&#xd9;" horiz-adv-x="1325" d="M174 1235q4 25 9 49.5t10 46.5h215h251q-6 -49 -18 -96l-168 -6q-8 0 -12 -12l-115 -666q-12 -76 -16 -131t0 -96t15 -71t28 -54q25 -37 78 -74t149 -37q49 0 88 8t68.5 22.5t52 31t43.5 34.5q43 39 88 129t68 224q12 74 26.5 160.5t29.5 178t29.5 179.5t26.5 166 q0 8 -8 8l-170 4q4 27 8 50.5t11 45.5h237q53 0 105.5 1t99.5 1q-4 -23 -7 -47t-7 -49l-134 -6l-118 -686q-29 -162 -85.5 -268.5t-119.5 -165.5q-49 -47 -136 -88t-216 -41q-211 0 -318 118q-78 86 -86 194.5t14 246.5l117 692zM557 1618q16 29 33.5 57.5t36.5 53.5 q78 -53 169 -115t167 -111q-14 -32 -43 -67q-80 41 -178.5 91t-184.5 91z" />
<glyph unicode="&#xda;" horiz-adv-x="1325" d="M174 1235q4 25 9 49.5t10 46.5h215h251q-6 -49 -18 -96l-168 -6q-8 0 -12 -12l-115 -666q-12 -76 -16 -131t0 -96t15 -71t28 -54q25 -37 78 -74t149 -37q49 0 88 8t68.5 22.5t52 31t43.5 34.5q43 39 88 129t68 224q12 74 26.5 160.5t29.5 178t29.5 179.5t26.5 166 q0 8 -8 8l-170 4q4 27 8 50.5t11 45.5h237q53 0 105.5 1t99.5 1q-4 -23 -7 -47t-7 -49l-134 -6l-118 -686q-29 -162 -85.5 -268.5t-119.5 -165.5q-49 -47 -136 -88t-216 -41q-211 0 -318 118q-78 86 -86 194.5t14 246.5l117 692zM705 1505q78 49 170 109.5t172 111.5 q16 -23 32.5 -53.5t30.5 -58.5q-41 -20 -88 -43t-95 -46.5t-95.5 -47t-86.5 -41.5q-10 16 -21 34.5t-19 34.5z" />
<glyph unicode="&#xdb;" horiz-adv-x="1325" d="M174 1235q4 25 9 49.5t10 46.5h215h251q-6 -49 -18 -96l-168 -6q-8 0 -12 -12l-115 -666q-12 -76 -16 -131t0 -96t15 -71t28 -54q25 -37 78 -74t149 -37q49 0 88 8t68.5 22.5t52 31t43.5 34.5q43 39 88 129t68 224q12 74 26.5 160.5t29.5 178t29.5 179.5t26.5 166 q0 8 -8 8l-170 4q4 27 8 50.5t11 45.5h237q53 0 105.5 1t99.5 1q-4 -23 -7 -47t-7 -49l-134 -6l-118 -686q-29 -162 -85.5 -268.5t-119.5 -165.5q-49 -47 -136 -88t-216 -41q-211 0 -318 118q-78 86 -86 194.5t14 246.5l117 692zM561 1511q68 49 136.5 100.5t133.5 98.5 q18 2 39 2h37q47 -47 99.5 -101.5t97.5 -99.5q-27 -33 -60 -59q-41 35 -90 72.5t-96 72.5q-61 -37 -126.5 -75.5t-121.5 -73.5q-12 14 -25.5 30.5t-23.5 32.5z" />
<glyph unicode="&#xdc;" horiz-adv-x="1325" d="M174 1235q4 25 9 49.5t10 46.5h215h251q-6 -49 -18 -96l-168 -6q-8 0 -12 -12l-115 -666q-12 -76 -16 -131t0 -96t15 -71t28 -54q25 -37 78 -74t149 -37q49 0 88 8t68.5 22.5t52 31t43.5 34.5q43 39 88 129t68 224q12 74 26.5 160.5t29.5 178t29.5 179.5t26.5 166 q0 8 -8 8l-170 4q4 27 8 50.5t11 45.5h237q53 0 105.5 1t99.5 1q-4 -23 -7 -47t-7 -49l-134 -6l-118 -686q-29 -162 -85.5 -268.5t-119.5 -165.5q-49 -47 -136 -88t-216 -41q-211 0 -318 118q-78 86 -86 194.5t14 246.5l117 692zM594 1550q0 37 23.5 68t70.5 31h2 q43 0 60.5 -27t17.5 -55q0 -37 -24.5 -64.5t-65.5 -27.5q-35 0 -59.5 20.5t-24.5 54.5zM934 1552q0 35 23.5 66t70.5 31h2q41 0 59.5 -26t18.5 -54q0 -39 -23.5 -66.5t-62.5 -27.5q-43 0 -65.5 24.5t-22.5 52.5z" />
<glyph unicode="&#xdd;" horiz-adv-x="1091" d="M78 1237q4 23 9 47.5t9 46.5h187q74 0 143.5 1t128.5 1q-4 -23 -8 -48t-10 -48l-177 -6q18 -55 43 -131t52.5 -157t54.5 -162t49 -146h14q37 51 92.5 133t114 168t109.5 164t78 121q4 10 -6 10l-164 4q4 23 9 48.5t11 47.5h258q41 0 86 1t80 1q-4 -23 -9 -47t-9 -47 l-99 -8q-59 -80 -123.5 -171t-132 -184.5t-134 -185.5t-128.5 -174l-71 -414l184 -6q-4 -23 -8 -48t-11 -48q-55 0 -121.5 1t-129.5 1q-59 0 -125 -1t-127 -1q4 23 10 48t10 48l154 6q14 0 14 13l68 401q-31 80 -64 170t-65.5 181t-65.5 181.5t-63 174.5q-4 8 -13 8z M596 1505q78 49 170 109.5t172 111.5q16 -23 32.5 -53.5t30.5 -58.5q-41 -20 -88 -43t-95 -46.5t-95 -47t-86 -41.5q-10 16 -21.5 34.5t-19.5 34.5z" />
<glyph unicode="&#xde;" horiz-adv-x="1079" d="M12 0q4 23 9.5 47.5t9.5 46.5l125 6q10 4 10 13l186 1118l-137 6q6 23 10 47.5t11 46.5h223h227q-2 -23 -7 -47t-11 -47l-156 -6q-8 0 -8 -10l-23 -140q16 0 32.5 1t33.5 1q78 0 146.5 -7t140.5 -36q102 -41 148 -126t46 -175q0 -78 -23.5 -142.5t-62.5 -115.5t-88 -87 t-98 -56q-84 -35 -156 -43t-147 -8q-41 0 -69 2t-40 4l-33 -191l224 -6q-6 -51 -19 -94h-293q-53 0 -107.5 -1t-103.5 -1zM362 401q4 -10 33 -14t74 -4q63 0 121.5 10t105.5 33q84 43 129 121t45 184q0 55 -17 103.5t-54 83t-95.5 55t-138.5 20.5q-90 0 -102 -6z" />
<glyph unicode="&#xdf;" horiz-adv-x="1118" d="M31 -332q51 283 100 554.5t96 529.5h-166q4 23 7.5 47t7.5 47l160 8q10 0 10 14q25 137 62.5 226.5t113.5 160.5q135 129 295 129q133 0 207 -92q90 -111 61 -329q-33 -29 -80 -54.5t-100 -62.5q-61 -41 -90 -81t-29 -89q0 -51 31 -80t102 -68q94 -49 147.5 -104 t53.5 -143q0 -80 -35 -138.5t-96 -99.5q-47 -31 -104.5 -47t-147.5 -16q-59 0 -115.5 11t-83.5 23q4 63 7.5 125t7.5 125q20 4 43.5 4h46.5l14 -147q0 -16 12 -23q18 -10 47 -17t62 -7q88 0 139 39q61 49 62 135q0 59 -33 96t-105 74q-43 23 -78.5 44t-61.5 48t-41 60.5 t-15 80.5q0 72 48 131.5t120 110.5q57 39 86.5 61.5t50.5 49.5q6 63 -4 121.5t-39 93.5q-23 27 -52.5 42t-76.5 15q-57 0 -95 -20.5t-73 -57.5q-53 -59 -83 -160.5t-52 -236.5q-47 -258 -99.5 -548t-107.5 -583q-35 -2 -68.5 -2h-68.5z" />
<glyph unicode="&#xe0;" horiz-adv-x="944" d="M35 164q0 57 17.5 141t45.5 166q23 63 62 135t90 132.5t114.5 100.5t137.5 40q59 0 109.5 -26t90.5 -73h13l45 107q29 -8 56.5 -15.5t55.5 -17.5q-20 -70 -45.5 -167t-52 -202.5t-51.5 -208t-41 -182.5q0 -10 10 -10q12 0 50 9t89 26q12 -45 19 -86q-66 -23 -134.5 -37 t-115.5 -14q-6 0 -26.5 15t-28.5 34q6 27 20.5 85t32.5 124l-14 6q-72 -80 -131.5 -132.5t-108.5 -83t-86 -43t-61 -12.5q-35 6 -78 35t-66 72q-18 37 -18 82zM186 186q0 -45 19.5 -67.5t46.5 -22.5q37 0 92 37t110.5 88t100.5 107.5t59 95.5q6 14 14.5 46t17.5 68.5 t18.5 72.5t13.5 59q-33 49 -78 74.5t-98 25.5h-2q-39 0 -74 -22.5t-65.5 -58.5t-55 -80t-43.5 -87q-35 -84 -55.5 -174t-20.5 -162zM379 1217q20 25 41.5 46.5t44.5 41.5q66 -61 142.5 -136t140.5 -137q-14 -16 -27.5 -31.5t-28.5 -29.5q-72 57 -154.5 122.5t-158.5 123.5z " />
<glyph unicode="&#xe1;" horiz-adv-x="944" d="M35 164q0 57 17.5 141t45.5 166q23 63 62 135t90 132.5t114.5 100.5t137.5 40q59 0 109.5 -26t90.5 -73h13l45 107q29 -8 56.5 -15.5t55.5 -17.5q-20 -70 -45.5 -167t-52 -202.5t-51.5 -208t-41 -182.5q0 -10 10 -10q12 0 50 9t89 26q12 -45 19 -86q-66 -23 -134.5 -37 t-115.5 -14q-6 0 -26.5 15t-28.5 34q6 27 20.5 85t32.5 124l-14 6q-72 -80 -131.5 -132.5t-108.5 -83t-86 -43t-61 -12.5q-35 6 -78 35t-66 72q-18 37 -18 82zM186 186q0 -45 19.5 -67.5t46.5 -22.5q37 0 92 37t110.5 88t100.5 107.5t59 95.5q6 14 14.5 46t17.5 68.5 t18.5 72.5t13.5 59q-33 49 -78 74.5t-98 25.5h-2q-39 0 -74 -22.5t-65.5 -58.5t-55 -80t-43.5 -87q-35 -84 -55.5 -174t-20.5 -162zM506 1036q74 61 152.5 130t150.5 128q23 -23 41 -47t35 -49q-78 -53 -164 -112.5t-164 -112.5q-14 16 -26.5 31.5t-24.5 31.5z" />
<glyph unicode="&#xe2;" horiz-adv-x="944" d="M35 164q0 57 17.5 141t45.5 166q23 63 62 135t90 132.5t114.5 100.5t137.5 40q59 0 109.5 -26t90.5 -73h13l45 107q29 -8 56.5 -15.5t55.5 -17.5q-20 -70 -45.5 -167t-52 -202.5t-51.5 -208t-41 -182.5q0 -10 10 -10q12 0 50 9t89 26q12 -45 19 -86q-66 -23 -134.5 -37 t-115.5 -14q-6 0 -26.5 15t-28.5 34q6 27 20.5 85t32.5 124l-14 6q-72 -80 -131.5 -132.5t-108.5 -83t-86 -43t-61 -12.5q-35 6 -78 35t-66 72q-18 37 -18 82zM186 186q0 -45 19.5 -67.5t46.5 -22.5q37 0 92 37t110.5 88t100.5 107.5t59 95.5q6 14 14.5 46t17.5 68.5 t18.5 72.5t13.5 59q-33 49 -78 74.5t-98 25.5h-2q-39 0 -74 -22.5t-65.5 -58.5t-55 -80t-43.5 -87q-35 -84 -55.5 -174t-20.5 -162zM344 1026q59 59 123.5 122.5t118.5 117.5h78q37 -51 80.5 -121t80.5 -123q-14 -12 -30.5 -25.5t-32.5 -23.5q-35 41 -75 88t-77 88 q-49 -41 -107.5 -90t-105.5 -88q-14 12 -27.5 26.5t-25.5 28.5z" />
<glyph unicode="&#xe3;" horiz-adv-x="944" d="M35 164q0 57 17.5 141t45.5 166q23 63 62 135t90 132.5t114.5 100.5t137.5 40q59 0 109.5 -26t90.5 -73h13l45 107q29 -8 56.5 -15.5t55.5 -17.5q-20 -70 -45.5 -167t-52 -202.5t-51.5 -208t-41 -182.5q0 -10 10 -10q12 0 50 9t89 26q12 -45 19 -86q-66 -23 -134.5 -37 t-115.5 -14q-6 0 -26.5 15t-28.5 34q6 27 20.5 85t32.5 124l-14 6q-72 -80 -131.5 -132.5t-108.5 -83t-86 -43t-61 -12.5q-35 6 -78 35t-66 72q-18 37 -18 82zM186 186q0 -45 19.5 -67.5t46.5 -22.5q37 0 92 37t110.5 88t100.5 107.5t59 95.5q6 14 14.5 46t17.5 68.5 t18.5 72.5t13.5 59q-33 49 -78 74.5t-98 25.5h-2q-39 0 -74 -22.5t-65.5 -58.5t-55 -80t-43.5 -87q-35 -84 -55.5 -174t-20.5 -162zM348 1016q16 92 63.5 147.5t106.5 55.5h2q39 0 68.5 -22.5t58.5 -43.5q23 -18 42.5 -31.5t41.5 -13.5q51 0 74 106q18 2 37.5 1t36.5 -1 q-10 -88 -53.5 -150.5t-110.5 -62.5q-33 0 -61.5 19.5t-53.5 38.5q-27 23 -49.5 40t-46.5 17q-29 0 -47.5 -27.5t-32.5 -72.5q-18 -2 -37.5 -1t-38.5 1z" />
<glyph unicode="&#xe4;" horiz-adv-x="944" d="M35 164q0 57 17.5 141t45.5 166q23 63 62 135t90 132.5t114.5 100.5t137.5 40q59 0 109.5 -26t90.5 -73h13l45 107q29 -8 56.5 -15.5t55.5 -17.5q-20 -70 -45.5 -167t-52 -202.5t-51.5 -208t-41 -182.5q0 -10 10 -10q12 0 50 9t89 26q12 -45 19 -86q-66 -23 -134.5 -37 t-115.5 -14q-6 0 -26.5 15t-28.5 34q6 27 20.5 85t32.5 124l-14 6q-72 -80 -131.5 -132.5t-108.5 -83t-86 -43t-61 -12.5q-35 6 -78 35t-66 72q-18 37 -18 82zM186 186q0 -45 19.5 -67.5t46.5 -22.5q37 0 92 37t110.5 88t100.5 107.5t59 95.5q6 14 14.5 46t17.5 68.5 t18.5 72.5t13.5 59q-33 49 -78 74.5t-98 25.5h-2q-39 0 -74 -22.5t-65.5 -58.5t-55 -80t-43.5 -87q-35 -84 -55.5 -174t-20.5 -162zM354 1090q0 31 24 63.5t71 32.5h2q43 0 60 -26.5t17 -53.5q0 -37 -25.5 -65.5t-62.5 -28.5q-39 0 -62.5 21.5t-23.5 56.5zM674 1090 q0 33 22.5 64.5t69.5 31.5h2q39 0 59.5 -26.5t20.5 -53.5q0 -35 -23.5 -64.5t-68.5 -29.5q-41 0 -61.5 25.5t-20.5 52.5z" />
<glyph unicode="&#xe5;" horiz-adv-x="944" d="M35 164q0 57 17.5 141t45.5 166q23 63 62 135t90 132.5t114.5 100.5t137.5 40q59 0 109.5 -26t90.5 -73h13l45 107q29 -8 56.5 -15.5t55.5 -17.5q-20 -70 -45.5 -167t-52 -202.5t-51.5 -208t-41 -182.5q0 -10 10 -10q12 0 50 9t89 26q12 -45 19 -86q-66 -23 -134.5 -37 t-115.5 -14q-6 0 -26.5 15t-28.5 34q6 27 20.5 85t32.5 124l-14 6q-72 -80 -131.5 -132.5t-108.5 -83t-86 -43t-61 -12.5q-35 6 -78 35t-66 72q-18 37 -18 82zM186 186q0 -45 19.5 -67.5t46.5 -22.5q37 0 92 37t110.5 88t100.5 107.5t59 95.5q6 14 14.5 46t17.5 68.5 t18.5 72.5t13.5 59q-33 49 -78 74.5t-98 25.5h-2q-39 0 -74 -22.5t-65.5 -58.5t-55 -80t-43.5 -87q-35 -84 -55.5 -174t-20.5 -162zM422 1145q0 84 63.5 136t151.5 52h2q74 0 121 -42t47 -105q0 -41 -17.5 -77t-46 -61.5t-66.5 -40t-81 -14.5q-70 0 -122 40t-52 112z M518 1151q0 -39 25.5 -63.5t60.5 -24.5q41 0 74 28.5t33 88.5q0 41 -23.5 62.5t-58.5 21.5h-2q-43 0 -76 -30t-33 -83z" />
<glyph unicode="&#xe6;" horiz-adv-x="1351" d="M37 162q0 59 18.5 145t48.5 170q23 61 60 131t88 130.5t114.5 100.5t137.5 40q84 0 144.5 -42.5t107.5 -105.5h12q72 80 149.5 114t161.5 34q49 0 88 -18.5t67 -48.5t44 -66.5t16 -75.5q-4 -51 -33.5 -107.5t-70.5 -81.5q-86 -49 -198.5 -65.5t-241.5 -16.5 q-10 -37 -18.5 -85t-8.5 -74q0 -72 37 -111t104 -39q59 0 146.5 31t175.5 78q10 -20 17 -40t16 -40q-98 -57 -202 -98t-208 -41q-92 0 -152.5 55t-68.5 141q-2 12 -2 26.5v28.5l-8 5q-49 -55 -100.5 -102.5t-101.5 -82.5t-95 -55.5t-82 -20.5q-33 4 -77 34t-67 75 q-18 33 -18 78zM188 182q0 -41 19.5 -63.5t44.5 -22.5q37 0 91 34t106.5 83t96.5 103.5t60 93.5q18 61 40 121.5t50 115.5q-27 47 -74 85t-114 38q-41 0 -77 -22.5t-66.5 -58.5t-56 -82t-46.5 -93q-33 -78 -53.5 -167t-20.5 -163v-2zM766 487q82 -2 163 11.5t132 40.5 q35 16 59.5 40.5t24.5 71.5q0 49 -29 89t-86 40h-2q-53 0 -95 -24.5t-71 -65.5q-25 -33 -49.5 -80t-46.5 -123z" />
<glyph unicode="&#xe7;" horiz-adv-x="737" d="M43 248q0 45 10 104.5t33 123t57.5 127t85.5 118.5q78 86 158 122t188 36q49 0 89.5 -12.5t56.5 -26.5q-2 -14 -12.5 -34t-22.5 -39t-25.5 -33.5t-23.5 -20.5q-6 2 -21.5 10t-37 17.5t-46 15.5t-45.5 6q-53 0 -93 -27.5t-64 -60.5q-27 -35 -50.5 -83t-42 -101.5 t-28.5 -108.5t-10 -107q0 -100 43 -142t112 -42q47 0 120 21.5t132 48.5q8 -18 14.5 -39t12.5 -41q-43 -23 -96.5 -44.5t-108.5 -35.5l-131 -123q49 -10 79 -43t30 -76q0 -80 -78 -130t-201 -54l2 72q68 4 113 28.5t45 69.5q0 72 -103 76q-4 10 -6 20.5t-6 20.5l129 123 q-6 -2 -14 -2q-39 0 -82 16t-79 49t-59.5 83t-23.5 118z" />
<glyph unicode="&#xe8;" horiz-adv-x="827" d="M45 221v2q0 45 11.5 107.5t35 129t60 134.5t88.5 125q78 86 152.5 123t154.5 37q55 0 96 -19.5t68.5 -50.5t43 -70t15.5 -77q-8 -49 -38 -104.5t-75 -80.5q-86 -45 -191.5 -61.5t-240.5 -16.5q-10 -37 -18 -83t-8 -74q0 -72 36.5 -112t102.5 -40q61 0 149 31t175 78 q10 -20 17 -40t15 -40q-88 -53 -195.5 -96t-213.5 -43q-41 0 -83 15t-77 46t-57.5 76t-22.5 104zM246 487q82 -2 158.5 11.5t132.5 40.5q35 16 59.5 41.5t24.5 68.5q0 49 -28 90t-87 41h-2q-47 0 -86 -23.5t-72 -64.5q-25 -33 -51.5 -81t-48.5 -124zM334 1214q20 25 41.5 47 t44.5 42q66 -61 142.5 -136t139.5 -137q-14 -16 -27 -31.5t-28 -29.5q-72 57 -154.5 122.5t-158.5 122.5z" />
<glyph unicode="&#xe9;" horiz-adv-x="827" d="M45 221v2q0 45 11.5 107.5t35 129t60 134.5t88.5 125q78 86 152.5 123t154.5 37q55 0 96 -19.5t68.5 -50.5t43 -70t15.5 -77q-8 -49 -38 -104.5t-75 -80.5q-86 -45 -191.5 -61.5t-240.5 -16.5q-10 -37 -18 -83t-8 -74q0 -72 36.5 -112t102.5 -40q61 0 149 31t175 78 q10 -20 17 -40t15 -40q-88 -53 -195.5 -96t-213.5 -43q-41 0 -83 15t-77 46t-57.5 76t-22.5 104zM246 487q82 -2 158.5 11.5t132.5 40.5q35 16 59.5 41.5t24.5 68.5q0 49 -28 90t-87 41h-2q-47 0 -86 -23.5t-72 -64.5q-25 -33 -51.5 -81t-48.5 -124zM432 1034 q74 61 152.5 130t150.5 128q23 -23 41.5 -47t34.5 -49q-78 -53 -164 -112.5t-164 -112.5q-14 16 -26.5 31.5t-24.5 31.5z" />
<glyph unicode="&#xea;" horiz-adv-x="827" d="M45 221v2q0 45 11.5 107.5t35 129t60 134.5t88.5 125q78 86 152.5 123t154.5 37q55 0 96 -19.5t68.5 -50.5t43 -70t15.5 -77q-8 -49 -38 -104.5t-75 -80.5q-86 -45 -191.5 -61.5t-240.5 -16.5q-10 -37 -18 -83t-8 -74q0 -72 36.5 -112t102.5 -40q61 0 149 31t175 78 q10 -20 17 -40t15 -40q-88 -53 -195.5 -96t-213.5 -43q-41 0 -83 15t-77 46t-57.5 76t-22.5 104zM246 487q82 -2 158.5 11.5t132.5 40.5q35 16 59.5 41.5t24.5 68.5q0 49 -28 90t-87 41h-2q-47 0 -86 -23.5t-72 -64.5q-25 -33 -51.5 -81t-48.5 -124zM307 1024 q59 59 124 122.5t118 117.5h78q37 -51 81 -121t80 -123q-14 -12 -30.5 -25.5t-32.5 -23.5q-35 41 -75 88t-77 88q-49 -41 -107 -90t-106 -88q-14 12 -27.5 26.5t-25.5 28.5z" />
<glyph unicode="&#xeb;" horiz-adv-x="827" d="M45 221v2q0 45 11.5 107.5t35 129t60 134.5t88.5 125q78 86 152.5 123t154.5 37q55 0 96 -19.5t68.5 -50.5t43 -70t15.5 -77q-8 -49 -38 -104.5t-75 -80.5q-86 -45 -191.5 -61.5t-240.5 -16.5q-10 -37 -18 -83t-8 -74q0 -72 36.5 -112t102.5 -40q61 0 149 31t175 78 q10 -20 17 -40t15 -40q-88 -53 -195.5 -96t-213.5 -43q-41 0 -83 15t-77 46t-57.5 76t-22.5 104zM246 487q82 -2 158.5 11.5t132.5 40.5q35 16 59.5 41.5t24.5 68.5q0 49 -28 90t-87 41h-2q-47 0 -86 -23.5t-72 -64.5q-25 -33 -51.5 -81t-48.5 -124zM324 1085q0 31 23.5 64 t70.5 33h2q43 0 60.5 -27t17.5 -53q0 -37 -26 -65.5t-62 -28.5q-39 0 -62.5 21.5t-23.5 55.5zM643 1085q0 33 22.5 65t69.5 32h2q39 0 59.5 -27t20.5 -53q0 -35 -23.5 -64.5t-68.5 -29.5q-41 0 -61.5 25.5t-20.5 51.5z" />
<glyph unicode="&#xec;" horiz-adv-x="514" d="M66 827q121 16 196.5 34t87.5 18q10 0 28.5 -18.5t27.5 -33.5q-18 -76 -44 -185.5t-52.5 -218t-49 -199.5t-31.5 -130q-4 -14 9 -14q20 0 61 9t92 24q6 -23 9 -43.5t8 -42.5q-63 -20 -130 -32.5t-126 -12.5q-8 0 -35 20.5t-37 42.5q18 76 37.5 163t41 179t43.5 185.5 t42 179.5l-174 -11q-2 23 -3 43.5t-1 42.5zM100 1217q20 25 41.5 46.5t44.5 41.5q66 -61 143 -136t140 -137q-14 -16 -27.5 -31.5t-27.5 -29.5q-72 57 -155 122.5t-159 123.5z" />
<glyph unicode="&#xed;" horiz-adv-x="514" d="M66 827q121 16 196.5 34t87.5 18q10 0 28.5 -18.5t27.5 -33.5q-18 -76 -44 -185.5t-52.5 -218t-49 -199.5t-31.5 -130q-4 -14 9 -14q20 0 61 9t92 24q6 -23 9 -43.5t8 -42.5q-63 -20 -130 -32.5t-126 -12.5q-8 0 -35 20.5t-37 42.5q18 76 37.5 163t41 179t43.5 185.5 t42 179.5l-174 -11q-2 23 -3 43.5t-1 42.5zM236 1036q74 61 152.5 130t150.5 128q23 -23 41 -47t34 -49q-78 -53 -163.5 -112.5t-163.5 -112.5q-14 16 -26.5 31.5t-24.5 31.5z" />
<glyph unicode="&#xee;" horiz-adv-x="514" d="M66 827q121 16 196.5 34t87.5 18q10 0 28.5 -18.5t27.5 -33.5q-18 -76 -44 -185.5t-52.5 -218t-49 -199.5t-31.5 -130q-4 -14 9 -14q20 0 61 9t92 24q6 -23 9 -43.5t8 -42.5q-63 -20 -130 -32.5t-126 -12.5q-8 0 -35 20.5t-37 42.5q18 76 37.5 163t41 179t43.5 185.5 t42 179.5l-174 -11q-2 23 -3 43.5t-1 42.5zM94 1026q59 59 124 122.5t118 117.5h78q37 -51 81 -121t80 -123q-14 -12 -30.5 -25.5t-32.5 -23.5q-35 41 -75 88t-77 88q-49 -41 -107 -90t-106 -88q-14 12 -27.5 26.5t-25.5 28.5z" />
<glyph unicode="&#xef;" horiz-adv-x="514" d="M66 827q121 16 196.5 34t87.5 18q10 0 28.5 -18.5t27.5 -33.5q-18 -76 -44 -185.5t-52.5 -218t-49 -199.5t-31.5 -130q-4 -14 9 -14q20 0 61 9t92 24q6 -23 9 -43.5t8 -42.5q-63 -20 -130 -32.5t-126 -12.5q-8 0 -35 20.5t-37 42.5q18 76 37.5 163t41 179t43.5 185.5 t42 179.5l-174 -11q-2 23 -3 43.5t-1 42.5zM92 1090q0 31 23.5 63.5t70.5 32.5h2q43 0 60.5 -26.5t17.5 -53.5q0 -37 -25.5 -65.5t-62.5 -28.5q-39 0 -62.5 21.5t-23.5 56.5zM412 1090q0 33 22.5 64.5t69.5 31.5h2q39 0 59.5 -26.5t20.5 -53.5q0 -35 -23.5 -64.5 t-68.5 -29.5q-41 0 -61.5 25.5t-20.5 52.5z" />
<glyph unicode="&#xf0;" horiz-adv-x="884" d="M47 266v2q0 72 15.5 141.5t42 132t63.5 116t80 92.5q70 66 134 86t120 20q49 0 91 -19.5t71 -48.5l10 5q-10 72 -34 159.5t-71 159.5q-61 -29 -130.5 -58.5t-141.5 -64.5q-10 20 -20.5 42t-18.5 40q72 33 135.5 61.5t128.5 55.5q-47 57 -109.5 100t-150.5 64 q6 23 15.5 44t19.5 40q111 -18 198 -75.5t136 -123.5q57 27 117.5 54.5t119.5 54.5q23 -45 37 -89q-57 -27 -111.5 -50t-107.5 -48q29 -43 51.5 -98t38 -114.5t23.5 -121t8 -118.5q0 -211 -49 -359.5t-154 -253.5q-59 -57 -127.5 -85.5t-154.5 -28.5q-78 0 -131.5 27.5 t-79.5 60.5q-23 27 -43.5 76.5t-20.5 121.5zM203 272q0 -94 33 -147q39 -57 112 -57q47 0 93 26.5t81 71.5q25 33 49.5 82t44 107.5t30.5 122t11 128.5q0 23 -1 36t-3 23.5t-7 18.5t-13 21q-23 29 -54.5 45t-80.5 16q-96 0 -185 -113q-16 -18 -34.5 -56t-36 -88t-28.5 -111 t-11 -124v-2z" />
<glyph unicode="&#xf1;" horiz-adv-x="1044" d="M70 0q16 70 38.5 164t47 195.5t48.5 203t42 187.5l-162 -15q-2 23 -3 44.5t-1 41.5q51 8 96 18.5t80 19.5t57.5 14.5t28.5 5.5q10 0 27.5 -13.5t25.5 -27.5q-10 -43 -24.5 -101.5t-30.5 -122.5l14 -4q61 72 122 122t116 83t102 48.5t82 15.5q41 -6 76 -34t57 -71 q8 -16 10.5 -32.5t2.5 -30.5q0 -35 -12.5 -97.5t-34 -144.5t-52 -177t-65.5 -196q-4 -14 8 -14q18 0 58 9t89 24q8 -43 13 -86q-59 -23 -130 -35t-134 -12q-10 0 -30 18t-28 43q12 39 30.5 95.5t36 115.5t34 115.5t26.5 95.5q6 20 12.5 48t12.5 56.5t10 55t4 47.5 q0 29 -14.5 51t-48.5 22q-47 0 -111 -36.5t-123 -89t-104 -111.5t-58 -105q-8 -29 -21.5 -83t-28.5 -115.5t-28.5 -116.5t-21.5 -86q-35 -2 -71 -2h-70zM383 1010q16 92 63.5 147t106.5 55h2q39 0 68.5 -22.5t58.5 -42.5q23 -18 42 -31.5t42 -13.5q51 0 74 106q18 2 37.5 1 t35.5 -1q-10 -88 -53 -150.5t-110 -62.5q-33 0 -62 19.5t-53 38.5q-27 23 -49.5 40t-46.5 17q-29 0 -47.5 -27.5t-32.5 -72.5q-18 -2 -38 -1t-38 1z" />
<glyph unicode="&#xf2;" horiz-adv-x="899" d="M49 256q0 154 58.5 287t150.5 221q72 66 142.5 90.5t144.5 24.5q66 0 111.5 -20.5t78.5 -55.5t55.5 -91t22.5 -134v-3q0 -129 -51 -257t-156 -226q-57 -53 -125.5 -82.5t-165.5 -29.5q-78 0 -128 26.5t-78 61.5q-23 29 -41.5 79t-18.5 109zM205 274q0 -49 7 -83.5 t26 -63.5q16 -29 46.5 -43t67.5 -14h2q51 0 97.5 26.5t80.5 69.5q27 33 49.5 80t39 102t26.5 112.5t10 110.5q0 57 -8 91t-24 63q-16 27 -41 44t-72 17q-106 0 -190 -112q-18 -27 -40 -69t-38.5 -94t-27.5 -112.5t-11 -124.5zM344 1214q20 25 41.5 47t44.5 42 q66 -61 142.5 -136t140.5 -137q-14 -16 -27.5 -31.5t-28.5 -29.5q-72 57 -154.5 122.5t-158.5 122.5z" />
<glyph unicode="&#xf3;" horiz-adv-x="899" d="M49 256q0 154 58.5 287t150.5 221q72 66 142.5 90.5t144.5 24.5q66 0 111.5 -20.5t78.5 -55.5t55.5 -91t22.5 -134v-3q0 -129 -51 -257t-156 -226q-57 -53 -125.5 -82.5t-165.5 -29.5q-78 0 -128 26.5t-78 61.5q-23 29 -41.5 79t-18.5 109zM205 274q0 -49 7 -83.5 t26 -63.5q16 -29 46.5 -43t67.5 -14h2q51 0 97.5 26.5t80.5 69.5q27 33 49.5 80t39 102t26.5 112.5t10 110.5q0 57 -8 91t-24 63q-16 27 -41 44t-72 17q-106 0 -190 -112q-18 -27 -40 -69t-38.5 -94t-27.5 -112.5t-11 -124.5zM444 1034q74 61 153 130t151 128q23 -23 41 -47 t34 -49q-78 -53 -164 -112.5t-163 -112.5q-14 16 -26.5 31.5t-25.5 31.5z" />
<glyph unicode="&#xf4;" horiz-adv-x="899" d="M49 256q0 154 58.5 287t150.5 221q72 66 142.5 90.5t144.5 24.5q66 0 111.5 -20.5t78.5 -55.5t55.5 -91t22.5 -134v-3q0 -129 -51 -257t-156 -226q-57 -53 -125.5 -82.5t-165.5 -29.5q-78 0 -128 26.5t-78 61.5q-23 29 -41.5 79t-18.5 109zM205 274q0 -49 7 -83.5 t26 -63.5q16 -29 46.5 -43t67.5 -14h2q51 0 97.5 26.5t80.5 69.5q27 33 49.5 80t39 102t26.5 112.5t10 110.5q0 57 -8 91t-24 63q-16 27 -41 44t-72 17q-106 0 -190 -112q-18 -27 -40 -69t-38.5 -94t-27.5 -112.5t-11 -124.5zM301 1024q59 59 123.5 122.5t118.5 117.5h78 q37 -51 80.5 -121t80.5 -123q-14 -12 -30.5 -25.5t-32.5 -23.5q-35 41 -75 88t-77 88q-49 -41 -107.5 -90t-105.5 -88q-14 12 -27.5 26.5t-25.5 28.5z" />
<glyph unicode="&#xf5;" horiz-adv-x="899" d="M49 256q0 154 58.5 287t150.5 221q72 66 142.5 90.5t144.5 24.5q66 0 111.5 -20.5t78.5 -55.5t55.5 -91t22.5 -134v-3q0 -129 -51 -257t-156 -226q-57 -53 -125.5 -82.5t-165.5 -29.5q-78 0 -128 26.5t-78 61.5q-23 29 -41.5 79t-18.5 109zM205 274q0 -49 7 -83.5 t26 -63.5q16 -29 46.5 -43t67.5 -14h2q51 0 97.5 26.5t80.5 69.5q27 33 49.5 80t39 102t26.5 112.5t10 110.5q0 57 -8 91t-24 63q-16 27 -41 44t-72 17q-106 0 -190 -112q-18 -27 -40 -69t-38.5 -94t-27.5 -112.5t-11 -124.5zM317 1012q16 92 63.5 147t106.5 55h2 q39 0 69 -22.5t58 -42.5q23 -18 42.5 -31.5t41.5 -13.5q51 0 74 106q18 2 37.5 1t36.5 -1q-10 -88 -53 -150.5t-111 -62.5q-33 0 -61.5 19.5t-53.5 38.5q-27 23 -49 40t-47 17q-29 0 -47 -27.5t-33 -72.5q-18 -2 -37.5 -1t-38.5 1z" />
<glyph unicode="&#xf6;" horiz-adv-x="899" d="M49 256q0 154 58.5 287t150.5 221q72 66 142.5 90.5t144.5 24.5q66 0 111.5 -20.5t78.5 -55.5t55.5 -91t22.5 -134v-3q0 -129 -51 -257t-156 -226q-57 -53 -125.5 -82.5t-165.5 -29.5q-78 0 -128 26.5t-78 61.5q-23 29 -41.5 79t-18.5 109zM205 274q0 -49 7 -83.5 t26 -63.5q16 -29 46.5 -43t67.5 -14h2q51 0 97.5 26.5t80.5 69.5q27 33 49.5 80t39 102t26.5 112.5t10 110.5q0 57 -8 91t-24 63q-16 27 -41 44t-72 17q-106 0 -190 -112q-18 -27 -40 -69t-38.5 -94t-27.5 -112.5t-11 -124.5zM340 1085q0 31 23.5 64t70.5 33h2 q43 0 60.5 -27t17.5 -53q0 -37 -25.5 -65.5t-62.5 -28.5q-39 0 -62.5 21.5t-23.5 55.5zM659 1085q0 33 23 65t70 32h2q39 0 59.5 -27t20.5 -53q0 -35 -24 -64.5t-69 -29.5q-41 0 -61.5 25.5t-20.5 51.5z" />
<glyph unicode="&#xf7;" d="M109 432q0 27 1 54.5t3 52.5q188 2 404 3t411 3q0 -25 -1 -55.5t-5 -57.5h-813zM420 201q0 39 25.5 69.5t70.5 30.5h2q43 0 69.5 -29.5t24.5 -70.5q0 -35 -23.5 -68t-68.5 -33q-53 0 -76.5 33t-23.5 68zM420 772q0 39 25.5 69.5t72.5 30.5h2q43 0 67.5 -28.5t24.5 -69.5 q0 -35 -23.5 -68.5t-68.5 -33.5q-53 0 -76.5 32.5t-23.5 67.5z" />
<glyph unicode="&#xf8;" horiz-adv-x="899" d="M-23 -18q29 29 59 60.5t58 61.5q-18 29 -31.5 74t-13.5 92q0 145 58.5 275.5t152.5 220.5q70 66 139.5 89.5t143.5 23.5h2q49 0 94 -17.5t68 -42.5q27 29 51 57.5t49 57.5q35 -27 65 -64q-25 -29 -51 -59.5t-53 -60.5q18 -29 31.5 -76t13.5 -103q0 -121 -50 -249.5 t-155 -229.5q-57 -53 -124.5 -82.5t-149.5 -29.5q-61 0 -106.5 16t-77.5 45q-29 -29 -55.5 -57.5t-55.5 -57.5q-16 12 -31.5 25.5t-30.5 30.5zM195 301q0 -25 1 -50.5t5 -45.5q111 133 217 262t215 258q-14 27 -46 44t-75 17h-2q-106 0 -193 -116q-18 -25 -39.5 -64t-40 -88 t-30.5 -104.5t-12 -112.5zM227 131q20 -31 50 -46t81 -15h2q47 0 95.5 28.5t85.5 71.5q51 61 90 161.5t39 215.5q0 27 -1 52.5t-3 45.5q-111 -131 -219.5 -258t-219.5 -256z" />
<glyph unicode="&#xf9;" horiz-adv-x="997" d="M76 821q109 20 187.5 39t86.5 19q10 0 28.5 -18.5t22.5 -35.5q-16 -47 -33.5 -109.5t-35 -127t-32.5 -122.5t-24 -97q-10 -47 -20 -102.5t-10 -90.5q0 -39 18.5 -57.5t44.5 -18.5q39 0 95.5 38t111.5 90.5t98 108.5t54 95q6 25 18 78t26.5 116.5t28 126t21.5 103.5 q37 2 72.5 2h70.5q-6 -27 -17 -80t-26.5 -122.5t-33 -148.5t-34 -155t-30.5 -142.5t-23 -111.5q-2 -6 1 -9t8 -3q16 0 55 8t92 25q12 -45 18 -84q-70 -29 -137 -41t-114 -12q-8 0 -28 17t-30 38q4 25 14.5 78t26.5 121l-12 4q-115 -125 -214 -194t-165 -71q-31 4 -70 29 t-61 57q-25 33 -25 89q0 39 12.5 107.5t33 152.5t44 173t48.5 169l-154 -17q-2 23 -3 44.5t-5 41.5zM360 1217q20 25 41.5 46.5t44.5 41.5q66 -61 143 -136t140 -137q-14 -16 -27.5 -31.5t-27.5 -29.5q-72 57 -155 122.5t-159 123.5z" />
<glyph unicode="&#xfa;" horiz-adv-x="997" d="M76 821q109 20 187.5 39t86.5 19q10 0 28.5 -18.5t22.5 -35.5q-16 -47 -33.5 -109.5t-35 -127t-32.5 -122.5t-24 -97q-10 -47 -20 -102.5t-10 -90.5q0 -39 18.5 -57.5t44.5 -18.5q39 0 95.5 38t111.5 90.5t98 108.5t54 95q6 25 18 78t26.5 116.5t28 126t21.5 103.5 q37 2 72.5 2h70.5q-6 -27 -17 -80t-26.5 -122.5t-33 -148.5t-34 -155t-30.5 -142.5t-23 -111.5q-2 -6 1 -9t8 -3q16 0 55 8t92 25q12 -45 18 -84q-70 -29 -137 -41t-114 -12q-8 0 -28 17t-30 38q4 25 14.5 78t26.5 121l-12 4q-115 -125 -214 -194t-165 -71q-31 4 -70 29 t-61 57q-25 33 -25 89q0 39 12.5 107.5t33 152.5t44 173t48.5 169l-154 -17q-2 23 -3 44.5t-5 41.5zM520 1036q74 61 152.5 130t150.5 128q23 -23 41.5 -47t34.5 -49q-78 -53 -164 -112.5t-164 -112.5q-14 16 -26.5 31.5t-24.5 31.5z" />
<glyph unicode="&#xfb;" horiz-adv-x="997" d="M76 821q109 20 187.5 39t86.5 19q10 0 28.5 -18.5t22.5 -35.5q-16 -47 -33.5 -109.5t-35 -127t-32.5 -122.5t-24 -97q-10 -47 -20 -102.5t-10 -90.5q0 -39 18.5 -57.5t44.5 -18.5q39 0 95.5 38t111.5 90.5t98 108.5t54 95q6 25 18 78t26.5 116.5t28 126t21.5 103.5 q37 2 72.5 2h70.5q-6 -27 -17 -80t-26.5 -122.5t-33 -148.5t-34 -155t-30.5 -142.5t-23 -111.5q-2 -6 1 -9t8 -3q16 0 55 8t92 25q12 -45 18 -84q-70 -29 -137 -41t-114 -12q-8 0 -28 17t-30 38q4 25 14.5 78t26.5 121l-12 4q-115 -125 -214 -194t-165 -71q-31 4 -70 29 t-61 57q-25 33 -25 89q0 39 12.5 107.5t33 152.5t44 173t48.5 169l-154 -17q-2 23 -3 44.5t-5 41.5zM375 1026q59 59 123.5 122.5t117.5 117.5h78q37 -51 81 -121t81 -123q-14 -12 -30.5 -25.5t-32.5 -23.5q-35 41 -75 88t-77 88q-49 -41 -107.5 -90t-105.5 -88 q-14 12 -27.5 26.5t-25.5 28.5z" />
<glyph unicode="&#xfc;" horiz-adv-x="997" d="M76 821q109 20 187.5 39t86.5 19q10 0 28.5 -18.5t22.5 -35.5q-16 -47 -33.5 -109.5t-35 -127t-32.5 -122.5t-24 -97q-10 -47 -20 -102.5t-10 -90.5q0 -39 18.5 -57.5t44.5 -18.5q39 0 95.5 38t111.5 90.5t98 108.5t54 95q6 25 18 78t26.5 116.5t28 126t21.5 103.5 q37 2 72.5 2h70.5q-6 -27 -17 -80t-26.5 -122.5t-33 -148.5t-34 -155t-30.5 -142.5t-23 -111.5q-2 -6 1 -9t8 -3q16 0 55 8t92 25q12 -45 18 -84q-70 -29 -137 -41t-114 -12q-8 0 -28 17t-30 38q4 25 14.5 78t26.5 121l-12 4q-115 -125 -214 -194t-165 -71q-31 4 -70 29 t-61 57q-25 33 -25 89q0 39 12.5 107.5t33 152.5t44 173t48.5 169l-154 -17q-2 23 -3 44.5t-5 41.5zM373 1090q0 31 23.5 63.5t70.5 32.5h2q43 0 60.5 -26.5t17.5 -53.5q0 -37 -25.5 -65.5t-62.5 -28.5q-39 0 -62.5 21.5t-23.5 56.5zM692 1090q0 33 22.5 64.5t69.5 31.5h2 q39 0 59.5 -26.5t20.5 -53.5q0 -35 -23.5 -64.5t-68.5 -29.5q-41 0 -61.5 25.5t-20.5 52.5z" />
<glyph unicode="&#xfd;" horiz-adv-x="880" d="M-104 -401q66 33 115.5 66.5t94.5 68.5q43 35 92.5 84t84.5 100q-10 63 -24.5 166.5t-29 220.5t-29 235t-24.5 210l-158 -29q-10 47 -12 86q102 29 171 50.5t79 21.5t28.5 -13.5t32.5 -29.5q8 -98 18.5 -203t21 -208t20.5 -198.5t18 -175.5h13q47 78 81.5 138.5 t65.5 125.5q23 47 47.5 107.5t46 120t34.5 114t13 91.5q0 18 -18 16l-121 -10q-4 23 -4 43t-2 43q78 12 144.5 25.5t82.5 13.5q4 0 14.5 -8.5t21.5 -19.5t19.5 -21.5t8.5 -16.5q0 -53 -20.5 -125t-50.5 -148.5t-65.5 -151.5t-66.5 -132q-39 -72 -87 -147.5t-102.5 -150.5 t-114 -148.5t-120.5 -137.5q-37 -39 -70.5 -70.5t-62.5 -55t-49.5 -36t-28.5 -12.5q-12 0 -30.5 10.5t-35 24.5t-28.5 31.5t-14 34.5zM426 1036q74 61 152.5 130t150.5 128q23 -23 41 -47t35 -49q-78 -53 -164 -112.5t-164 -112.5q-14 16 -26.5 31.5t-24.5 31.5z" />
<glyph unicode="&#xfe;" horiz-adv-x="962" d="M-29 -481q33 166 71 366.5t79 413.5t82 428t78 414l-168 -8q-2 23 -2 44v44q137 16 198.5 31.5t71.5 15.5t28.5 -15.5t26.5 -29.5q-16 -78 -35.5 -174.5t-38 -186.5t-35 -165.5t-24.5 -112.5l16 -4q227 301 414 303q49 -6 89 -42t57 -77q8 -16 11 -36.5t3 -33.5 q0 -104 -29.5 -229t-89.5 -236q-25 -45 -59.5 -89t-78.5 -79.5t-98.5 -58t-115.5 -22.5q-53 0 -106.5 18t-98.5 59q-10 -57 -24.5 -126.5t-28.5 -141.5t-27.5 -141.5t-25.5 -126.5q-35 -2 -70 -2h-70zM238 174q31 -45 79 -69.5t99 -24.5q43 0 78.5 16.5t65.5 42t52.5 58 t38.5 65.5q45 92 67.5 195.5t22.5 197.5v2q0 39 -16 68t-57 29q-47 0 -108.5 -42t-120 -102.5t-103.5 -125t-57 -109.5q-4 -12 -9.5 -39t-11.5 -57.5t-12 -59.5t-8 -45z" />
<glyph unicode="&#xff;" horiz-adv-x="880" d="M-104 -401q66 33 115.5 66.5t94.5 68.5q43 35 92.5 84t84.5 100q-10 63 -24.5 166.5t-29 220.5t-29 235t-24.5 210l-158 -29q-10 47 -12 86q102 29 171 50.5t79 21.5t28.5 -13.5t32.5 -29.5q8 -98 18.5 -203t21 -208t20.5 -198.5t18 -175.5h13q47 78 81.5 138.5 t65.5 125.5q23 47 47.5 107.5t46 120t34.5 114t13 91.5q0 18 -18 16l-121 -10q-4 23 -4 43t-2 43q78 12 144.5 25.5t82.5 13.5q4 0 14.5 -8.5t21.5 -19.5t19.5 -21.5t8.5 -16.5q0 -53 -20.5 -125t-50.5 -148.5t-65.5 -151.5t-66.5 -132q-39 -72 -87 -147.5t-102.5 -150.5 t-114 -148.5t-120.5 -137.5q-37 -39 -70.5 -70.5t-62.5 -55t-49.5 -36t-28.5 -12.5q-12 0 -30.5 10.5t-35 24.5t-28.5 31.5t-14 34.5zM295 1090q0 31 23.5 63.5t70.5 32.5h2q43 0 60.5 -26.5t17.5 -53.5q0 -37 -25.5 -65.5t-62.5 -28.5q-39 0 -62.5 21.5t-23.5 56.5z M614 1090q0 33 23 64.5t70 31.5h2q39 0 59 -26.5t20 -53.5q0 -35 -23.5 -64.5t-68.5 -29.5q-41 0 -61.5 25.5t-20.5 52.5z" />
<glyph unicode="&#x152;" horiz-adv-x="1968" d="M113 522v2q0 127 31.5 238.5t81.5 204t116 164t133 116.5q92 61 186.5 83t192.5 22q141 0 237.5 -55.5t143.5 -133.5q6 41 13 85t14 83h147h371h164q-8 -78 -17.5 -157.5t-19.5 -159.5q-23 -2 -46.5 -2t-45.5 -2v176q0 16 -8.5 25.5t-34.5 13.5q-41 4 -135.5 6t-219.5 2 q-18 0 -26 -4l-86 -498q86 2 165.5 2t161.5 2q33 0 44.5 10.5t15.5 30.5l26 98q23 2 46.5 1t45.5 -1q-8 -47 -16 -97t-18 -99q-8 -45 -15.5 -94t-17.5 -97q-23 -2 -46.5 -2h-47.5l10 103q4 27 -6.5 36t-42.5 9q-72 2 -151 2h-171l-86 -498q-2 -12 0 -20t13.5 -13.5t34 -6.5 t63.5 -1q123 0 209 5t114 12q29 6 45 41l88 184q23 -4 46.5 -10t46.5 -15q-27 -78 -54.5 -156.5t-56.5 -158.5h-105.5t-141 1t-147.5 1h-122q-53 0 -102.5 -1t-94.5 -1q8 41 14.5 85t14.5 91q-92 -102 -203.5 -148t-251.5 -46q-135 0 -229 48t-160 126t-88 177t-22 191z M281 514q0 -74 14 -152.5t74 -156.5q47 -59 120.5 -93t163.5 -34q78 0 143.5 21.5t120 59.5t97.5 89t76 112q14 82 29.5 169t29.5 173t27.5 167t23.5 149q-18 49 -49 91t-75 73.5t-101 50t-131 18.5q-98 0 -178 -28.5t-146 -92.5q-37 -35 -79 -91t-77.5 -133t-59 -174 t-23.5 -216v-2z" />
<glyph unicode="&#x153;" horiz-adv-x="1384" d="M49 258q0 152 57.5 284t149.5 220q72 70 140.5 93.5t140.5 23.5q88 0 147 -47.5t82 -149.5h12q74 96 152 146.5t182 50.5q49 0 88 -18.5t66.5 -48.5t44 -67.5t16.5 -74.5q-6 -53 -35.5 -109.5t-70.5 -79.5q-86 -49 -198 -65.5t-243 -16.5q-10 -37 -17 -83t-7 -76 q0 -72 36.5 -111t102.5 -39q59 0 147 30t177 79q10 -20 17 -40t15 -40q-90 -53 -197.5 -96t-201.5 -43q-68 0 -129.5 39.5t-79.5 123.5h-10q-78 -96 -154 -129.5t-157 -33.5q-74 0 -125.5 23.5t-85.5 64.5q-20 23 -41 72.5t-21 117.5zM205 276q0 -47 7 -83.5t26 -65.5 q16 -29 46.5 -43t67.5 -14h2q49 0 95.5 24.5t80.5 69.5q25 31 48.5 78t41 102t28.5 114.5t11 114.5q0 57 -9 89t-25 65q-12 25 -39 43t-70 18q-53 0 -101 -26.5t-93 -85.5q-18 -25 -40 -67t-38.5 -94t-27.5 -113.5t-11 -125.5zM801 487q80 -2 158.5 10.5t134.5 41.5 q35 16 59.5 40.5t24.5 71.5q0 49 -28 89t-87 40h-2q-49 0 -87 -23.5t-69 -64.5q-25 -31 -53.5 -79t-50.5 -126z" />
<glyph unicode="&#x178;" horiz-adv-x="1091" d="M78 1237q4 23 9 47.5t9 46.5h187q74 0 143.5 1t128.5 1q-4 -23 -8 -48t-10 -48l-177 -6q18 -55 43 -131t52.5 -157t54.5 -162t49 -146h14q37 51 92.5 133t114 168t109.5 164t78 121q4 10 -6 10l-164 4q4 23 9 48.5t11 47.5h258q41 0 86 1t80 1q-4 -23 -9 -47t-9 -47 l-99 -8q-59 -80 -123.5 -171t-132 -184.5t-134 -185.5t-128.5 -174l-71 -414l184 -6q-4 -23 -8 -48t-11 -48q-55 0 -121.5 1t-129.5 1q-59 0 -125 -1t-127 -1q4 23 10 48t10 48l154 6q14 0 14 13l68 401q-31 80 -64 170t-65.5 181t-65.5 181.5t-63 174.5q-4 8 -13 8z M469 1550q0 37 23.5 68t70.5 31h2q43 0 60.5 -27t17.5 -55q0 -37 -24.5 -64.5t-65.5 -27.5q-35 0 -59.5 20.5t-24.5 54.5zM809 1552q0 35 23.5 66t70.5 31h2q41 0 59.5 -26t18.5 -54q0 -39 -23.5 -66.5t-62.5 -27.5q-43 0 -65.5 24.5t-22.5 52.5z" />
<glyph unicode="&#x2c6;" horiz-adv-x="937" d="M299 1026q59 59 123.5 122.5t118.5 117.5h77q37 -51 81 -121t81 -123q-14 -12 -30.5 -25.5t-32.5 -23.5q-35 41 -75 88t-77 88q-49 -41 -107.5 -90t-105.5 -88q-14 12 -27.5 26.5t-25.5 28.5z" />
<glyph unicode="&#x2dc;" horiz-adv-x="937" d="M303 1020q16 92 63.5 147.5t106.5 55.5h2q39 0 68.5 -22.5t58.5 -43.5q23 -18 42.5 -31.5t41.5 -13.5q51 0 74 107q18 2 37.5 1t36.5 -1q-10 -88 -53.5 -150.5t-110.5 -62.5q-33 0 -61.5 19t-53.5 38q-27 23 -49.5 40t-46.5 17q-29 0 -47.5 -27.5t-32.5 -72.5 q-18 -2 -37.5 -1t-38.5 1z" />
<glyph unicode="&#x2000;" horiz-adv-x="888" />
<glyph unicode="&#x2001;" horiz-adv-x="1776" />
<glyph unicode="&#x2002;" horiz-adv-x="888" />
<glyph unicode="&#x2003;" horiz-adv-x="1776" />
<glyph unicode="&#x2004;" horiz-adv-x="592" />
<glyph unicode="&#x2005;" horiz-adv-x="444" />
<glyph unicode="&#x2006;" horiz-adv-x="296" />
<glyph unicode="&#x2007;" horiz-adv-x="296" />
<glyph unicode="&#x2008;" horiz-adv-x="222" />
<glyph unicode="&#x2009;" horiz-adv-x="355" />
<glyph unicode="&#x200a;" horiz-adv-x="98" />
<glyph unicode="&#x2010;" horiz-adv-x="614" d="M59 438q4 27 8.5 54.5t8.5 54.5h219q70 2 130 2t120 2q-4 -31 -9.5 -59.5t-9.5 -53.5h-241h-2h-224z" />
<glyph unicode="&#x2011;" horiz-adv-x="614" d="M59 438q4 27 8.5 54.5t8.5 54.5h219q70 2 130 2t120 2q-4 -31 -9.5 -59.5t-9.5 -53.5h-241h-2h-224z" />
<glyph unicode="&#x2012;" horiz-adv-x="614" d="M59 438q4 27 8.5 54.5t8.5 54.5h219q70 2 130 2t120 2q-4 -31 -9.5 -59.5t-9.5 -53.5h-241h-2h-224z" />
<glyph unicode="&#x2013;" horiz-adv-x="1024" d="M59 457q4 27 8.5 54.5t8.5 53.5h430q102 0 223 1t225 3q-4 -31 -9 -59.5t-11 -52.5h-447h-2h-426z" />
<glyph unicode="&#x2014;" horiz-adv-x="2048" d="M59 457q4 27 8.5 54.5t8.5 53.5q229 0 453.5 1t453.5 1q250 2 498 2h497q-4 -31 -9 -59.5t-9 -52.5h-981h-2h-918z" />
<glyph unicode="&#x2018;" horiz-adv-x="370" d="M170 1108q0 53 20.5 103.5t54.5 93.5t78 77.5t91 59.5q25 -29 49 -66q-68 -43 -107 -89t-39 -95q0 -33 21.5 -50.5t56.5 -27.5q-4 -63 -40 -101t-81 -38h-2q-39 0 -70.5 39t-31.5 94z" />
<glyph unicode="&#x2019;" horiz-adv-x="370" d="M121 1028q66 41 104.5 88t38.5 96q0 35 -21.5 51.5t-56.5 24.5q4 66 40 104t81 38q41 0 73 -38.5t32 -95.5v-2q0 -53 -19.5 -101t-53.5 -90t-78 -78t-91 -60q-12 16 -25.5 31.5t-23.5 31.5z" />
<glyph unicode="&#x201a;" horiz-adv-x="458" d="M2 -209q66 43 104.5 90t38.5 94q0 35 -21.5 51.5t-55.5 24.5q4 66 39.5 104t78.5 38h2q41 0 73 -38t32 -96q0 -53 -19.5 -102t-53.5 -91t-78 -78t-91 -60q-12 16 -25.5 31.5t-23.5 31.5z" />
<glyph unicode="&#x201c;" horiz-adv-x="679" d="M168 1114q0 51 19.5 100.5t52 91.5t75.5 76.5t91 59.5q14 -14 26 -30.5t23 -33.5q-66 -43 -104 -88t-38 -94q0 -33 21.5 -49.5t56.5 -26.5q-4 -61 -39 -98t-80 -37h-2q-39 0 -70.5 38t-31.5 91zM483 1114q0 51 19.5 100.5t53.5 92.5t76 76.5t89 58.5q14 -14 26.5 -30.5 t22.5 -33.5q-66 -43 -103.5 -88t-37.5 -94q0 -33 21.5 -49.5t56.5 -26.5q-4 -61 -40 -98t-79 -37h-2q-39 0 -71 38t-32 91z" />
<glyph unicode="&#x201d;" horiz-adv-x="679" d="M121 1036q66 41 102.5 87t36.5 96q0 33 -20.5 48t-57.5 25q4 63 41 100.5t78 37.5h2q39 0 71 -37t32 -93q0 -53 -19.5 -101t-53.5 -90t-77 -76t-88 -58q-12 16 -24.5 30.5t-22.5 30.5zM436 1036q63 41 101 87t38 96q0 33 -21.5 48t-55.5 25q4 63 39.5 100.5t78.5 37.5h2 q39 0 71 -37t32 -93q0 -53 -19.5 -101t-53.5 -90t-77 -76t-88 -58q-31 35 -47 61z" />
<glyph unicode="&#x201e;" horiz-adv-x="761" d="M0 -201q66 41 102.5 87t36.5 96q0 33 -20.5 48t-57.5 25q4 63 41 100.5t78 37.5h2q39 0 71 -37t32 -93q0 -53 -19.5 -101t-53.5 -89t-77 -76t-88 -59q-12 16 -24.5 30.5t-22.5 30.5zM315 -201q63 41 101.5 87t38.5 96q0 33 -21.5 48t-56.5 25q4 63 40 100.5t79 37.5h2 q39 0 70.5 -37t31.5 -93q0 -53 -19.5 -101t-53 -90t-76.5 -76t-89 -58q-31 35 -47 61z" />
<glyph unicode="&#x2022;" horiz-adv-x="630" d="M115 541q0 39 14 77.5t42 69.5t64.5 49.5t83.5 18.5t83 -17.5t59.5 -46t36 -65.5t12.5 -76v-2q0 -41 -14.5 -79t-41 -66.5t-62.5 -45t-79 -16.5q-94 0 -146 57.5t-52 141.5z" />
<glyph unicode="&#x2026;" horiz-adv-x="1603" d="M143 88q0 41 30 78t83 37h2q31 0 51.5 -11.5t31.5 -28t16 -35.5t5 -34q0 -47 -32.5 -79.5t-79.5 -32.5q-51 0 -79 29.5t-28 76.5zM678 88q0 41 30 78t83 37h2q31 0 51 -11.5t31.5 -28t16.5 -35.5t5 -34q0 -47 -33 -79.5t-80 -32.5q-51 0 -78.5 29.5t-27.5 76.5zM1212 88 q0 41 30 78t83 37h2q31 0 51.5 -11.5t31.5 -28t16.5 -35.5t5.5 -34q0 -47 -33 -79.5t-80 -32.5q-51 0 -79 29.5t-28 76.5z" />
<glyph unicode="&#x202f;" horiz-adv-x="355" />
<glyph unicode="&#x2039;" horiz-adv-x="542" d="M82 410q2 20 5 40.5t7 38.5q86 76 168 151t162 151q16 -14 31.5 -31t27.5 -33q-61 -70 -125 -140.5t-127 -142.5q37 -72 79 -143.5t83 -142.5q-16 -12 -34.5 -26.5t-39.5 -27.5q-59 78 -117.5 155t-119.5 151z" />
<glyph unicode="&#x203a;" horiz-adv-x="542" d="M20 168q66 70 129.5 141.5t122.5 143.5q-39 70 -79.5 141.5t-81.5 142.5q16 14 35.5 27.5t37.5 26.5q57 -78 115.5 -155t122.5 -151q-2 -18 -5 -39.5t-7 -39.5q-86 -76 -166 -151t-164 -151q-16 14 -30.5 31t-29.5 33z" />
<glyph unicode="&#x205f;" horiz-adv-x="444" />
<glyph unicode="&#x20ac;" d="M-8 485l10 84h100q4 35 8.5 69t14.5 69h-102l10 84h119q47 129 126.5 233t172.5 172q119 88 235.5 115.5t210.5 27.5q88 0 151.5 -14t94.5 -31q-10 -86 -20.5 -174t-22.5 -174q-25 -2 -51.5 -3t-53.5 -1l6 225q0 20 -8 27q-53 33 -157 33q-78 0 -162 -30t-156 -93 q-74 -66 -126 -145.5t-83 -167.5h549l-10 -84h-563q-8 -35 -12.5 -71t-6.5 -67h559l-10 -84h-549q4 -78 22.5 -139t53.5 -110q41 -59 118 -99.5t179 -40.5q43 0 90 7.5t91 18.5t85 23.5t76 24.5q4 -23 5 -49.5t1 -52.5q-123 -43 -214 -65.5t-175 -22.5q-98 0 -185 30.5 t-165 102.5q-76 70 -111 169t-37 203h-108z" />
<glyph unicode="&#x2122;" horiz-adv-x="1265" d="M152 1161q2 47 2 88t4 82q55 -2 111.5 -2h115.5q57 0 108.5 1t102.5 1q2 -41 3 -82t5 -88q-16 0 -33.5 -1t-35.5 -3l-13 103q-35 6 -98 6v-383h82v-35t-2 -33q-27 0 -57.5 1t-65.5 1q-33 0 -64.5 -1t-62.5 -1v66l76 2v383q-41 0 -60.5 -1t-36.5 -5l-16 -103 q-16 0 -32.5 1t-32.5 3zM651 815v66l68 2q2 92 2 194.5v188.5h-68v63h195q29 -84 60.5 -185.5t60.5 -187.5h8q12 39 30.5 91.5t36 104.5t33 100t23.5 77h184v-63h-67v-383l69 -2v-66q-27 0 -54.5 1t-55.5 1q-27 0 -49.5 -1t-43.5 -1v32.5t2 33.5l50 2q2 82 3 167t1 160h-13 q-39 -127 -70.5 -215t-56.5 -155h-67q-27 70 -58.5 165t-66.5 212h-12q2 -76 2 -165v-169l51 -2v-33t-2 -33q-18 0 -42 1t-48 1q-29 0 -53.5 -1t-51.5 -1z" />
<glyph unicode="&#x25fc;" horiz-adv-x="880" d="M0 0v881h881v-881h-881z" />
<glyph unicode="&#xfb01;" horiz-adv-x="1069" d="M39 -332q51 283 98 553.5t92 528.5h-166q4 23 7.5 47t7.5 47q41 4 81 5t79 3q10 0 10 14q10 74 24.5 128.5t35 98.5t47 79.5t61.5 70.5q88 86 170.5 111.5t158.5 25.5h3q66 0 126 -13t101 -34q0 -12 -8.5 -31.5t-20.5 -40t-27.5 -36t-27.5 -21.5q-37 16 -96.5 38 t-124.5 22q-47 0 -90 -19.5t-76 -58.5q-23 -29 -40.5 -60.5t-29.5 -71.5t-23.5 -89.5t-21.5 -112.5q152 0 247 5t151.5 9t81 8.5t34.5 4.5t28.5 -18.5t26.5 -33.5q-18 -76 -44.5 -185.5t-52 -218t-48 -199.5t-31.5 -130q-4 -14 6 -14q29 0 67 9t89 24q4 -23 7 -43.5t7 -42.5 q-66 -23 -134 -34t-119 -11q-8 0 -35 20.5t-37 42.5q16 76 36.5 164t42 180t43 184.5t42.5 178.5h-422q-45 -252 -94.5 -523.5t-102.5 -558.5q-35 -2 -68.5 -2h-70.5z" />
<glyph unicode="&#xfb02;" horiz-adv-x="1091" d="M41 -332q51 283 98 554.5t90 529.5h-166q4 23 8.5 47t8.5 47q41 2 80 3t78 3q12 0 12 14q12 72 25.5 126.5t33 99.5t47 81.5t64.5 73.5q76 76 164 104.5t180 28.5h2q37 0 81 -5t86 -14t80 -22.5t62 -27.5q-10 -39 -31.5 -132.5t-50 -215t-59.5 -258t-59.5 -258t-51 -217 t-30.5 -134.5q-4 -12 6 -12q23 0 68.5 7t109.5 24q4 -23 6 -44.5t4 -43.5q-78 -23 -151.5 -34t-130.5 -11q-8 0 -31 19t-35 42q10 43 27.5 120t40 172t47 202.5t49.5 216.5h-428q-45 -254 -93.5 -525.5t-101.5 -558.5q-35 -2 -68.5 -2h-70.5zM391 852q102 2 218 2t216 2 q25 109 45.5 202t40.5 171q-35 16 -91 27.5t-124 11.5h-2q-59 0 -106 -18.5t-80 -59.5q-51 -59 -73.5 -138t-43.5 -200z" />
<glyph unicode="&#xfb03;" horiz-adv-x="1630" d="M41 -332q49 283 96 554.5t90 529.5h-166q4 23 7.5 47t7.5 47q41 4 81 5t79 3q10 0 14 14q12 70 24.5 123t31 95t43 78t59.5 71q86 84 179 109.5t179 25.5h2q35 0 68.5 -6t50.5 -16q0 -14 -8.5 -34t-19.5 -38.5t-24.5 -33.5t-25.5 -21q-12 6 -54 18t-91 12 q-45 0 -91.5 -17t-76.5 -56q-45 -55 -65.5 -132t-41.5 -192h205t207 2q10 0 12 14q12 72 25.5 127.5t33 98.5t46 78.5t61.5 70.5q88 86 171 111.5t159 25.5q68 0 126 -13t99 -34q0 -12 -8 -31.5t-20.5 -40t-28 -36t-27.5 -21.5q-35 16 -95.5 38t-123.5 22q-47 0 -89 -19.5 t-75 -58.5q-23 -29 -39 -60.5t-29.5 -71.5t-23.5 -89t-23 -113q152 0 247 4t151.5 8t80 8.5t33.5 4.5t28.5 -18.5t27.5 -33.5q-18 -76 -45 -184t-52.5 -218t-48 -201t-31.5 -130q-4 -14 7 -14q29 0 66.5 9t88.5 24q4 -23 7.5 -43.5t7.5 -42.5q-66 -23 -134.5 -34t-119.5 -11 q-8 0 -35 20.5t-35 42.5q16 76 36.5 164t42 180t43 185.5t40.5 179.5h-422q-45 -252 -93 -523.5t-100 -558.5q-35 0 -67.5 -1t-69.5 -1q49 281 96.5 552.5t90.5 531.5h-422q-43 -252 -92.5 -524.5t-100.5 -559.5q-35 -2 -67.5 -2h-69.5z" />
<glyph unicode="&#xfb04;" horiz-adv-x="1652" d="M47 -332q47 285 93 555.5t89 528.5h-168q6 47 17 94q41 4 80 5t80 3q8 0 12 14q12 70 24.5 123t30 95t42 77t59.5 70q88 84 181 110.5t179 26.5q41 0 73.5 -7t49.5 -17q0 -14 -8.5 -34t-19.5 -38.5t-24.5 -33.5t-25.5 -21q-10 6 -54 19t-93 13q-47 0 -92.5 -18.5 t-77.5 -56.5q-45 -55 -64.5 -130t-42.5 -192h416q8 0 12 16q10 70 24.5 123.5t34 97.5t46 80.5t63.5 73.5q78 76 166 105.5t180 29.5h2q37 0 80 -6t86 -15t80 -21.5t61 -26.5q-10 -39 -31.5 -132.5t-50 -215t-59.5 -257t-59.5 -258t-51 -218t-30.5 -134.5q-4 -12 6 -12 q23 0 69 7t109 24q4 -23 6 -44.5t4 -43.5q-78 -23 -151.5 -34t-128.5 -11q-8 0 -32 18t-34 41q8 45 25.5 122t40 172t47 203.5t49.5 217.5h-98.5h-113.5t-114.5 -1t-101.5 -1q-45 -252 -93 -523.5t-102 -558.5q-35 0 -67.5 -1t-69.5 -1q51 283 97.5 554.5t91.5 529.5h-99.5 t-112 -1t-111.5 -1h-99q-43 -252 -90 -523.5t-99 -558.5q-35 -2 -67.5 -2h-69.5zM954 856h220t215 2q25 109 46 201t40 170q-35 16 -91 27.5t-122 11.5h-2q-121 0 -189 -78q-25 -29 -42 -62.5t-30.5 -73.5t-23.5 -89.5t-21 -108.5z" />
</font>
</defs>
</svg>
